<?xml version="1.0" encoding="UTF-8" standalone="no"?>
<!-- Created with Inkscape (http://www.inkscape.org/) -->

<svg
   xmlns:dc="http://purl.org/dc/elements/1.1/"
   xmlns:cc="http://creativecommons.org/ns#"
   xmlns:rdf="http://www.w3.org/1999/02/22-rdf-syntax-ns#"
   xmlns:svg="http://www.w3.org/2000/svg"
   xmlns="http://www.w3.org/2000/svg"
   xmlns:xlink="http://www.w3.org/1999/xlink"
   xmlns:sodipodi="http://sodipodi.sourceforge.net/DTD/sodipodi-0.dtd"
   xmlns:inkscape="http://www.inkscape.org/namespaces/inkscape"
   width="744.09448819"
   height="1052.3622047"
   id="svg2"
   version="1.1"
   inkscape:version="0.48.4 r9939"
   sodipodi:docname="rys.svg"
   inkscape:export-filename="D:\TEWI\figures_inkscape\rys.png"
   inkscape:export-xdpi="196"
   inkscape:export-ydpi="196">
  <sodipodi:namedview
     id="base"
     pagecolor="#ffffff"
     bordercolor="#666666"
     borderopacity="1.0"
     inkscape:pageopacity="0.0"
     inkscape:pageshadow="2"
     inkscape:zoom="0.35"
     inkscape:cx="661.94005"
     inkscape:cy="679.06752"
     inkscape:document-units="px"
     inkscape:current-layer="layer1"
     showgrid="false"
     showguides="true"
     inkscape:guide-bbox="true"
     inkscape:window-width="1538"
     inkscape:window-height="877"
     inkscape:window-x="-8"
     inkscape:window-y="-8"
     inkscape:window-maximized="1" />
  <defs
     id="defs4" />
  <metadata
     id="metadata7">
    <rdf:RDF>
      <cc:Work
         rdf:about="">
        <dc:format>image/svg+xml</dc:format>
        <dc:type
           rdf:resource="http://purl.org/dc/dcmitype/StillImage" />
        <dc:title></dc:title>
      </cc:Work>
    </rdf:RDF>
  </metadata>
  <g
     inkscape:label="Layer 1"
     inkscape:groupmode="layer"
     id="layer1">
    <path
       style="fill:none;stroke:#000000;stroke-width:1;stroke-linecap:butt;stroke-linejoin:miter;stroke-opacity:1;stroke-miterlimit:4;stroke-dasharray:none"
       d="m 50,352.36218 387.85714,0"
       id="path3003"
       inkscape:connector-curvature="0" />
    <path
       style="fill:none;stroke:#000000;stroke-width:1;stroke-linecap:butt;stroke-linejoin:miter;stroke-opacity:1;stroke-miterlimit:4;stroke-dasharray:none"
       d="M 50,91.647896 50,352.36218"
       id="path3005"
       inkscape:connector-curvature="0" />
    <path
       style="fill:none;stroke:#000000;stroke-width:0.6;stroke-linecap:butt;stroke-linejoin:miter;stroke-opacity:1;stroke-miterlimit:4;stroke-dasharray:none"
       d="m 101.21937,91.586624 0,260.714276"
       id="path3005-1"
       inkscape:connector-curvature="0" />
    <path
       style="fill:none;stroke:#000000;stroke-width:0.6;stroke-linecap:butt;stroke-linejoin:miter;stroke-opacity:1;stroke-miterlimit:4;stroke-dasharray:none"
       d="m 149.76722,91.236385 0,260.714285"
       id="path3005-7"
       inkscape:connector-curvature="0" />
    <path
       style="fill:none;stroke:#000000;stroke-width:0.6;stroke-linecap:butt;stroke-linejoin:miter;stroke-opacity:1;stroke-miterlimit:4;stroke-dasharray:none"
       d="m 200.0102,91.659648 0,260.714282"
       id="path3005-4"
       inkscape:connector-curvature="0" />
    <path
       style="fill:none;stroke:#000000;stroke-width:0.6;stroke-linecap:butt;stroke-linejoin:miter;stroke-opacity:1;stroke-miterlimit:4;stroke-dasharray:none"
       d="m 250.01276,90.649493 0,260.714277"
       id="path3005-0"
       inkscape:connector-curvature="0" />
    <path
       style="fill:none;stroke:#000000;stroke-width:0.6;stroke-linecap:butt;stroke-linejoin:miter;stroke-opacity:1;stroke-miterlimit:4;stroke-dasharray:none"
       d="m 300.01531,91.15457 0,260.71428"
       id="path3005-9"
       inkscape:connector-curvature="0" />
    <path
       style="fill:none;stroke:#000000;stroke-width:0.6;stroke-linecap:butt;stroke-linejoin:miter;stroke-opacity:1;stroke-miterlimit:4;stroke-dasharray:none"
       d="m 350.01786,91.65965 0,260.71428"
       id="path3005-48"
       inkscape:connector-curvature="0" />
    <path
       style="fill:none;stroke:#000000;stroke-width:0.6;stroke-linecap:butt;stroke-linejoin:miter;stroke-opacity:1;stroke-miterlimit:4;stroke-dasharray:none"
       d="m 400.02041,92.164723 0,260.714277"
       id="path3005-8"
       inkscape:connector-curvature="0" />
    <path
       style="fill:none;stroke:#000000;stroke-width:1.2;stroke-linecap:butt;stroke-linejoin:miter;stroke-opacity:1;stroke-miterlimit:4;stroke-dasharray:none"
       d="m 50,259.39243 50,-21.71828"
       id="path3067"
       inkscape:connector-curvature="0" />
    <path
       style="fill:none;stroke:#000000;stroke-width:1.2;stroke-linecap:butt;stroke-linejoin:miter;stroke-opacity:1;stroke-miterlimit:4;stroke-dasharray:none"
       d="m 150,193.22744 -50,44.44671"
       id="path3069"
       inkscape:connector-curvature="0" />
    <path
       style="fill:none;stroke:#000000;stroke-width:1.2;stroke-linecap:butt;stroke-linejoin:miter;stroke-opacity:1;stroke-miterlimit:4;stroke-dasharray:4.8,4.8;stroke-dashoffset:0"
       d="M 200,235.65385 150,194.23759"
       id="path3071"
       inkscape:connector-curvature="0" />
    <path
       style="fill:none;stroke:#000000;stroke-width:1.2;stroke-linecap:butt;stroke-linejoin:miter;stroke-opacity:1;stroke-miterlimit:4;stroke-dasharray:none"
       d="m 250,210.40004 -50,23.73858"
       id="path3073"
       inkscape:connector-curvature="0"
       sodipodi:nodetypes="cc" />
    <path
       style="fill:none;stroke:#000000;stroke-width:1.2;stroke-linecap:butt;stroke-linejoin:miter;stroke-opacity:1;stroke-miterlimit:4;stroke-dasharray:none"
       d="m 300,194.74267 -50,15.15229"
       id="path3075"
       inkscape:connector-curvature="0" />
    <path
       style="fill:none;stroke:#000000;stroke-width:1;stroke-linecap:butt;stroke-linejoin:miter;stroke-miterlimit:4;stroke-opacity:1;stroke-dasharray:none"
       d="m 50.578348,658.69095 387.857142,0"
       id="path3003-2"
       inkscape:connector-curvature="0" />
    <path
       style="fill:none;stroke:#000000;stroke-width:1;stroke-linecap:butt;stroke-linejoin:miter;stroke-miterlimit:4;stroke-opacity:1;stroke-dasharray:none"
       d="m 50.578348,397.97666 0,260.71429"
       id="path3005-45"
       inkscape:connector-curvature="0" />
    <path
       style="fill:none;stroke:#000000;stroke-width:0.60000002;stroke-linecap:butt;stroke-linejoin:miter;stroke-miterlimit:4;stroke-opacity:1;stroke-dasharray:none"
       d="m 101.79772,397.91539 0,260.71428"
       id="path3005-1-5"
       inkscape:connector-curvature="0" />
    <path
       style="fill:none;stroke:#000000;stroke-width:0.60000002;stroke-linecap:butt;stroke-linejoin:miter;stroke-miterlimit:4;stroke-opacity:1;stroke-dasharray:none"
       d="m 150.34557,397.56515 0,260.71429"
       id="path3005-7-1"
       inkscape:connector-curvature="0" />
    <path
       style="fill:none;stroke:#000000;stroke-width:0.60000002;stroke-linecap:butt;stroke-linejoin:miter;stroke-miterlimit:4;stroke-opacity:1;stroke-dasharray:none"
       d="m 200.58855,397.98842 0,260.71428"
       id="path3005-4-7"
       inkscape:connector-curvature="0" />
    <path
       style="fill:none;stroke:#000000;stroke-width:0.60000002;stroke-linecap:butt;stroke-linejoin:miter;stroke-miterlimit:4;stroke-opacity:1;stroke-dasharray:none"
       d="m 250.59111,396.97826 0,260.71428"
       id="path3005-0-1"
       inkscape:connector-curvature="0" />
    <path
       style="fill:none;stroke:#000000;stroke-width:0.60000002;stroke-linecap:butt;stroke-linejoin:miter;stroke-miterlimit:4;stroke-opacity:1;stroke-dasharray:none"
       d="m 300.59366,397.48334 0,260.71428"
       id="path3005-9-1"
       inkscape:connector-curvature="0" />
    <path
       style="fill:none;stroke:#000000;stroke-width:0.60000002;stroke-linecap:butt;stroke-linejoin:miter;stroke-miterlimit:4;stroke-opacity:1;stroke-dasharray:none"
       d="m 350.59621,397.98842 0,260.71428"
       id="path3005-48-5"
       inkscape:connector-curvature="0" />
    <path
       style="fill:none;stroke:#000000;stroke-width:0.60000002;stroke-linecap:butt;stroke-linejoin:miter;stroke-miterlimit:4;stroke-opacity:1;stroke-dasharray:none"
       d="m 400.59876,398.49349 0,260.71428"
       id="path3005-8-2"
       inkscape:connector-curvature="0" />
    <path
       style="fill:none;stroke:#000000;stroke-width:1.20000005;stroke-linecap:butt;stroke-linejoin:miter;stroke-miterlimit:4;stroke-opacity:1;stroke-dasharray:none"
       d="m 150.57835,499.55621 -50,44.44671"
       id="path3069-6"
       inkscape:connector-curvature="0" />
    <path
       style="fill:none;stroke:#000000;stroke-width:1.20000005;stroke-linecap:butt;stroke-linejoin:miter;stroke-miterlimit:4;stroke-opacity:1;stroke-dasharray:4.8, 4.8;stroke-dashoffset:0"
       d="m 200.57835,541.98262 -50,-41.41626"
       id="path3071-1"
       inkscape:connector-curvature="0" />
    <path
       style="fill:none;stroke:#000000;stroke-width:1.20000005;stroke-linecap:butt;stroke-linejoin:miter;stroke-miterlimit:4;stroke-opacity:1;stroke-dasharray:none"
       d="m 250.57835,516.72881 -50,23.73858"
       id="path3073-4"
       inkscape:connector-curvature="0"
       sodipodi:nodetypes="cc" />
    <path
       style="fill:none;stroke:#000000;stroke-width:1.20000005;stroke-linecap:butt;stroke-linejoin:miter;stroke-miterlimit:4;stroke-opacity:1;stroke-dasharray:none"
       d="m 300.57835,501.07144 -50,15.15229"
       id="path3075-2"
       inkscape:connector-curvature="0" />
    <path
       style="fill:none;stroke:#000000;stroke-width:1.20000005;stroke-linecap:butt;stroke-linejoin:miter;stroke-miterlimit:4;stroke-opacity:1;stroke-dasharray:4.8, 4.8;stroke-dashoffset:0"
       d="m 350.57835,542.99277 -50,-41.92133"
       id="path3079-3"
       inkscape:connector-curvature="0" />
    <path
       style="fill:none;stroke:#000000;stroke-width:1;stroke-linecap:butt;stroke-linejoin:miter;stroke-miterlimit:4;stroke-opacity:1;stroke-dasharray:none"
       d="m 50.578344,965.77732 387.857136,0"
       id="path3003-21"
       inkscape:connector-curvature="0" />
    <path
       style="fill:none;stroke:#000000;stroke-width:1;stroke-linecap:butt;stroke-linejoin:miter;stroke-miterlimit:4;stroke-opacity:1;stroke-dasharray:none"
       d="m 50.578344,705.06303 0,260.71429"
       id="path3005-6"
       inkscape:connector-curvature="0" />
    <path
       style="fill:none;stroke:#000000;stroke-width:0.60000002;stroke-linecap:butt;stroke-linejoin:miter;stroke-miterlimit:4;stroke-opacity:1;stroke-dasharray:none"
       d="m 101.79771,705.00176 0,260.71428"
       id="path3005-1-8"
       inkscape:connector-curvature="0" />
    <path
       style="fill:none;stroke:#000000;stroke-width:0.60000002;stroke-linecap:butt;stroke-linejoin:miter;stroke-miterlimit:4;stroke-opacity:1;stroke-dasharray:none"
       d="m 150.34556,704.65152 0,260.71429"
       id="path3005-7-5"
       inkscape:connector-curvature="0" />
    <path
       style="fill:none;stroke:#000000;stroke-width:0.60000002;stroke-linecap:butt;stroke-linejoin:miter;stroke-miterlimit:4;stroke-opacity:1;stroke-dasharray:none"
       d="m 200.58854,705.07479 0,260.71428"
       id="path3005-4-76"
       inkscape:connector-curvature="0" />
    <path
       style="fill:none;stroke:#000000;stroke-width:0.60000002;stroke-linecap:butt;stroke-linejoin:miter;stroke-miterlimit:4;stroke-opacity:1;stroke-dasharray:none"
       d="m 250.5911,704.06463 0,260.71428"
       id="path3005-0-18"
       inkscape:connector-curvature="0" />
    <path
       style="fill:none;stroke:#000000;stroke-width:0.60000002;stroke-linecap:butt;stroke-linejoin:miter;stroke-miterlimit:4;stroke-opacity:1;stroke-dasharray:none"
       d="m 300.59365,704.56971 0,260.71428"
       id="path3005-9-9"
       inkscape:connector-curvature="0" />
    <path
       style="fill:none;stroke:#000000;stroke-width:0.60000002;stroke-linecap:butt;stroke-linejoin:miter;stroke-miterlimit:4;stroke-opacity:1;stroke-dasharray:none"
       d="m 350.5962,705.07479 0,260.71428"
       id="path3005-48-2"
       inkscape:connector-curvature="0" />
    <path
       style="fill:none;stroke:#000000;stroke-width:0.60000002;stroke-linecap:butt;stroke-linejoin:miter;stroke-miterlimit:4;stroke-opacity:1;stroke-dasharray:none"
       d="m 400.59875,705.57986 0,260.71428"
       id="path3005-8-7"
       inkscape:connector-curvature="0" />
    <path
       style="fill:none;stroke:#000000;stroke-width:1.20000005;stroke-linecap:butt;stroke-linejoin:miter;stroke-miterlimit:4;stroke-opacity:1;stroke-dasharray:4.8, 4.8;stroke-dashoffset:0"
       d="m 200.57834,849.06899 -50,-41.41626"
       id="path3071-4"
       inkscape:connector-curvature="0" />
    <path
       style="fill:none;stroke:#000000;stroke-width:1.20000005;stroke-linecap:butt;stroke-linejoin:miter;stroke-miterlimit:4;stroke-opacity:1;stroke-dasharray:none"
       d="m 250.57834,823.81518 -50,23.73858"
       id="path3073-3"
       inkscape:connector-curvature="0"
       sodipodi:nodetypes="cc" />
    <path
       style="fill:none;stroke:#000000;stroke-width:1.20000005;stroke-linecap:butt;stroke-linejoin:miter;stroke-miterlimit:4;stroke-opacity:1;stroke-dasharray:none"
       d="m 300.57834,808.15781 -50,15.15229"
       id="path3075-1"
       inkscape:connector-curvature="0" />
    <path
       style="fill:none;stroke:#000000;stroke-width:1.20000005;stroke-linecap:butt;stroke-linejoin:miter;stroke-miterlimit:4;stroke-opacity:1;stroke-dasharray:4.8, 4.8;stroke-dashoffset:0"
       d="m 350.57834,850.07914 -50,-41.92133"
       id="path3079-2"
       inkscape:connector-curvature="0" />
    <path
       style="fill:none;stroke:#000000;stroke-width:1.20000005;stroke-linecap:butt;stroke-linejoin:miter;stroke-miterlimit:4;stroke-opacity:1;stroke-dasharray:4.8, 4.8;stroke-dashoffset:0"
       d="m 400.57834,866.24158 -50,-16.16244"
       id="path3081-3"
       inkscape:connector-curvature="0" />
    <g
       id="equation_00"
       style="fill:#000000"
       title="$i-2$"
       transform="matrix(1.6248154,0,0,1.6248154,57.79568,263.88528)">
      <defs
         id="defs4025">
        <path
           d="m 6.59,-2.3 c 0.17,0 0.35,0 0.35,-0.2 0,-0.2 -0.18,-0.2 -0.35,-0.2 H 1.18 c -0.17,0 -0.35,0 -0.35,0.2 0,0.2 0.18,0.2 0.35,0.2 h 5.41 z"
           id="equation_00_00"
           inkscape:connector-curvature="0" />
        <path
           d="m 2.84,-6.25 c 0,-0.2 -0.14,-0.36 -0.37,-0.36 -0.27,0 -0.54,0.26 -0.54,0.53 0,0.19 0.14,0.36 0.38,0.36 0.23,0 0.53,-0.23 0.53,-0.53 z M 2.08,-2.49 C 2.2,-2.78 2.2,-2.8 2.3,-3.07 c 0.08,-0.2 0.13,-0.34 0.13,-0.53 0,-0.45 -0.32,-0.82 -0.82,-0.82 -0.94,0 -1.32,1.45 -1.32,1.54 0,0.1 0.1,0.1 0.12,0.1 0.1,0 0.11,-0.02 0.16,-0.18 0.27,-0.94 0.67,-1.24 1.01,-1.24 0.08,0 0.25,0 0.25,0.32 0,0.21 -0.07,0.42 -0.11,0.52 -0.08,0.26 -0.53,1.42 -0.69,1.85 -0.1,0.26 -0.23,0.59 -0.23,0.8 0,0.47 0.34,0.82 0.82,0.82 0.94,0 1.31,-1.45 1.31,-1.54 0,-0.1 -0.09,-0.1 -0.12,-0.1 -0.1,0 -0.1,0.03 -0.15,0.18 -0.18,0.63 -0.51,1.24 -1.02,1.24 -0.17,0 -0.24,-0.1 -0.24,-0.33 0,-0.25 0.06,-0.39 0.29,-1 l 0.39,-1.05 z"
           id="equation_00_01"
           inkscape:connector-curvature="0" />
        <path
           d="M 1.27,-0.77 2.33,-1.8 c 1.56,-1.38 2.16,-1.92 2.16,-2.92 0,-1.14 -0.9,-1.94 -2.12,-1.94 -1.13,0 -1.87,0.92 -1.87,1.81 0,0.56 0.5,0.56 0.53,0.56 0.17,0 0.52,-0.12 0.52,-0.53 0,-0.26 -0.18,-0.52 -0.53,-0.52 -0.08,0 -0.1,0 -0.13,0.01 0.23,-0.65 0.77,-1.02 1.35,-1.02 0.91,0 1.34,0.81 1.34,1.63 0,0.8 -0.5,1.59 -1.05,2.21 L 0.61,-0.37 C 0.5,-0.26 0.5,-0.24 0.5,0 H 4.21 L 4.49,-1.74 H 4.24 C 4.19,-1.44 4.12,-1 4.02,-0.85 3.95,-0.77 3.29,-0.77 3.07,-0.77 h -1.8 z"
           id="equation_00_02"
           inkscape:connector-curvature="0" />
      </defs>
      <g
         id="equation_00_g">
        <use
           x="77"
           xlink:href="#equation_00_01"
           y="63"
           id="use4031"
           width="744.09448"
           height="1052.3622" />
        <use
           x="82.667297"
           xlink:href="#equation_00_00"
           y="63"
           id="use4033"
           width="744.09448"
           height="1052.3622" />
        <use
           x="92.667297"
           xlink:href="#equation_00_02"
           y="63"
           id="use4035"
           width="744.09448"
           height="1052.3622" />
      </g>
    </g>
    <g
       title="$i-1$"
       style="fill:#000000"
       id="equation_01"
       transform="matrix(1.6248154,0,0,1.6248154,107.29315,262.87514)">
      <defs
         id="defs4148">
        <path
           id="equation_01_00"
           d="m 6.59,-2.3 c 0.17,0 0.35,0 0.35,-0.2 0,-0.2 -0.18,-0.2 -0.35,-0.2 H 1.18 c -0.17,0 -0.35,0 -0.35,0.2 0,0.2 0.18,0.2 0.35,0.2 h 5.41 z"
           inkscape:connector-curvature="0" />
        <path
           id="equation_01_01"
           d="m 2.84,-6.25 c 0,-0.2 -0.14,-0.36 -0.37,-0.36 -0.27,0 -0.54,0.26 -0.54,0.53 0,0.19 0.14,0.36 0.38,0.36 0.23,0 0.53,-0.23 0.53,-0.53 z M 2.08,-2.49 C 2.2,-2.78 2.2,-2.8 2.3,-3.07 c 0.08,-0.2 0.13,-0.34 0.13,-0.53 0,-0.45 -0.32,-0.82 -0.82,-0.82 -0.94,0 -1.32,1.45 -1.32,1.54 0,0.1 0.1,0.1 0.12,0.1 0.1,0 0.11,-0.02 0.16,-0.18 0.27,-0.94 0.67,-1.24 1.01,-1.24 0.08,0 0.25,0 0.25,0.32 0,0.21 -0.07,0.42 -0.11,0.52 -0.08,0.26 -0.53,1.42 -0.69,1.85 -0.1,0.26 -0.23,0.59 -0.23,0.8 0,0.47 0.34,0.82 0.82,0.82 0.94,0 1.31,-1.45 1.31,-1.54 0,-0.1 -0.09,-0.1 -0.12,-0.1 -0.1,0 -0.1,0.03 -0.15,0.18 -0.18,0.63 -0.51,1.24 -1.02,1.24 -0.17,0 -0.24,-0.1 -0.24,-0.33 0,-0.25 0.06,-0.39 0.29,-1 l 0.39,-1.05 z"
           inkscape:connector-curvature="0" />
        <path
           id="equation_01_02"
           d="m 2.94,-6.4 c 0,-0.24 0,-0.26 -0.23,-0.26 -0.62,0.64 -1.5,0.64 -1.82,0.64 v 0.31 c 0.2,0 0.79,0 1.31,-0.26 v 5.18 c 0,0.36 -0.03,0.48 -0.93,0.48 H 0.95 V 0 c 0.35,-0.03 1.22,-0.03 1.62,-0.03 0.4,0 1.27,0 1.62,0.03 V -0.31 H 3.87 c -0.9,0 -0.93,-0.11 -0.93,-0.48 V -6.4 z"
           inkscape:connector-curvature="0" />
      </defs>
      <g
         id="equation_01_g">
        <use
           id="use4154"
           y="63"
           xlink:href="#equation_01_01"
           x="77"
           width="744.09448"
           height="1052.3622" />
        <use
           id="use4156"
           y="63"
           xlink:href="#equation_01_00"
           x="82.667297"
           width="744.09448"
           height="1052.3622" />
        <use
           id="use4158"
           y="63"
           xlink:href="#equation_01_02"
           x="92.667297"
           width="744.09448"
           height="1052.3622" />
      </g>
    </g>
    <g
       title="$i$"
       style="fill:#000000"
       id="equation_03"
       transform="matrix(1.7891817,0,0,1.7891817,159.49158,253.02737)">
      <defs
         id="defs4441">
        <path
           id="equation_03_00"
           d="m 2.84,-6.25 c 0,-0.2 -0.14,-0.36 -0.37,-0.36 -0.27,0 -0.54,0.26 -0.54,0.53 0,0.19 0.14,0.36 0.38,0.36 0.23,0 0.53,-0.23 0.53,-0.53 z M 2.08,-2.49 C 2.2,-2.78 2.2,-2.8 2.3,-3.07 c 0.08,-0.2 0.13,-0.34 0.13,-0.53 0,-0.45 -0.32,-0.82 -0.82,-0.82 -0.94,0 -1.32,1.45 -1.32,1.54 0,0.1 0.1,0.1 0.12,0.1 0.1,0 0.11,-0.02 0.16,-0.18 0.27,-0.94 0.67,-1.24 1.01,-1.24 0.08,0 0.25,0 0.25,0.32 0,0.21 -0.07,0.42 -0.11,0.52 -0.08,0.26 -0.53,1.42 -0.69,1.85 -0.1,0.26 -0.23,0.59 -0.23,0.8 0,0.47 0.34,0.82 0.82,0.82 0.94,0 1.31,-1.45 1.31,-1.54 0,-0.1 -0.09,-0.1 -0.12,-0.1 -0.1,0 -0.1,0.03 -0.15,0.18 -0.18,0.63 -0.51,1.24 -1.02,1.24 -0.17,0 -0.24,-0.1 -0.24,-0.33 0,-0.25 0.06,-0.39 0.29,-1 l 0.39,-1.05 z"
           inkscape:connector-curvature="0" />
      </defs>
      <g
         id="equation_03_g">
        <use
           id="use4445"
           y="63"
           xlink:href="#equation_03_00"
           x="77"
           width="744.09448"
           height="1052.3622" />
      </g>
    </g>
    <g
       id="equation_04"
       style="fill:#000000"
       title="$i+1$"
       transform="matrix(1.4686248,0,0,1.4686248,220.12784,580.23891)">
      <defs
         id="defs4600">
        <path
           d="m 2.84,-6.25 c 0,-0.2 -0.14,-0.36 -0.37,-0.36 -0.27,0 -0.54,0.26 -0.54,0.53 0,0.19 0.14,0.36 0.38,0.36 0.23,0 0.53,-0.23 0.53,-0.53 z M 2.08,-2.49 C 2.2,-2.78 2.2,-2.8 2.3,-3.07 c 0.08,-0.2 0.13,-0.34 0.13,-0.53 0,-0.45 -0.32,-0.82 -0.82,-0.82 -0.94,0 -1.32,1.45 -1.32,1.54 0,0.1 0.1,0.1 0.12,0.1 0.1,0 0.11,-0.02 0.16,-0.18 0.27,-0.94 0.67,-1.24 1.01,-1.24 0.08,0 0.25,0 0.25,0.32 0,0.21 -0.07,0.42 -0.11,0.52 -0.08,0.26 -0.53,1.42 -0.69,1.85 -0.1,0.26 -0.23,0.59 -0.23,0.8 0,0.47 0.34,0.82 0.82,0.82 0.94,0 1.31,-1.45 1.31,-1.54 0,-0.1 -0.09,-0.1 -0.12,-0.1 -0.1,0 -0.1,0.03 -0.15,0.18 -0.18,0.63 -0.51,1.24 -1.02,1.24 -0.17,0 -0.24,-0.1 -0.24,-0.33 0,-0.25 0.06,-0.39 0.29,-1 l 0.39,-1.05 z"
           id="equation_04_00"
           inkscape:connector-curvature="0" />
        <path
           d="m 4.09,-2.3 h 2.79 c 0.14,0 0.33,0 0.33,-0.2 0,-0.2 -0.19,-0.2 -0.33,-0.2 H 4.09 v -2.8 c 0,-0.14 0,-0.33 -0.2,-0.33 -0.2,0 -0.2,0.19 -0.2,0.33 v 2.8 h -2.8 c -0.14,0 -0.33,0 -0.33,0.2 0,0.2 0.19,0.2 0.33,0.2 h 2.8 v 2.8 c 0,0.14 0,0.33 0.2,0.33 0.2,0 0.2,-0.19 0.2,-0.33 v -2.8 z"
           id="equation_04_01"
           inkscape:connector-curvature="0" />
        <path
           d="m 2.94,-6.4 c 0,-0.24 0,-0.26 -0.23,-0.26 -0.62,0.64 -1.5,0.64 -1.82,0.64 v 0.31 c 0.2,0 0.79,0 1.31,-0.26 v 5.18 c 0,0.36 -0.03,0.48 -0.93,0.48 H 0.95 V 0 c 0.35,-0.03 1.22,-0.03 1.62,-0.03 0.4,0 1.27,0 1.62,0.03 V -0.31 H 3.87 c -0.9,0 -0.93,-0.11 -0.93,-0.48 V -6.4 z"
           id="equation_04_02"
           inkscape:connector-curvature="0" />
      </defs>
      <g
         id="equation_04_g">
        <use
           x="77"
           xlink:href="#equation_04_00"
           y="63"
           id="use4606"
           width="744.09448"
           height="1052.3622" />
        <use
           x="82.667297"
           xlink:href="#equation_04_01"
           y="63"
           id="use4608"
           width="744.09448"
           height="1052.3622" />
        <use
           x="92.667297"
           xlink:href="#equation_04_02"
           y="63"
           id="use4610"
           width="744.09448"
           height="1052.3622" />
      </g>
    </g>
    <g
       title="$i+2$"
       style="fill:#000000"
       id="equation_05"
       transform="matrix(1.4686248,0,0,1.4686248,271.89815,886.31512)">
      <defs
         id="defs4783">
        <path
           id="equation_05_00"
           d="m 2.84,-6.25 c 0,-0.2 -0.14,-0.36 -0.37,-0.36 -0.27,0 -0.54,0.26 -0.54,0.53 0,0.19 0.14,0.36 0.38,0.36 0.23,0 0.53,-0.23 0.53,-0.53 z M 2.08,-2.49 C 2.2,-2.78 2.2,-2.8 2.3,-3.07 c 0.08,-0.2 0.13,-0.34 0.13,-0.53 0,-0.45 -0.32,-0.82 -0.82,-0.82 -0.94,0 -1.32,1.45 -1.32,1.54 0,0.1 0.1,0.1 0.12,0.1 0.1,0 0.11,-0.02 0.16,-0.18 0.27,-0.94 0.67,-1.24 1.01,-1.24 0.08,0 0.25,0 0.25,0.32 0,0.21 -0.07,0.42 -0.11,0.52 -0.08,0.26 -0.53,1.42 -0.69,1.85 -0.1,0.26 -0.23,0.59 -0.23,0.8 0,0.47 0.34,0.82 0.82,0.82 0.94,0 1.31,-1.45 1.31,-1.54 0,-0.1 -0.09,-0.1 -0.12,-0.1 -0.1,0 -0.1,0.03 -0.15,0.18 -0.18,0.63 -0.51,1.24 -1.02,1.24 -0.17,0 -0.24,-0.1 -0.24,-0.33 0,-0.25 0.06,-0.39 0.29,-1 l 0.39,-1.05 z"
           inkscape:connector-curvature="0" />
        <path
           id="equation_05_01"
           d="m 4.09,-2.3 h 2.79 c 0.14,0 0.33,0 0.33,-0.2 0,-0.2 -0.19,-0.2 -0.33,-0.2 H 4.09 v -2.8 c 0,-0.14 0,-0.33 -0.2,-0.33 -0.2,0 -0.2,0.19 -0.2,0.33 v 2.8 h -2.8 c -0.14,0 -0.33,0 -0.33,0.2 0,0.2 0.19,0.2 0.33,0.2 h 2.8 v 2.8 c 0,0.14 0,0.33 0.2,0.33 0.2,0 0.2,-0.19 0.2,-0.33 v -2.8 z"
           inkscape:connector-curvature="0" />
        <path
           id="equation_05_02"
           d="M 1.27,-0.77 2.33,-1.8 c 1.56,-1.38 2.16,-1.92 2.16,-2.92 0,-1.14 -0.9,-1.94 -2.12,-1.94 -1.13,0 -1.87,0.92 -1.87,1.81 0,0.56 0.5,0.56 0.53,0.56 0.17,0 0.52,-0.12 0.52,-0.53 0,-0.26 -0.18,-0.52 -0.53,-0.52 -0.08,0 -0.1,0 -0.13,0.01 0.23,-0.65 0.77,-1.02 1.35,-1.02 0.91,0 1.34,0.81 1.34,1.63 0,0.8 -0.5,1.59 -1.05,2.21 L 0.61,-0.37 C 0.5,-0.26 0.5,-0.24 0.5,0 H 4.21 L 4.49,-1.74 H 4.24 C 4.19,-1.44 4.12,-1 4.02,-0.85 3.95,-0.77 3.29,-0.77 3.07,-0.77 h -1.8 z"
           inkscape:connector-curvature="0" />
      </defs>
      <g
         id="equation_05_g">
        <use
           id="use4789"
           y="63"
           xlink:href="#equation_05_00"
           x="77"
           width="744.09448"
           height="1052.3622" />
        <use
           id="use4791"
           y="63"
           xlink:href="#equation_05_01"
           x="82.667297"
           width="744.09448"
           height="1052.3622" />
        <use
           id="use4793"
           y="63"
           xlink:href="#equation_05_02"
           x="92.667297"
           width="744.09448"
           height="1052.3622" />
      </g>
    </g>
    <g
       id="equation_06"
       style="fill:#000000"
       title="$p1=5$"
       transform="matrix(1.627907,0,0,1.627907,-22.194962,84.635696)">
      <defs
         id="defs4984">
        <path
           d="m 0.45,1.22 c -0.08,0.34 -0.1,0.41 -0.54,0.41 -0.12,0 -0.23,0 -0.23,0.19 0,0.08 0.05,0.12 0.13,0.12 0.27,0 0.56,-0.03 0.84,-0.03 0.33,0 0.67,0.03 0.99,0.03 0.05,0 0.18,0 0.18,-0.2 0,-0.11 -0.1,-0.11 -0.24,-0.11 -0.5,0 -0.5,-0.07 -0.5,-0.16 0,-0.12 0.42,-1.75 0.49,-2 0.13,0.29 0.41,0.64 0.92,0.64 1.16,0 2.41,-1.46 2.41,-2.93 0,-0.94 -0.57,-1.6 -1.33,-1.6 -0.5,0 -0.98,0.36 -1.31,0.75 -0.1,-0.54 -0.53,-0.75 -0.9,-0.75 -0.46,0 -0.65,0.39 -0.74,0.57 -0.18,0.34 -0.31,0.94 -0.31,0.97 0,0.1 0.1,0.1 0.12,0.1 0.1,0 0.11,-0.01 0.17,-0.23 0.17,-0.71 0.37,-1.19 0.73,-1.19 0.17,0 0.31,0.08 0.31,0.46 0,0.23 -0.03,0.34 -0.07,0.51 L 0.45,1.22 z m 1.76,-4.34 c 0.07,-0.27 0.34,-0.55 0.52,-0.7 0.35,-0.31 0.64,-0.38 0.81,-0.38 0.4,0 0.64,0.35 0.64,0.94 0,0.59 -0.33,1.74 -0.51,2.12 -0.34,0.7 -0.82,1.03 -1.19,1.03 -0.66,0 -0.79,-0.83 -0.79,-0.89 0,-0.02 0,-0.04 0.03,-0.16 l 0.49,-1.96 z"
           id="equation_06_00"
           inkscape:connector-curvature="0" />
        <path
           d="m 2.94,-6.4 c 0,-0.24 0,-0.26 -0.23,-0.26 -0.62,0.64 -1.5,0.64 -1.82,0.64 v 0.31 c 0.2,0 0.79,0 1.31,-0.26 v 5.18 c 0,0.36 -0.03,0.48 -0.93,0.48 H 0.95 V 0 c 0.35,-0.03 1.22,-0.03 1.62,-0.03 0.4,0 1.27,0 1.62,0.03 V -0.31 H 3.87 c -0.9,0 -0.93,-0.11 -0.93,-0.48 V -6.4 z"
           id="equation_06_01"
           inkscape:connector-curvature="0" />
        <path
           d="m 4.49,-2.01 c 0,-1.19 -0.82,-2.19 -1.9,-2.19 -0.48,0 -0.91,0.16 -1.27,0.51 v -1.95 c 0.2,0.06 0.53,0.13 0.85,0.13 1.23,0 1.93,-0.91 1.93,-1.04 0,-0.06 -0.03,-0.11 -0.1,-0.11 -0.01,0 -0.03,0 -0.08,0.03 -0.2,0.09 -0.69,0.29 -1.36,0.29 -0.4,0 -0.86,-0.07 -1.33,-0.28 -0.08,-0.03 -0.1,-0.03 -0.12,-0.03 -0.1,0 -0.1,0.08 -0.1,0.24 v 2.96 c 0,0.18 0,0.26 0.14,0.26 0.07,0 0.09,-0.03 0.13,-0.09 0.11,-0.16 0.48,-0.7 1.29,-0.7 0.52,0 0.77,0.46 0.85,0.64 0.16,0.37 0.18,0.76 0.18,1.26 0,0.35 0,0.95 -0.24,1.37 -0.24,0.39 -0.61,0.65 -1.07,0.65 -0.73,0 -1.3,-0.53 -1.47,-1.12 0.03,0.01 0.06,0.02 0.17,0.02 0.33,0 0.5,-0.25 0.5,-0.49 0,-0.24 -0.17,-0.49 -0.5,-0.49 -0.14,0 -0.49,0.07 -0.49,0.53 0,0.86 0.69,1.83 1.81,1.83 1.16,0 2.18,-0.96 2.18,-2.23 z"
           id="equation_06_02"
           inkscape:connector-curvature="0" />
        <path
           d="m 6.87,-3.27 c 0.15,0 0.34,0 0.34,-0.2 0,-0.2 -0.19,-0.2 -0.33,-0.2 H 0.89 c -0.14,0 -0.33,0 -0.33,0.2 0,0.2 0.19,0.2 0.34,0.2 h 5.97 z m 0.01,1.94 c 0.14,0 0.33,0 0.33,-0.2 0,-0.2 -0.19,-0.2 -0.34,-0.2 H 0.9 c -0.15,0 -0.34,0 -0.34,0.2 0,0.2 0.19,0.2 0.33,0.2 h 5.99 z"
           id="equation_06_03"
           inkscape:connector-curvature="0" />
      </defs>
      <g
         id="equation_06_g">
        <use
           x="77"
           xlink:href="#equation_06_00"
           y="63"
           id="use4991"
           width="744.09448"
           height="1052.3622" />
        <use
           x="82.031303"
           xlink:href="#equation_06_01"
           y="63"
           id="use4993"
           width="744.09448"
           height="1052.3622" />
        <use
           x="89.808998"
           xlink:href="#equation_06_03"
           y="63"
           id="use4995"
           width="744.09448"
           height="1052.3622" />
        <use
           x="100.365"
           xlink:href="#equation_06_02"
           y="63"
           id="use4997"
           width="744.09448"
           height="1052.3622" />
      </g>
    </g>
    <g
       title="$c = green$"
       style="fill:#000000"
       id="equation_07"
       transform="matrix(2.1638331,0,0,2.1638331,105.62196,109.29265)">
      <defs
         id="defs5210">
        <path
           id="equation_07_00"
           d="m 6.87,-3.27 c 0.15,0 0.34,0 0.34,-0.2 0,-0.2 -0.19,-0.2 -0.33,-0.2 H 0.89 c -0.14,0 -0.33,0 -0.33,0.2 0,0.2 0.19,0.2 0.34,0.2 h 5.97 z m 0.01,1.94 c 0.14,0 0.33,0 0.33,-0.2 0,-0.2 -0.19,-0.2 -0.34,-0.2 H 0.9 c -0.15,0 -0.34,0 -0.34,0.2 0,0.2 0.19,0.2 0.33,0.2 h 5.99 z"
           inkscape:connector-curvature="0" />
        <path
           id="equation_07_01"
           d="m 3.96,-3.8 c -0.16,0 -0.3,0 -0.44,0.14 -0.16,0.15 -0.18,0.32 -0.18,0.39 0,0.24 0.18,0.35 0.37,0.35 0.29,0 0.56,-0.24 0.56,-0.64 0,-0.49 -0.47,-0.86 -1.18,-0.86 -1.35,0 -2.68,1.43 -2.68,2.84 0,0.9 0.58,1.69 1.62,1.69 1.43,0 2.27,-1.06 2.27,-1.18 0,-0.06 -0.06,-0.13 -0.12,-0.13 -0.05,0 -0.07,0.02 -0.13,0.1 -0.79,0.99 -1.88,0.99 -2,0.99 -0.63,0 -0.9,-0.49 -0.9,-1.09 0,-0.41 0.2,-1.38 0.54,-2 0.31,-0.57 0.86,-1 1.41,-1 0.34,0 0.72,0.13 0.86,0.4 z"
           inkscape:connector-curvature="0" />
        <path
           id="equation_07_02"
           d="m 1.87,-2.31 c 0.29,0 1.03,-0.02 1.53,-0.23 0.7,-0.3 0.75,-0.89 0.75,-1.03 0,-0.44 -0.38,-0.85 -1.07,-0.85 -1.11,0 -2.62,0.97 -2.62,2.72 0,1.02 0.59,1.81 1.57,1.81 1.43,0 2.27,-1.06 2.27,-1.18 0,-0.06 -0.06,-0.13 -0.12,-0.13 -0.05,0 -0.07,0.02 -0.13,0.1 -0.79,0.99 -1.88,0.99 -2,0.99 -0.78,0 -0.87,-0.84 -0.87,-1.16 0,-0.12 0.01,-0.43 0.16,-1.04 H 1.87 z M 1.4,-2.53 c 0.39,-1.52 1.42,-1.67 1.68,-1.67 0.47,0 0.74,0.29 0.74,0.63 0,1.04 -1.6,1.04 -2.01,1.04 H 1.4 z"
           inkscape:connector-curvature="0" />
        <path
           id="equation_07_03"
           d="m 4.71,-3.77 c 0.01,-0.06 0.03,-0.11 0.03,-0.18 0,-0.17 -0.12,-0.27 -0.29,-0.27 -0.1,0 -0.37,0.07 -0.41,0.43 -0.18,-0.37 -0.53,-0.63 -0.93,-0.63 -1.14,0 -2.38,1.4 -2.38,2.84 0,0.99 0.61,1.58 1.33,1.58 0.59,0 1.06,-0.47 1.16,-0.58 l 0.01,0.01 C 3.02,0.32 2.9,0.73 2.9,0.75 2.86,0.84 2.52,1.83 1.46,1.83 1.27,1.83 0.94,1.82 0.66,1.73 0.96,1.64 1.07,1.38 1.07,1.21 1.07,1.05 0.96,0.86 0.69,0.86 c -0.22,0 -0.54,0.18 -0.54,0.58 0,0.41 0.37,0.61 1.33,0.61 1.25,0 1.97,-0.78 2.12,-1.38 l 1.11,-4.44 z m -1.3,2.49 C 3.35,-1.02 3.12,-0.77 2.9,-0.58 2.69,-0.4 2.38,-0.22 2.09,-0.22 1.59,-0.22 1.44,-0.74 1.44,-1.14 1.44,-1.62 1.73,-2.8 2,-3.31 2.27,-3.8 2.7,-4.2 3.12,-4.2 c 0.66,0 0.8,0.81 0.8,0.86 0,0.05 -0.02,0.11 -0.03,0.15 l -0.48,1.91 z"
           inkscape:connector-curvature="0" />
        <path
           id="equation_07_04"
           d="m 0.88,-0.59 c -0.03,0.15 -0.09,0.38 -0.09,0.43 0,0.18 0.14,0.27 0.29,0.27 0.12,0 0.3,-0.08 0.37,-0.28 0.01,-0.02 0.13,-0.49 0.19,-0.74 l 0.22,-0.9 c 0.06,-0.22 0.12,-0.44 0.17,-0.67 0.04,-0.17 0.12,-0.46 0.13,-0.5 0.15,-0.31 0.68,-1.22 1.63,-1.22 0.45,0 0.54,0.37 0.54,0.7 0,0.62 -0.49,1.9 -0.65,2.33 -0.09,0.23 -0.1,0.35 -0.1,0.46 0,0.47 0.35,0.82 0.82,0.82 0.94,0 1.31,-1.46 1.31,-1.54 0,-0.1 -0.09,-0.1 -0.12,-0.1 -0.1,0 -0.1,0.03 -0.15,0.18 -0.2,0.68 -0.53,1.24 -1.02,1.24 -0.17,0 -0.24,-0.1 -0.24,-0.33 0,-0.25 0.09,-0.49 0.18,-0.71 0.19,-0.53 0.61,-1.63 0.61,-2.2 0,-0.67 -0.43,-1.07 -1.15,-1.07 -0.9,0 -1.39,0.64 -1.56,0.87 -0.05,-0.56 -0.46,-0.87 -0.92,-0.87 -0.46,0 -0.65,0.39 -0.75,0.57 -0.16,0.34 -0.3,0.93 -0.3,0.97 0,0.1 0.1,0.1 0.12,0.1 0.1,0 0.11,-0.01 0.17,-0.23 0.17,-0.71 0.37,-1.19 0.73,-1.19 0.2,0 0.31,0.13 0.31,0.46 0,0.21 -0.03,0.32 -0.16,0.84 l -0.58,2.31 z"
           inkscape:connector-curvature="0" />
        <path
           id="equation_07_05"
           d="m 0.88,-0.59 c -0.03,0.15 -0.09,0.38 -0.09,0.43 0,0.18 0.14,0.27 0.29,0.27 0.12,0 0.3,-0.08 0.37,-0.28 0.02,-0.04 0.36,-1.4 0.4,-1.58 0.08,-0.33 0.26,-1.03 0.32,-1.3 0.04,-0.13 0.32,-0.6 0.56,-0.82 0.08,-0.07 0.37,-0.33 0.8,-0.33 0.26,0 0.41,0.12 0.42,0.12 -0.3,0.05 -0.52,0.29 -0.52,0.55 0,0.16 0.11,0.35 0.38,0.35 0.27,0 0.55,-0.23 0.55,-0.59 0,-0.35 -0.32,-0.65 -0.83,-0.65 -0.65,0 -1.09,0.49 -1.28,0.77 -0.08,-0.45 -0.44,-0.77 -0.91,-0.77 -0.46,0 -0.65,0.39 -0.74,0.57 -0.18,0.34 -0.31,0.94 -0.31,0.97 0,0.1 0.1,0.1 0.12,0.1 0.1,0 0.11,-0.01 0.17,-0.23 0.17,-0.71 0.37,-1.19 0.73,-1.19 0.17,0 0.31,0.08 0.31,0.46 0,0.21 -0.03,0.32 -0.16,0.84 l -0.58,2.31 z"
           inkscape:connector-curvature="0" />
      </defs>
      <g
         id="equation_07_g">
        <use
           id="use5219"
           y="63"
           xlink:href="#equation_07_01"
           x="77"
           width="744.09448"
           height="1052.3622" />
        <use
           id="use5221"
           y="63"
           xlink:href="#equation_07_00"
           x="84.105301"
           width="744.09448"
           height="1052.3622" />
        <use
           id="use5223"
           y="63"
           xlink:href="#equation_07_03"
           x="94.660797"
           width="744.09448"
           height="1052.3622" />
        <use
           id="use5225"
           y="63"
           xlink:href="#equation_07_05"
           x="99.789299"
           width="744.09448"
           height="1052.3622" />
        <use
           id="use5227"
           y="63"
           xlink:href="#equation_07_02"
           x="104.579"
           width="744.09448"
           height="1052.3622" />
        <use
           id="use5229"
           y="63"
           xlink:href="#equation_07_02"
           x="109.235"
           width="744.09448"
           height="1052.3622" />
        <use
           id="use5231"
           y="63"
           xlink:href="#equation_07_04"
           x="113.891"
           width="744.09448"
           height="1052.3622" />
      </g>
    </g>
    <g
       id="equation_08"
       style="fill:#000000"
       title="$c = red$"
       transform="matrix(1.9858156,0,0,1.9858156,122.25945,746.35659)">
      <defs
         id="defs5476">
        <path
           d="m 3.96,-3.8 c -0.16,0 -0.3,0 -0.44,0.14 -0.16,0.15 -0.18,0.32 -0.18,0.39 0,0.24 0.18,0.35 0.37,0.35 0.29,0 0.56,-0.24 0.56,-0.64 0,-0.49 -0.47,-0.86 -1.18,-0.86 -1.35,0 -2.68,1.43 -2.68,2.84 0,0.9 0.58,1.69 1.62,1.69 1.43,0 2.27,-1.06 2.27,-1.18 0,-0.06 -0.06,-0.13 -0.12,-0.13 -0.05,0 -0.07,0.02 -0.13,0.1 -0.79,0.99 -1.88,0.99 -2,0.99 -0.63,0 -0.9,-0.49 -0.9,-1.09 0,-0.41 0.2,-1.38 0.54,-2 0.31,-0.57 0.86,-1 1.41,-1 0.34,0 0.72,0.13 0.86,0.4 z"
           id="equation_08_00"
           inkscape:connector-curvature="0" />
        <path
           d="m 5.16,-6.83 c 0,-0.01 0,-0.11 -0.13,-0.11 -0.15,0 -1.1,0.09 -1.27,0.11 -0.08,0.01 -0.14,0.06 -0.14,0.19 0,0.12 0.09,0.12 0.24,0.12 0.48,0 0.5,0.07 0.5,0.17 l -0.03,0.2 -0.6,2.37 C 3.55,-4.15 3.26,-4.42 2.81,-4.42 c -1.17,0 -2.41,1.47 -2.41,2.93 0,0.94 0.55,1.6 1.33,1.6 0.2,0 0.7,-0.04 1.3,-0.75 0.08,0.42 0.43,0.75 0.91,0.75 0.35,0 0.58,-0.23 0.74,-0.55 0.17,-0.36 0.3,-0.97 0.3,-0.99 0,-0.1 -0.09,-0.1 -0.12,-0.1 -0.1,0 -0.11,0.04 -0.14,0.18 -0.17,0.65 -0.35,1.24 -0.76,1.24 -0.27,0 -0.3,-0.26 -0.3,-0.46 0,-0.24 0.02,-0.31 0.06,-0.48 l 1.44,-5.78 z m -2.08,5.64 c -0.05,0.18 -0.05,0.2 -0.2,0.37 -0.44,0.55 -0.85,0.71 -1.13,0.71 -0.5,0 -0.64,-0.55 -0.64,-0.94 0,-0.5 0.32,-1.73 0.55,-2.19 0.31,-0.59 0.76,-0.96 1.16,-0.96 0.65,0 0.79,0.82 0.79,0.88 0,0.06 -0.02,0.12 -0.03,0.17 l -0.5,1.96 z"
           id="equation_08_01"
           inkscape:connector-curvature="0" />
        <path
           d="m 1.87,-2.31 c 0.29,0 1.03,-0.02 1.53,-0.23 0.7,-0.3 0.75,-0.89 0.75,-1.03 0,-0.44 -0.38,-0.85 -1.07,-0.85 -1.11,0 -2.62,0.97 -2.62,2.72 0,1.02 0.59,1.81 1.57,1.81 1.43,0 2.27,-1.06 2.27,-1.18 0,-0.06 -0.06,-0.13 -0.12,-0.13 -0.05,0 -0.07,0.02 -0.13,0.1 -0.79,0.99 -1.88,0.99 -2,0.99 -0.78,0 -0.87,-0.84 -0.87,-1.16 0,-0.12 0.01,-0.43 0.16,-1.04 H 1.87 z M 1.4,-2.53 c 0.39,-1.52 1.42,-1.67 1.68,-1.67 0.47,0 0.74,0.29 0.74,0.63 0,1.04 -1.6,1.04 -2.01,1.04 H 1.4 z"
           id="equation_08_02"
           inkscape:connector-curvature="0" />
        <path
           d="m 0.88,-0.59 c -0.03,0.15 -0.09,0.38 -0.09,0.43 0,0.18 0.14,0.27 0.29,0.27 0.12,0 0.3,-0.08 0.37,-0.28 0.02,-0.04 0.36,-1.4 0.4,-1.58 0.08,-0.33 0.26,-1.03 0.32,-1.3 0.04,-0.13 0.32,-0.6 0.56,-0.82 0.08,-0.07 0.37,-0.33 0.8,-0.33 0.26,0 0.41,0.12 0.42,0.12 -0.3,0.05 -0.52,0.29 -0.52,0.55 0,0.16 0.11,0.35 0.38,0.35 0.27,0 0.55,-0.23 0.55,-0.59 0,-0.35 -0.32,-0.65 -0.83,-0.65 -0.65,0 -1.09,0.49 -1.28,0.77 -0.08,-0.45 -0.44,-0.77 -0.91,-0.77 -0.46,0 -0.65,0.39 -0.74,0.57 -0.18,0.34 -0.31,0.94 -0.31,0.97 0,0.1 0.1,0.1 0.12,0.1 0.1,0 0.11,-0.01 0.17,-0.23 0.17,-0.71 0.37,-1.19 0.73,-1.19 0.17,0 0.31,0.08 0.31,0.46 0,0.21 -0.03,0.32 -0.16,0.84 l -0.58,2.31 z"
           id="equation_08_03"
           inkscape:connector-curvature="0" />
        <path
           d="m 6.87,-3.27 c 0.15,0 0.34,0 0.34,-0.2 0,-0.2 -0.19,-0.2 -0.33,-0.2 H 0.89 c -0.14,0 -0.33,0 -0.33,0.2 0,0.2 0.19,0.2 0.34,0.2 h 5.97 z m 0.01,1.94 c 0.14,0 0.33,0 0.33,-0.2 0,-0.2 -0.19,-0.2 -0.34,-0.2 H 0.9 c -0.15,0 -0.34,0 -0.34,0.2 0,0.2 0.19,0.2 0.33,0.2 h 5.99 z"
           id="equation_08_04"
           inkscape:connector-curvature="0" />
      </defs>
      <g
         id="equation_08_g">
        <use
           x="77"
           xlink:href="#equation_08_00"
           y="63"
           id="use5484"
           width="744.09448"
           height="1052.3622" />
        <use
           x="84.105301"
           xlink:href="#equation_08_04"
           y="63"
           id="use5486"
           width="744.09448"
           height="1052.3622" />
        <use
           x="94.660797"
           xlink:href="#equation_08_03"
           y="63"
           id="use5488"
           width="744.09448"
           height="1052.3622" />
        <use
           x="99.450203"
           xlink:href="#equation_08_02"
           y="63"
           id="use5490"
           width="744.09448"
           height="1052.3622" />
        <use
           x="104.106"
           xlink:href="#equation_08_01"
           y="63"
           id="use5492"
           width="744.09448"
           height="1052.3622" />
      </g>
    </g>
    <g
       title="$c = white$"
       style="fill:#000000"
       id="equation_09"
       transform="matrix(1.9858156,0,0,1.9858156,122.97373,444.92802)">
      <defs
         id="defs5763">
        <path
           id="equation_09_00"
           d="m 3.96,-3.8 c -0.16,0 -0.3,0 -0.44,0.14 -0.16,0.15 -0.18,0.32 -0.18,0.39 0,0.24 0.18,0.35 0.37,0.35 0.29,0 0.56,-0.24 0.56,-0.64 0,-0.49 -0.47,-0.86 -1.18,-0.86 -1.35,0 -2.68,1.43 -2.68,2.84 0,0.9 0.58,1.69 1.62,1.69 1.43,0 2.27,-1.06 2.27,-1.18 0,-0.06 -0.06,-0.13 -0.12,-0.13 -0.05,0 -0.07,0.02 -0.13,0.1 -0.79,0.99 -1.88,0.99 -2,0.99 -0.63,0 -0.9,-0.49 -0.9,-1.09 0,-0.41 0.2,-1.38 0.54,-2 0.31,-0.57 0.86,-1 1.41,-1 0.34,0 0.72,0.13 0.86,0.4 z"
           inkscape:connector-curvature="0" />
        <path
           id="equation_09_01"
           d="m 1.87,-2.31 c 0.29,0 1.03,-0.02 1.53,-0.23 0.7,-0.3 0.75,-0.89 0.75,-1.03 0,-0.44 -0.38,-0.85 -1.07,-0.85 -1.11,0 -2.62,0.97 -2.62,2.72 0,1.02 0.59,1.81 1.57,1.81 1.43,0 2.27,-1.06 2.27,-1.18 0,-0.06 -0.06,-0.13 -0.12,-0.13 -0.05,0 -0.07,0.02 -0.13,0.1 -0.79,0.99 -1.88,0.99 -2,0.99 -0.78,0 -0.87,-0.84 -0.87,-1.16 0,-0.12 0.01,-0.43 0.16,-1.04 H 1.87 z M 1.4,-2.53 c 0.39,-1.52 1.42,-1.67 1.68,-1.67 0.47,0 0.74,0.29 0.74,0.63 0,1.04 -1.6,1.04 -2.01,1.04 H 1.4 z"
           inkscape:connector-curvature="0" />
        <path
           id="equation_09_02"
           d="m 2.87,-6.83 c 0,-0.01 0,-0.11 -0.13,-0.11 -0.23,0 -0.96,0.08 -1.22,0.1 -0.08,0.01 -0.19,0.02 -0.19,0.2 0,0.12 0.09,0.12 0.24,0.12 0.48,0 0.5,0.07 0.5,0.17 l -0.03,0.2 -1.45,5.76 c -0.04,0.14 -0.04,0.16 -0.04,0.22 0,0.23 0.2,0.28 0.29,0.28 0.16,0 0.32,-0.12 0.37,-0.26 L 1.4,-0.91 1.62,-1.81 C 1.68,-2.03 1.74,-2.25 1.79,-2.48 1.81,-2.54 1.89,-2.87 1.9,-2.93 1.93,-3.02 2.24,-3.58 2.58,-3.85 2.8,-4.01 3.11,-4.2 3.54,-4.2 c 0.43,0 0.54,0.34 0.54,0.7 0,0.54 -0.38,1.63 -0.62,2.24 -0.08,0.23 -0.13,0.35 -0.13,0.55 0,0.47 0.35,0.82 0.82,0.82 0.94,0 1.31,-1.46 1.31,-1.54 0,-0.1 -0.09,-0.1 -0.12,-0.1 -0.1,0 -0.1,0.03 -0.15,0.18 -0.15,0.53 -0.47,1.24 -1.02,1.24 -0.17,0 -0.24,-0.1 -0.24,-0.33 0,-0.25 0.09,-0.49 0.18,-0.71 0.16,-0.43 0.61,-1.62 0.61,-2.2 0,-0.65 -0.4,-1.07 -1.15,-1.07 -0.63,0 -1.11,0.31 -1.48,0.77 l 0.78,-3.18 z"
           inkscape:connector-curvature="0" />
        <path
           id="equation_09_03"
           d="m 2.84,-6.25 c 0,-0.2 -0.14,-0.36 -0.37,-0.36 -0.27,0 -0.54,0.26 -0.54,0.53 0,0.19 0.14,0.36 0.38,0.36 0.23,0 0.53,-0.23 0.53,-0.53 z M 2.08,-2.49 C 2.2,-2.78 2.2,-2.8 2.3,-3.07 c 0.08,-0.2 0.13,-0.34 0.13,-0.53 0,-0.45 -0.32,-0.82 -0.82,-0.82 -0.94,0 -1.32,1.45 -1.32,1.54 0,0.1 0.1,0.1 0.12,0.1 0.1,0 0.11,-0.02 0.16,-0.18 0.27,-0.94 0.67,-1.24 1.01,-1.24 0.08,0 0.25,0 0.25,0.32 0,0.21 -0.07,0.42 -0.11,0.52 -0.08,0.26 -0.53,1.42 -0.69,1.85 -0.1,0.26 -0.23,0.59 -0.23,0.8 0,0.47 0.34,0.82 0.82,0.82 0.94,0 1.31,-1.45 1.31,-1.54 0,-0.1 -0.09,-0.1 -0.12,-0.1 -0.1,0 -0.1,0.03 -0.15,0.18 -0.18,0.63 -0.51,1.24 -1.02,1.24 -0.17,0 -0.24,-0.1 -0.24,-0.33 0,-0.25 0.06,-0.39 0.29,-1 l 0.39,-1.05 z"
           inkscape:connector-curvature="0" />
        <path
           id="equation_09_04"
           d="M 2.06,-4 H 3 c 0.2,0 0.3,0 0.3,-0.2 0,-0.11 -0.1,-0.11 -0.28,-0.11 H 2.14 c 0.36,-1.42 0.41,-1.62 0.41,-1.68 0,-0.17 -0.12,-0.27 -0.29,-0.27 -0.03,0 -0.31,0.01 -0.4,0.36 L 1.47,-4.31 H 0.53 c -0.2,0 -0.3,0 -0.3,0.19 C 0.23,-4 0.31,-4 0.51,-4 h 0.88 c -0.72,2.84 -0.76,3.01 -0.76,3.19 0,0.54 0.38,0.92 0.92,0.92 1.02,0 1.59,-1.46 1.59,-1.54 0,-0.1 -0.08,-0.1 -0.12,-0.1 -0.09,0 -0.1,0.03 -0.15,0.14 -0.43,1.04 -0.96,1.28 -1.3,1.28 -0.21,0 -0.31,-0.13 -0.31,-0.46 0,-0.24 0.02,-0.31 0.06,-0.48 L 2.06,-4 z"
           inkscape:connector-curvature="0" />
        <path
           id="equation_09_05"
           d="m 4.62,-3.39 c 0.05,-0.22 0.15,-0.59 0.15,-0.65 0,-0.18 -0.14,-0.27 -0.29,-0.27 -0.12,0 -0.3,0.08 -0.37,0.28 -0.03,0.07 -0.5,1.98 -0.57,2.24 -0.07,0.3 -0.09,0.48 -0.09,0.66 0,0.11 0,0.13 0.01,0.18 -0.23,0.53 -0.53,0.84 -0.92,0.84 -0.8,0 -0.8,-0.74 -0.8,-0.91 0,-0.32 0.05,-0.71 0.52,-1.94 0.11,-0.3 0.17,-0.44 0.17,-0.64 0,-0.45 -0.33,-0.82 -0.82,-0.82 -0.95,0 -1.32,1.45 -1.32,1.54 0,0.1 0.1,0.1 0.12,0.1 0.1,0 0.11,-0.02 0.16,-0.18 0.27,-0.93 0.66,-1.24 1.01,-1.24 0.09,0 0.25,0.01 0.25,0.33 0,0.25 -0.11,0.53 -0.18,0.7 -0.44,1.18 -0.56,1.64 -0.56,2.02 0,0.91 0.67,1.26 1.42,1.26 0.17,0 0.64,0 1.04,-0.7 0.26,0.64 0.95,0.7 1.25,0.7 0.75,0 1.19,-0.63 1.45,-1.23 0.34,-0.78 0.66,-2.12 0.66,-2.6 0,-0.55 -0.27,-0.7 -0.44,-0.7 -0.25,0 -0.5,0.26 -0.5,0.48 0,0.13 0.06,0.19 0.15,0.27 0.11,0.11 0.36,0.37 0.36,0.85 0,0.34 -0.29,1.32 -0.55,1.83 -0.26,0.53 -0.61,0.88 -1.1,0.88 -0.47,0 -0.74,-0.3 -0.74,-0.87 0,-0.28 0.07,-0.59 0.11,-0.73 l 0.42,-1.68 z"
           inkscape:connector-curvature="0" />
        <path
           id="equation_09_06"
           d="m 6.87,-3.27 c 0.15,0 0.34,0 0.34,-0.2 0,-0.2 -0.19,-0.2 -0.33,-0.2 H 0.89 c -0.14,0 -0.33,0 -0.33,0.2 0,0.2 0.19,0.2 0.34,0.2 h 5.97 z m 0.01,1.94 c 0.14,0 0.33,0 0.33,-0.2 0,-0.2 -0.19,-0.2 -0.34,-0.2 H 0.9 c -0.15,0 -0.34,0 -0.34,0.2 0,0.2 0.19,0.2 0.33,0.2 h 5.99 z"
           inkscape:connector-curvature="0" />
      </defs>
      <g
         id="equation_09_g">
        <use
           id="use5773"
           y="63"
           xlink:href="#equation_09_00"
           x="77"
           width="744.09448"
           height="1052.3622" />
        <use
           id="use5775"
           y="63"
           xlink:href="#equation_09_06"
           x="84.105301"
           width="744.09448"
           height="1052.3622" />
        <use
           id="use5777"
           y="63"
           xlink:href="#equation_09_05"
           x="94.660797"
           width="744.09448"
           height="1052.3622" />
        <use
           id="use5779"
           y="63"
           xlink:href="#equation_09_02"
           x="102.089"
           width="744.09448"
           height="1052.3622" />
        <use
           id="use5781"
           y="63"
           xlink:href="#equation_09_03"
           x="107.851"
           width="744.09448"
           height="1052.3622" />
        <use
           id="use5783"
           y="63"
           xlink:href="#equation_09_04"
           x="111.296"
           width="744.09448"
           height="1052.3622" />
        <use
           id="use5785"
           y="63"
           xlink:href="#equation_09_01"
           x="114.907"
           width="744.09448"
           height="1052.3622" />
      </g>
    </g>
    <g
       id="equation_06-3"
       style="fill:#000000"
       title="$p1=5$"
       transform="matrix(1.627907,0,0,1.627907,-23.512284,385.94017)">
      <defs
         id="defs4984-4">
        <path
           d="m 0.45,1.22 c -0.08,0.34 -0.1,0.41 -0.54,0.41 -0.12,0 -0.23,0 -0.23,0.19 0,0.08 0.05,0.12 0.13,0.12 0.27,0 0.56,-0.03 0.84,-0.03 0.33,0 0.67,0.03 0.99,0.03 0.05,0 0.18,0 0.18,-0.2 0,-0.11 -0.1,-0.11 -0.24,-0.11 -0.5,0 -0.5,-0.07 -0.5,-0.16 0,-0.12 0.42,-1.75 0.49,-2 0.13,0.29 0.41,0.64 0.92,0.64 1.16,0 2.41,-1.46 2.41,-2.93 0,-0.94 -0.57,-1.6 -1.33,-1.6 -0.5,0 -0.98,0.36 -1.31,0.75 -0.1,-0.54 -0.53,-0.75 -0.9,-0.75 -0.46,0 -0.65,0.39 -0.74,0.57 -0.18,0.34 -0.31,0.94 -0.31,0.97 0,0.1 0.1,0.1 0.12,0.1 0.1,0 0.11,-0.01 0.17,-0.23 0.17,-0.71 0.37,-1.19 0.73,-1.19 0.17,0 0.31,0.08 0.31,0.46 0,0.23 -0.03,0.34 -0.07,0.51 L 0.45,1.22 z m 1.76,-4.34 c 0.07,-0.27 0.34,-0.55 0.52,-0.7 0.35,-0.31 0.64,-0.38 0.81,-0.38 0.4,0 0.64,0.35 0.64,0.94 0,0.59 -0.33,1.74 -0.51,2.12 -0.34,0.7 -0.82,1.03 -1.19,1.03 -0.66,0 -0.79,-0.83 -0.79,-0.89 0,-0.02 0,-0.04 0.03,-0.16 l 0.49,-1.96 z"
           id="equation_06_00-1"
           inkscape:connector-curvature="0" />
        <path
           d="m 2.94,-6.4 c 0,-0.24 0,-0.26 -0.23,-0.26 -0.62,0.64 -1.5,0.64 -1.82,0.64 v 0.31 c 0.2,0 0.79,0 1.31,-0.26 v 5.18 c 0,0.36 -0.03,0.48 -0.93,0.48 H 0.95 V 0 c 0.35,-0.03 1.22,-0.03 1.62,-0.03 0.4,0 1.27,0 1.62,0.03 V -0.31 H 3.87 c -0.9,0 -0.93,-0.11 -0.93,-0.48 V -6.4 z"
           id="equation_06_01-1"
           inkscape:connector-curvature="0" />
        <path
           d="m 4.49,-2.01 c 0,-1.19 -0.82,-2.19 -1.9,-2.19 -0.48,0 -0.91,0.16 -1.27,0.51 v -1.95 c 0.2,0.06 0.53,0.13 0.85,0.13 1.23,0 1.93,-0.91 1.93,-1.04 0,-0.06 -0.03,-0.11 -0.1,-0.11 -0.01,0 -0.03,0 -0.08,0.03 -0.2,0.09 -0.69,0.29 -1.36,0.29 -0.4,0 -0.86,-0.07 -1.33,-0.28 -0.08,-0.03 -0.1,-0.03 -0.12,-0.03 -0.1,0 -0.1,0.08 -0.1,0.24 v 2.96 c 0,0.18 0,0.26 0.14,0.26 0.07,0 0.09,-0.03 0.13,-0.09 0.11,-0.16 0.48,-0.7 1.29,-0.7 0.52,0 0.77,0.46 0.85,0.64 0.16,0.37 0.18,0.76 0.18,1.26 0,0.35 0,0.95 -0.24,1.37 -0.24,0.39 -0.61,0.65 -1.07,0.65 -0.73,0 -1.3,-0.53 -1.47,-1.12 0.03,0.01 0.06,0.02 0.17,0.02 0.33,0 0.5,-0.25 0.5,-0.49 0,-0.24 -0.17,-0.49 -0.5,-0.49 -0.14,0 -0.49,0.07 -0.49,0.53 0,0.86 0.69,1.83 1.81,1.83 1.16,0 2.18,-0.96 2.18,-2.23 z"
           id="equation_06_02-3"
           inkscape:connector-curvature="0" />
        <path
           d="m 6.87,-3.27 c 0.15,0 0.34,0 0.34,-0.2 0,-0.2 -0.19,-0.2 -0.33,-0.2 H 0.89 c -0.14,0 -0.33,0 -0.33,0.2 0,0.2 0.19,0.2 0.34,0.2 h 5.97 z m 0.01,1.94 c 0.14,0 0.33,0 0.33,-0.2 0,-0.2 -0.19,-0.2 -0.34,-0.2 H 0.9 c -0.15,0 -0.34,0 -0.34,0.2 0,0.2 0.19,0.2 0.33,0.2 h 5.99 z"
           id="equation_06_03-8"
           inkscape:connector-curvature="0" />
      </defs>
      <g
         id="equation_06_g-7">
        <use
           x="77"
           xlink:href="#equation_06_00-1"
           y="63"
           id="use4991-4"
           width="744.09448"
           height="1052.3622" />
        <use
           x="82.031303"
           xlink:href="#equation_06_01-1"
           y="63"
           id="use4993-2"
           width="744.09448"
           height="1052.3622" />
        <use
           x="89.808998"
           xlink:href="#equation_06_03-8"
           y="63"
           id="use4995-7"
           width="744.09448"
           height="1052.3622" />
        <use
           x="100.365"
           xlink:href="#equation_06_02-3"
           y="63"
           id="use4997-7"
           width="744.09448"
           height="1052.3622" />
      </g>
    </g>
    <g
       id="equation_06-9"
       style="fill:#000000"
       title="$p1=5$"
       transform="matrix(1.627907,0,0,1.627907,-22.502131,689.99608)">
      <defs
         id="defs4984-3">
        <path
           d="m 0.45,1.22 c -0.08,0.34 -0.1,0.41 -0.54,0.41 -0.12,0 -0.23,0 -0.23,0.19 0,0.08 0.05,0.12 0.13,0.12 0.27,0 0.56,-0.03 0.84,-0.03 0.33,0 0.67,0.03 0.99,0.03 0.05,0 0.18,0 0.18,-0.2 0,-0.11 -0.1,-0.11 -0.24,-0.11 -0.5,0 -0.5,-0.07 -0.5,-0.16 0,-0.12 0.42,-1.75 0.49,-2 0.13,0.29 0.41,0.64 0.92,0.64 1.16,0 2.41,-1.46 2.41,-2.93 0,-0.94 -0.57,-1.6 -1.33,-1.6 -0.5,0 -0.98,0.36 -1.31,0.75 -0.1,-0.54 -0.53,-0.75 -0.9,-0.75 -0.46,0 -0.65,0.39 -0.74,0.57 -0.18,0.34 -0.31,0.94 -0.31,0.97 0,0.1 0.1,0.1 0.12,0.1 0.1,0 0.11,-0.01 0.17,-0.23 0.17,-0.71 0.37,-1.19 0.73,-1.19 0.17,0 0.31,0.08 0.31,0.46 0,0.23 -0.03,0.34 -0.07,0.51 L 0.45,1.22 z m 1.76,-4.34 c 0.07,-0.27 0.34,-0.55 0.52,-0.7 0.35,-0.31 0.64,-0.38 0.81,-0.38 0.4,0 0.64,0.35 0.64,0.94 0,0.59 -0.33,1.74 -0.51,2.12 -0.34,0.7 -0.82,1.03 -1.19,1.03 -0.66,0 -0.79,-0.83 -0.79,-0.89 0,-0.02 0,-0.04 0.03,-0.16 l 0.49,-1.96 z"
           id="equation_06_00-19"
           inkscape:connector-curvature="0" />
        <path
           d="m 2.94,-6.4 c 0,-0.24 0,-0.26 -0.23,-0.26 -0.62,0.64 -1.5,0.64 -1.82,0.64 v 0.31 c 0.2,0 0.79,0 1.31,-0.26 v 5.18 c 0,0.36 -0.03,0.48 -0.93,0.48 H 0.95 V 0 c 0.35,-0.03 1.22,-0.03 1.62,-0.03 0.4,0 1.27,0 1.62,0.03 V -0.31 H 3.87 c -0.9,0 -0.93,-0.11 -0.93,-0.48 V -6.4 z"
           id="equation_06_01-8"
           inkscape:connector-curvature="0" />
        <path
           d="m 4.49,-2.01 c 0,-1.19 -0.82,-2.19 -1.9,-2.19 -0.48,0 -0.91,0.16 -1.27,0.51 v -1.95 c 0.2,0.06 0.53,0.13 0.85,0.13 1.23,0 1.93,-0.91 1.93,-1.04 0,-0.06 -0.03,-0.11 -0.1,-0.11 -0.01,0 -0.03,0 -0.08,0.03 -0.2,0.09 -0.69,0.29 -1.36,0.29 -0.4,0 -0.86,-0.07 -1.33,-0.28 -0.08,-0.03 -0.1,-0.03 -0.12,-0.03 -0.1,0 -0.1,0.08 -0.1,0.24 v 2.96 c 0,0.18 0,0.26 0.14,0.26 0.07,0 0.09,-0.03 0.13,-0.09 0.11,-0.16 0.48,-0.7 1.29,-0.7 0.52,0 0.77,0.46 0.85,0.64 0.16,0.37 0.18,0.76 0.18,1.26 0,0.35 0,0.95 -0.24,1.37 -0.24,0.39 -0.61,0.65 -1.07,0.65 -0.73,0 -1.3,-0.53 -1.47,-1.12 0.03,0.01 0.06,0.02 0.17,0.02 0.33,0 0.5,-0.25 0.5,-0.49 0,-0.24 -0.17,-0.49 -0.5,-0.49 -0.14,0 -0.49,0.07 -0.49,0.53 0,0.86 0.69,1.83 1.81,1.83 1.16,0 2.18,-0.96 2.18,-2.23 z"
           id="equation_06_02-6"
           inkscape:connector-curvature="0" />
        <path
           d="m 6.87,-3.27 c 0.15,0 0.34,0 0.34,-0.2 0,-0.2 -0.19,-0.2 -0.33,-0.2 H 0.89 c -0.14,0 -0.33,0 -0.33,0.2 0,0.2 0.19,0.2 0.34,0.2 h 5.97 z m 0.01,1.94 c 0.14,0 0.33,0 0.33,-0.2 0,-0.2 -0.19,-0.2 -0.34,-0.2 H 0.9 c -0.15,0 -0.34,0 -0.34,0.2 0,0.2 0.19,0.2 0.33,0.2 h 5.99 z"
           id="equation_06_03-5"
           inkscape:connector-curvature="0" />
      </defs>
      <g
         id="equation_06_g-0">
        <use
           x="77"
           xlink:href="#equation_06_00-19"
           y="63"
           id="use4991-2"
           width="744.09448"
           height="1052.3622" />
        <use
           x="82.031303"
           xlink:href="#equation_06_01-8"
           y="63"
           id="use4993-8"
           width="744.09448"
           height="1052.3622" />
        <use
           x="89.808998"
           xlink:href="#equation_06_03-5"
           y="63"
           id="use4995-6"
           width="744.09448"
           height="1052.3622" />
        <use
           x="100.365"
           xlink:href="#equation_06_02-6"
           y="63"
           id="use4997-0"
           width="744.09448"
           height="1052.3622" />
      </g>
    </g>
    <g
       title="$i-1$"
       style="fill:#000000"
       id="equation_01-2"
       transform="matrix(1.6248154,0,0,1.6248154,107.89085,571.46211)">
      <defs
         id="defs4148-4">
        <path
           id="equation_01_00-8"
           d="m 6.59,-2.3 c 0.17,0 0.35,0 0.35,-0.2 0,-0.2 -0.18,-0.2 -0.35,-0.2 H 1.18 c -0.17,0 -0.35,0 -0.35,0.2 0,0.2 0.18,0.2 0.35,0.2 h 5.41 z"
           inkscape:connector-curvature="0" />
        <path
           id="equation_01_01-6"
           d="m 2.84,-6.25 c 0,-0.2 -0.14,-0.36 -0.37,-0.36 -0.27,0 -0.54,0.26 -0.54,0.53 0,0.19 0.14,0.36 0.38,0.36 0.23,0 0.53,-0.23 0.53,-0.53 z M 2.08,-2.49 C 2.2,-2.78 2.2,-2.8 2.3,-3.07 c 0.08,-0.2 0.13,-0.34 0.13,-0.53 0,-0.45 -0.32,-0.82 -0.82,-0.82 -0.94,0 -1.32,1.45 -1.32,1.54 0,0.1 0.1,0.1 0.12,0.1 0.1,0 0.11,-0.02 0.16,-0.18 0.27,-0.94 0.67,-1.24 1.01,-1.24 0.08,0 0.25,0 0.25,0.32 0,0.21 -0.07,0.42 -0.11,0.52 -0.08,0.26 -0.53,1.42 -0.69,1.85 -0.1,0.26 -0.23,0.59 -0.23,0.8 0,0.47 0.34,0.82 0.82,0.82 0.94,0 1.31,-1.45 1.31,-1.54 0,-0.1 -0.09,-0.1 -0.12,-0.1 -0.1,0 -0.1,0.03 -0.15,0.18 -0.18,0.63 -0.51,1.24 -1.02,1.24 -0.17,0 -0.24,-0.1 -0.24,-0.33 0,-0.25 0.06,-0.39 0.29,-1 l 0.39,-1.05 z"
           inkscape:connector-curvature="0" />
        <path
           id="equation_01_02-5"
           d="m 2.94,-6.4 c 0,-0.24 0,-0.26 -0.23,-0.26 -0.62,0.64 -1.5,0.64 -1.82,0.64 v 0.31 c 0.2,0 0.79,0 1.31,-0.26 v 5.18 c 0,0.36 -0.03,0.48 -0.93,0.48 H 0.95 V 0 c 0.35,-0.03 1.22,-0.03 1.62,-0.03 0.4,0 1.27,0 1.62,0.03 V -0.31 H 3.87 c -0.9,0 -0.93,-0.11 -0.93,-0.48 V -6.4 z"
           inkscape:connector-curvature="0" />
      </defs>
      <g
         id="equation_01_g-0">
        <use
           id="use4154-9"
           y="63"
           xlink:href="#equation_01_01-6"
           x="77"
           width="744.09448"
           height="1052.3622" />
        <use
           id="use4156-0"
           y="63"
           xlink:href="#equation_01_00-8"
           x="82.667297"
           width="744.09448"
           height="1052.3622" />
        <use
           id="use4158-0"
           y="63"
           xlink:href="#equation_01_02-5"
           x="92.667297"
           width="744.09448"
           height="1052.3622" />
      </g>
    </g>
    <g
       title="$i$"
       style="fill:#000000"
       id="equation_03-6"
       transform="matrix(1.7140215,0,0,1.7140215,164.90629,565.32724)">
      <defs
         id="defs4441-1">
        <path
           id="equation_03_00-3"
           d="m 2.84,-6.25 c 0,-0.2 -0.14,-0.36 -0.37,-0.36 -0.27,0 -0.54,0.26 -0.54,0.53 0,0.19 0.14,0.36 0.38,0.36 0.23,0 0.53,-0.23 0.53,-0.53 z M 2.08,-2.49 C 2.2,-2.78 2.2,-2.8 2.3,-3.07 c 0.08,-0.2 0.13,-0.34 0.13,-0.53 0,-0.45 -0.32,-0.82 -0.82,-0.82 -0.94,0 -1.32,1.45 -1.32,1.54 0,0.1 0.1,0.1 0.12,0.1 0.1,0 0.11,-0.02 0.16,-0.18 0.27,-0.94 0.67,-1.24 1.01,-1.24 0.08,0 0.25,0 0.25,0.32 0,0.21 -0.07,0.42 -0.11,0.52 -0.08,0.26 -0.53,1.42 -0.69,1.85 -0.1,0.26 -0.23,0.59 -0.23,0.8 0,0.47 0.34,0.82 0.82,0.82 0.94,0 1.31,-1.45 1.31,-1.54 0,-0.1 -0.09,-0.1 -0.12,-0.1 -0.1,0 -0.1,0.03 -0.15,0.18 -0.18,0.63 -0.51,1.24 -1.02,1.24 -0.17,0 -0.24,-0.1 -0.24,-0.33 0,-0.25 0.06,-0.39 0.29,-1 l 0.39,-1.05 z"
           inkscape:connector-curvature="0" />
      </defs>
      <g
         id="equation_03_g-8">
        <use
           id="use4445-9"
           y="63"
           xlink:href="#equation_03_00-3"
           x="77"
           width="744.09448"
           height="1052.3622" />
      </g>
    </g>
    <g
       id="equation_04-3"
       style="fill:#000000"
       title="$i+1$"
       transform="matrix(1.4686248,0,0,1.4686248,218.05242,887.34827)">
      <defs
         id="defs4600-4">
        <path
           d="m 2.84,-6.25 c 0,-0.2 -0.14,-0.36 -0.37,-0.36 -0.27,0 -0.54,0.26 -0.54,0.53 0,0.19 0.14,0.36 0.38,0.36 0.23,0 0.53,-0.23 0.53,-0.53 z M 2.08,-2.49 C 2.2,-2.78 2.2,-2.8 2.3,-3.07 c 0.08,-0.2 0.13,-0.34 0.13,-0.53 0,-0.45 -0.32,-0.82 -0.82,-0.82 -0.94,0 -1.32,1.45 -1.32,1.54 0,0.1 0.1,0.1 0.12,0.1 0.1,0 0.11,-0.02 0.16,-0.18 0.27,-0.94 0.67,-1.24 1.01,-1.24 0.08,0 0.25,0 0.25,0.32 0,0.21 -0.07,0.42 -0.11,0.52 -0.08,0.26 -0.53,1.42 -0.69,1.85 -0.1,0.26 -0.23,0.59 -0.23,0.8 0,0.47 0.34,0.82 0.82,0.82 0.94,0 1.31,-1.45 1.31,-1.54 0,-0.1 -0.09,-0.1 -0.12,-0.1 -0.1,0 -0.1,0.03 -0.15,0.18 -0.18,0.63 -0.51,1.24 -1.02,1.24 -0.17,0 -0.24,-0.1 -0.24,-0.33 0,-0.25 0.06,-0.39 0.29,-1 l 0.39,-1.05 z"
           id="equation_04_00-4"
           inkscape:connector-curvature="0" />
        <path
           d="m 4.09,-2.3 h 2.79 c 0.14,0 0.33,0 0.33,-0.2 0,-0.2 -0.19,-0.2 -0.33,-0.2 H 4.09 v -2.8 c 0,-0.14 0,-0.33 -0.2,-0.33 -0.2,0 -0.2,0.19 -0.2,0.33 v 2.8 h -2.8 c -0.14,0 -0.33,0 -0.33,0.2 0,0.2 0.19,0.2 0.33,0.2 h 2.8 v 2.8 c 0,0.14 0,0.33 0.2,0.33 0.2,0 0.2,-0.19 0.2,-0.33 v -2.8 z"
           id="equation_04_01-6"
           inkscape:connector-curvature="0" />
        <path
           d="m 2.94,-6.4 c 0,-0.24 0,-0.26 -0.23,-0.26 -0.62,0.64 -1.5,0.64 -1.82,0.64 v 0.31 c 0.2,0 0.79,0 1.31,-0.26 v 5.18 c 0,0.36 -0.03,0.48 -0.93,0.48 H 0.95 V 0 c 0.35,-0.03 1.22,-0.03 1.62,-0.03 0.4,0 1.27,0 1.62,0.03 V -0.31 H 3.87 c -0.9,0 -0.93,-0.11 -0.93,-0.48 V -6.4 z"
           id="equation_04_02-0"
           inkscape:connector-curvature="0" />
      </defs>
      <g
         id="equation_04_g-6">
        <use
           x="77"
           xlink:href="#equation_04_00-4"
           y="63"
           id="use4606-6"
           width="744.09448"
           height="1052.3622" />
        <use
           x="82.667297"
           xlink:href="#equation_04_01-6"
           y="63"
           id="use4608-1"
           width="744.09448"
           height="1052.3622" />
        <use
           x="92.667297"
           xlink:href="#equation_04_02-0"
           y="63"
           id="use4610-8"
           width="744.09448"
           height="1052.3622" />
      </g>
    </g>
    <g
       title="$i$"
       style="fill:#000000"
       id="equation_03-6-4"
       transform="matrix(1.3382207,0,0,1.3382207,192.86863,896.15339)">
      <defs
         id="defs4441-1-9">
        <path
           id="equation_03_00-3-6"
           d="m 2.84,-6.25 c 0,-0.2 -0.14,-0.36 -0.37,-0.36 -0.27,0 -0.54,0.26 -0.54,0.53 0,0.19 0.14,0.36 0.38,0.36 0.23,0 0.53,-0.23 0.53,-0.53 z M 2.08,-2.49 C 2.2,-2.78 2.2,-2.8 2.3,-3.07 c 0.08,-0.2 0.13,-0.34 0.13,-0.53 0,-0.45 -0.32,-0.82 -0.82,-0.82 -0.94,0 -1.32,1.45 -1.32,1.54 0,0.1 0.1,0.1 0.12,0.1 0.1,0 0.11,-0.02 0.16,-0.18 0.27,-0.94 0.67,-1.24 1.01,-1.24 0.08,0 0.25,0 0.25,0.32 0,0.21 -0.07,0.42 -0.11,0.52 -0.08,0.26 -0.53,1.42 -0.69,1.85 -0.1,0.26 -0.23,0.59 -0.23,0.8 0,0.47 0.34,0.82 0.82,0.82 0.94,0 1.31,-1.45 1.31,-1.54 0,-0.1 -0.09,-0.1 -0.12,-0.1 -0.1,0 -0.1,0.03 -0.15,0.18 -0.18,0.63 -0.51,1.24 -1.02,1.24 -0.17,0 -0.24,-0.1 -0.24,-0.33 0,-0.25 0.06,-0.39 0.29,-1 l 0.39,-1.05 z"
           inkscape:connector-curvature="0" />
      </defs>
      <g
         id="equation_03_g-8-3">
        <use
           id="use4445-9-7"
           y="63"
           xlink:href="#equation_03_00-3-6"
           x="77"
           width="744.09448"
           height="1052.3622" />
      </g>
    </g>
  </g>
</svg>
