<?xml version="1.0" encoding="UTF-8" standalone="no"?>
<!-- Created with Inkscape (http://www.inkscape.org/) -->

<svg
   xmlns:dc="http://purl.org/dc/elements/1.1/"
   xmlns:cc="http://creativecommons.org/ns#"
   xmlns:rdf="http://www.w3.org/1999/02/22-rdf-syntax-ns#"
   xmlns:svg="http://www.w3.org/2000/svg"
   xmlns="http://www.w3.org/2000/svg"
   xmlns:xlink="http://www.w3.org/1999/xlink"
   xmlns:sodipodi="http://sodipodi.sourceforge.net/DTD/sodipodi-0.dtd"
   xmlns:inkscape="http://www.inkscape.org/namespaces/inkscape"
   width="744.09448819"
   height="1052.3622047"
   id="svg2"
   version="1.1"
   inkscape:version="0.48.4 r9939"
   sodipodi:docname="rys3.svg"
   inkscape:export-filename="D:\TEWI\figures_inkscape\rys3.png"
   inkscape:export-xdpi="196.38"
   inkscape:export-ydpi="196.38">
  <sodipodi:namedview
     id="base"
     pagecolor="#ffffff"
     bordercolor="#666666"
     borderopacity="1.0"
     inkscape:pageopacity="0.0"
     inkscape:pageshadow="2"
     inkscape:zoom="1.4"
     inkscape:cx="308.72796"
     inkscape:cy="922.24497"
     inkscape:document-units="px"
     inkscape:current-layer="layer1"
     showgrid="false"
     inkscape:window-width="1538"
     inkscape:window-height="877"
     inkscape:window-x="-8"
     inkscape:window-y="-8"
     inkscape:window-maximized="1"
     showguides="true"
     inkscape:guide-bbox="true">
    <sodipodi:guide
       orientation="0,1"
       position="200.51528,964.69568"
       id="guide3057" />
    <sodipodi:guide
       orientation="1,0"
       position="100,1082.8571"
       id="guide3059" />
    <sodipodi:guide
       orientation="1,0"
       position="400,1085"
       id="guide3061" />
    <sodipodi:guide
       orientation="0,1"
       position="357.08892,750.03827"
       id="guide3063" />
    <sodipodi:guide
       id="guide6234"
       position="346.07143,964.69568"
       orientation="1,0" />
  </sodipodi:namedview>
  <defs
     id="defs4">
    <marker
       inkscape:stockid="Arrow2Lstart"
       orient="auto"
       refY="0.0"
       refX="0.0"
       id="Arrow2Lstart"
       style="overflow:visible">
      <path
         id="path3857"
         style="fill-rule:evenodd;stroke-width:0.62500000;stroke-linejoin:round"
         d="M 8.7185878,4.0337352 L -2.2072895,0.016013256 L 8.7185884,-4.0017078 C 6.9730900,-1.6296469 6.9831476,1.6157441 8.7185878,4.0337352 z "
         transform="scale(1.1) translate(1,0)" />
    </marker>
    <marker
       inkscape:stockid="Arrow2Lend"
       orient="auto"
       refY="0.0"
       refX="0.0"
       id="Arrow2Lend"
       style="overflow:visible;">
      <path
         id="path3860"
         style="fill-rule:evenodd;stroke-width:0.62500000;stroke-linejoin:round;"
         d="M 8.7185878,4.0337352 L -2.2072895,0.016013256 L 8.7185884,-4.0017078 C 6.9730900,-1.6296469 6.9831476,1.6157441 8.7185878,4.0337352 z "
         transform="scale(1.1) rotate(180) translate(1,0)" />
    </marker>
    <marker
       inkscape:stockid="Arrow1Mend"
       orient="auto"
       refY="0.0"
       refX="0.0"
       id="Arrow1Mend"
       style="overflow:visible;">
      <path
         id="path3848"
         d="M 0.0,0.0 L 5.0,-5.0 L -12.5,0.0 L 5.0,5.0 L 0.0,0.0 z "
         style="fill-rule:evenodd;stroke:#000000;stroke-width:1.0pt;"
         transform="scale(0.4) rotate(180) translate(10,0)" />
    </marker>
    <marker
       inkscape:stockid="Arrow2Mend"
       orient="auto"
       refY="0.0"
       refX="0.0"
       id="Arrow2Mend"
       style="overflow:visible;">
      <path
         id="path3866"
         style="fill-rule:evenodd;stroke-width:0.62500000;stroke-linejoin:round;"
         d="M 8.7185878,4.0337352 L -2.2072895,0.016013256 L 8.7185884,-4.0017078 C 6.9730900,-1.6296469 6.9831476,1.6157441 8.7185878,4.0337352 z "
         transform="scale(0.6) rotate(180) translate(0,0)" />
    </marker>
    <marker
       inkscape:stockid="Arrow1Lend"
       orient="auto"
       refY="0.0"
       refX="0.0"
       id="Arrow1Lend"
       style="overflow:visible;">
      <path
         id="path3842"
         d="M 0.0,0.0 L 5.0,-5.0 L -12.5,0.0 L 5.0,5.0 L 0.0,0.0 z "
         style="fill-rule:evenodd;stroke:#000000;stroke-width:1.0pt;"
         transform="scale(0.8) rotate(180) translate(12.5,0)" />
    </marker>
    <marker
       inkscape:stockid="Arrow2Lend"
       orient="auto"
       refY="0"
       refX="0"
       id="Arrow2Lend-9"
       style="overflow:visible">
      <path
         id="path3860-4"
         style="fill-rule:evenodd;stroke-width:0.625;stroke-linejoin:round"
         d="M 8.7185878,4.0337352 -2.2072895,0.01601326 8.7185884,-4.0017078 c -1.7454984,2.3720609 -1.7354408,5.6174519 -6e-7,8.035443 z"
         transform="matrix(-1.1,0,0,-1.1,-1.1,0)"
         inkscape:connector-curvature="0" />
    </marker>
  </defs>
  <metadata
     id="metadata7">
    <rdf:RDF>
      <cc:Work
         rdf:about="">
        <dc:format>image/svg+xml</dc:format>
        <dc:type
           rdf:resource="http://purl.org/dc/dcmitype/StillImage" />
        <dc:title></dc:title>
      </cc:Work>
    </rdf:RDF>
  </metadata>
  <g
     inkscape:label="Layer 1"
     inkscape:groupmode="layer"
     id="layer1">
    <path
       style="fill:none;stroke:#000000;stroke-width:1.11489761;stroke-linecap:butt;stroke-linejoin:miter;stroke-miterlimit:4;stroke-opacity:1;stroke-dasharray:none;marker-end:url(#Arrow2Lend)"
       d="m 100.00019,302.40473 0,-213.863232"
       id="path3065"
       inkscape:connector-curvature="0" />
    <path
       style="fill:none;stroke:#000000;stroke-width:1.115;stroke-linecap:butt;stroke-linejoin:miter;stroke-opacity:1;marker-start:url(#Arrow2Lstart);stroke-miterlimit:4;stroke-dasharray:none"
       d="m 400,302.36218 -300,0"
       id="path5029"
       inkscape:connector-curvature="0" />
    <path
       style="fill:none;stroke:#000000;stroke-width:0.59987116;stroke-linecap:butt;stroke-linejoin:miter;stroke-miterlimit:4;stroke-opacity:1;stroke-dasharray:none"
       d="m 139.57143,302.41224 0,-214.239706"
       id="path5223"
       inkscape:connector-curvature="0" />
    <path
       style="fill:none;stroke:#000000;stroke-width:0.6012814;stroke-linecap:butt;stroke-linejoin:miter;stroke-miterlimit:4;stroke-opacity:1;stroke-dasharray:none"
       d="m 299.28572,302.41154 0,-214.743379"
       id="path5223-1"
       inkscape:connector-curvature="0" />
    <path
       style="fill:none;stroke:#000000;stroke-width:0.60000002;stroke-linecap:butt;stroke-linejoin:miter;stroke-miterlimit:4;stroke-opacity:1;stroke-dasharray:none"
       d="m 139.64286,141.6479 218.15419,0"
       id="path5256"
       inkscape:connector-curvature="0" />
    <path
       sodipodi:type="arc"
       style="stroke-width:0.60000002;stroke-miterlimit:4;stroke-dasharray:none"
       id="path5258"
       sodipodi:cx="208.34396"
       sodipodi:cy="145.49774"
       sodipodi:rx="2.7779195"
       sodipodi:ry="2.7779195"
       d="m 211.12188,145.49774 a 2.7779195,2.7779195 0 1 1 -5.55584,0 2.7779195,2.7779195 0 1 1 5.55584,0 z"
       transform="translate(-68.487322,-4.157339)" />
    <path
       sodipodi:type="arc"
       style="stroke-width:0.60000002;stroke-miterlimit:4;stroke-dasharray:none"
       id="path5258-7"
       sodipodi:cx="208.34396"
       sodipodi:cy="145.49774"
       sodipodi:rx="2.7779195"
       sodipodi:ry="2.7779195"
       d="m 211.12188,145.49774 a 2.7779195,2.7779195 0 1 1 -5.55584,0 2.7779195,2.7779195 0 1 1 5.55584,0 z"
       transform="translate(90.86424,81.747455)" />
    <g
       transform="matrix(1.6475941,0,0,1.6475941,250.85804,212.87523)"
       id="equation_00"
       style="fill:#000000"
       title="$t$">
      <defs
         id="defs5306">
        <path
           inkscape:connector-curvature="0"
           d="M 2.06,-4 H 3 c 0.2,0 0.3,0 0.3,-0.2 0,-0.11 -0.1,-0.11 -0.28,-0.11 H 2.14 c 0.36,-1.42 0.41,-1.62 0.41,-1.68 0,-0.17 -0.12,-0.27 -0.29,-0.27 -0.03,0 -0.31,0.01 -0.4,0.36 L 1.47,-4.31 H 0.53 c -0.2,0 -0.3,0 -0.3,0.19 C 0.23,-4 0.31,-4 0.51,-4 h 0.88 c -0.72,2.84 -0.76,3.01 -0.76,3.19 0,0.54 0.38,0.92 0.92,0.92 1.02,0 1.59,-1.46 1.59,-1.54 0,-0.1 -0.08,-0.1 -0.12,-0.1 -0.09,0 -0.1,0.03 -0.15,0.14 -0.43,1.04 -0.96,1.28 -1.3,1.28 -0.21,0 -0.31,-0.13 -0.31,-0.46 0,-0.24 0.02,-0.31 0.06,-0.48 L 2.06,-4 z"
           id="equation_00_00" />
      </defs>
      <g
         id="equation_00_g">
        <use
           height="1052.3622"
           width="744.09448"
           x="77"
           xlink:href="#equation_00_00"
           y="63"
           id="use5310" />
      </g>
    </g>
    <g
       transform="matrix(1.5050762,0,0,1.7299728,20.310241,207.94948)"
       title="$t_i$"
       style="fill:#000000"
       id="equation_01">
      <defs
         id="defs5375">
        <path
           inkscape:connector-curvature="0"
           id="equation_01_00"
           d="m 2.268,-4.375 c 0,-0.112 -0.084,-0.266 -0.28,-0.266 -0.189,0 -0.392,0.182 -0.392,0.385 0,0.119 0.091,0.266 0.28,0.266 0.203,0 0.392,-0.196 0.392,-0.385 z M 0.84,-0.819 c -0.028,0.091 -0.063,0.175 -0.063,0.294 0,0.329 0.28,0.595 0.665,0.595 0.7,0 1.008,-0.966 1.008,-1.071 0,-0.091 -0.091,-0.091 -0.112,-0.091 -0.098,0 -0.105,0.042 -0.133,0.119 -0.161,0.56 -0.469,0.847 -0.742,0.847 -0.14,0 -0.175,-0.091 -0.175,-0.245 0,-0.161 0.049,-0.294 0.112,-0.448 0.07,-0.189 0.147,-0.378 0.224,-0.56 0.063,-0.168 0.315,-0.805 0.343,-0.889 0.021,-0.07 0.042,-0.154 0.042,-0.224 0,-0.329 -0.28,-0.595 -0.665,-0.595 -0.693,0 -1.015,0.952 -1.015,1.071 0,0.091 0.098,0.091 0.119,0.091 0.098,0 0.105,-0.035 0.126,-0.112 0.182,-0.602 0.49,-0.854 0.749,-0.854 0.112,0 0.175,0.056 0.175,0.245 0,0.161 -0.042,0.266 -0.217,0.7 L 0.84,-0.819 z" />
        <path
           inkscape:connector-curvature="0"
           id="equation_01_01"
           d="M 2.06,-4 H 3 c 0.2,0 0.3,0 0.3,-0.2 0,-0.11 -0.1,-0.11 -0.28,-0.11 H 2.14 c 0.36,-1.42 0.41,-1.62 0.41,-1.68 0,-0.17 -0.12,-0.27 -0.29,-0.27 -0.03,0 -0.31,0.01 -0.4,0.36 L 1.47,-4.31 H 0.53 c -0.2,0 -0.3,0 -0.3,0.19 C 0.23,-4 0.31,-4 0.51,-4 h 0.88 c -0.72,2.84 -0.76,3.01 -0.76,3.19 0,0.54 0.38,0.92 0.92,0.92 1.02,0 1.59,-1.46 1.59,-1.54 0,-0.1 -0.08,-0.1 -0.12,-0.1 -0.09,0 -0.1,0.03 -0.15,0.14 -0.43,1.04 -0.96,1.28 -1.3,1.28 -0.21,0 -0.31,-0.13 -0.31,-0.46 0,-0.24 0.02,-0.31 0.06,-0.48 L 2.06,-4 z" />
      </defs>
      <g
         id="equation_01_g">
        <use
           height="1052.3622"
           width="744.09448"
           id="use5380"
           y="63"
           xlink:href="#equation_01_01"
           x="77" />
        <use
           height="1052.3622"
           width="744.09448"
           id="use5382"
           y="64.5"
           xlink:href="#equation_01_00"
           x="80.611099" />
      </g>
    </g>
    <g
       transform="matrix(1.6127884,0,0,1.6905537,166.25704,209.68449)"
       id="equation_02"
       style="fill:#000000"
       title="$t_{i+1}$">
      <defs
         id="defs5461">
        <path
           inkscape:connector-curvature="0"
           d="m 3.241,-1.582 h 2.142 c 0.091,0 0.259,0 0.259,-0.168 0,-0.175 -0.161,-0.175 -0.259,-0.175 H 3.241 v -2.149 c 0,-0.091 0,-0.259 -0.168,-0.259 -0.175,0 -0.175,0.161 -0.175,0.259 v 2.149 H 0.749 c -0.091,0 -0.259,0 -0.259,0.168 0,0.175 0.161,0.175 0.259,0.175 h 2.149 v 2.149 c 0,0.091 0,0.259 0.168,0.259 0.175,0 0.175,-0.161 0.175,-0.259 v -2.149 z"
           id="equation_02_00" />
        <path
           inkscape:connector-curvature="0"
           d="m 2.345,-4.452 c 0,-0.189 -0.014,-0.196 -0.21,-0.196 C 1.687,-4.207 1.05,-4.2 0.763,-4.2 v 0.252 c 0.168,0 0.63,0 1.015,-0.196 v 3.57 c 0,0.231 0,0.322 -0.7,0.322 H 0.812 V 0 c 0.126,-0.007 0.987,-0.028 1.246,-0.028 0.217,0 1.099,0.021 1.253,0.028 V -0.252 H 3.045 c -0.7,0 -0.7,-0.091 -0.7,-0.322 v -3.878 z"
           id="equation_02_01" />
        <path
           inkscape:connector-curvature="0"
           d="M 2.06,-4 H 3 c 0.2,0 0.3,0 0.3,-0.2 0,-0.11 -0.1,-0.11 -0.28,-0.11 H 2.14 c 0.36,-1.42 0.41,-1.62 0.41,-1.68 0,-0.17 -0.12,-0.27 -0.29,-0.27 -0.03,0 -0.31,0.01 -0.4,0.36 L 1.47,-4.31 H 0.53 c -0.2,0 -0.3,0 -0.3,0.19 C 0.23,-4 0.31,-4 0.51,-4 h 0.88 c -0.72,2.84 -0.76,3.01 -0.76,3.19 0,0.54 0.38,0.92 0.92,0.92 1.02,0 1.59,-1.46 1.59,-1.54 0,-0.1 -0.08,-0.1 -0.12,-0.1 -0.09,0 -0.1,0.03 -0.15,0.14 -0.43,1.04 -0.96,1.28 -1.3,1.28 -0.21,0 -0.31,-0.13 -0.31,-0.46 0,-0.24 0.02,-0.31 0.06,-0.48 L 2.06,-4 z"
           id="equation_02_02" />
        <path
           inkscape:connector-curvature="0"
           d="m 2.268,-4.375 c 0,-0.112 -0.084,-0.266 -0.28,-0.266 -0.189,0 -0.392,0.182 -0.392,0.385 0,0.119 0.091,0.266 0.28,0.266 0.203,0 0.392,-0.196 0.392,-0.385 z M 0.84,-0.819 c -0.028,0.091 -0.063,0.175 -0.063,0.294 0,0.329 0.28,0.595 0.665,0.595 0.7,0 1.008,-0.966 1.008,-1.071 0,-0.091 -0.091,-0.091 -0.112,-0.091 -0.098,0 -0.105,0.042 -0.133,0.119 -0.161,0.56 -0.469,0.847 -0.742,0.847 -0.14,0 -0.175,-0.091 -0.175,-0.245 0,-0.161 0.049,-0.294 0.112,-0.448 0.07,-0.189 0.147,-0.378 0.224,-0.56 0.063,-0.168 0.315,-0.805 0.343,-0.889 0.021,-0.07 0.042,-0.154 0.042,-0.224 0,-0.329 -0.28,-0.595 -0.665,-0.595 -0.693,0 -1.015,0.952 -1.015,1.071 0,0.091 0.098,0.091 0.119,0.091 0.098,0 0.105,-0.035 0.126,-0.112 0.182,-0.602 0.49,-0.854 0.749,-0.854 0.112,0 0.175,0.056 0.175,0.245 0,0.161 -0.042,0.266 -0.217,0.7 L 0.84,-0.819 z"
           id="equation_02_03" />
      </defs>
      <g
         id="equation_02_g">
        <use
           height="1052.3622"
           width="744.09448"
           x="77"
           xlink:href="#equation_02_02"
           y="63"
           id="use5468" />
        <use
           height="1052.3622"
           width="744.09448"
           x="80.611099"
           xlink:href="#equation_02_03"
           y="64.5"
           id="use5470" />
        <use
           height="1052.3622"
           width="744.09448"
           x="83.440399"
           xlink:href="#equation_02_00"
           y="64.5"
           id="use5472" />
        <use
           height="1052.3622"
           width="744.09448"
           x="89.5793"
           xlink:href="#equation_02_01"
           y="64.5"
           id="use5474" />
      </g>
    </g>
    <g
       transform="matrix(1.4872876,0,0,1.4872876,5.726092,40.16933)"
       title="$C_i$"
       style="fill:#000000"
       id="equation_03">
      <defs
         id="defs5575">
        <path
           inkscape:connector-curvature="0"
           id="equation_03_00"
           d="m 7.6,-6.95 c 0,-0.03 -0.02,-0.1 -0.11,-0.1 -0.03,0 -0.04,0.01 -0.15,0.12 l -0.7,0.77 C 6.55,-6.3 6.09,-7.05 4.98,-7.05 c -2.23,0 -4.48,2.21 -4.48,4.53 0,1.65 1.18,2.74 2.71,2.74 0.87,0 1.63,-0.4 2.16,-0.86 0.93,-0.82 1.1,-1.73 1.1,-1.76 0,-0.1 -0.1,-0.1 -0.12,-0.1 -0.06,0 -0.11,0.02 -0.13,0.1 -0.09,0.29 -0.32,1 -1.01,1.58 -0.69,0.56 -1.32,0.73 -1.84,0.73 -0.9,0 -1.96,-0.52 -1.96,-2.08 0,-0.57 0.21,-2.19 1.21,-3.36 0.61,-0.71 1.55,-1.21 2.44,-1.21 1.02,0 1.61,0.77 1.61,1.93 0,0.4 -0.03,0.41 -0.03,0.51 0,0.1 0.11,0.1 0.15,0.1 0.13,0 0.13,-0.02 0.18,-0.2 L 7.6,-6.95 z" />
        <path
           inkscape:connector-curvature="0"
           id="equation_03_01"
           d="m 2.268,-4.375 c 0,-0.112 -0.084,-0.266 -0.28,-0.266 -0.189,0 -0.392,0.182 -0.392,0.385 0,0.119 0.091,0.266 0.28,0.266 0.203,0 0.392,-0.196 0.392,-0.385 z M 0.84,-0.819 c -0.028,0.091 -0.063,0.175 -0.063,0.294 0,0.329 0.28,0.595 0.665,0.595 0.7,0 1.008,-0.966 1.008,-1.071 0,-0.091 -0.091,-0.091 -0.112,-0.091 -0.098,0 -0.105,0.042 -0.133,0.119 -0.161,0.56 -0.469,0.847 -0.742,0.847 -0.14,0 -0.175,-0.091 -0.175,-0.245 0,-0.161 0.049,-0.294 0.112,-0.448 0.07,-0.189 0.147,-0.378 0.224,-0.56 0.063,-0.168 0.315,-0.805 0.343,-0.889 0.021,-0.07 0.042,-0.154 0.042,-0.224 0,-0.329 -0.28,-0.595 -0.665,-0.595 -0.693,0 -1.015,0.952 -1.015,1.071 0,0.091 0.098,0.091 0.119,0.091 0.098,0 0.105,-0.035 0.126,-0.112 0.182,-0.602 0.49,-0.854 0.749,-0.854 0.112,0 0.175,0.056 0.175,0.245 0,0.161 -0.042,0.266 -0.217,0.7 L 0.84,-0.819 z" />
      </defs>
      <g
         id="equation_03_g">
        <use
           height="1052.3622"
           width="744.09448"
           id="use5580"
           y="63"
           xlink:href="#equation_03_00"
           x="77" />
        <use
           height="1052.3622"
           width="744.09448"
           id="use5582"
           y="64.5"
           xlink:href="#equation_03_01"
           x="84.147202" />
      </g>
    </g>
    <g
       transform="matrix(1.3469223,0,0,1.3469223,165.12894,153.16986)"
       id="equation_04"
       style="fill:#000000"
       title="$C_{i+1}$">
      <defs
         id="defs5697">
        <path
           inkscape:connector-curvature="0"
           d="m 7.6,-6.95 c 0,-0.03 -0.02,-0.1 -0.11,-0.1 -0.03,0 -0.04,0.01 -0.15,0.12 l -0.7,0.77 C 6.55,-6.3 6.09,-7.05 4.98,-7.05 c -2.23,0 -4.48,2.21 -4.48,4.53 0,1.65 1.18,2.74 2.71,2.74 0.87,0 1.63,-0.4 2.16,-0.86 0.93,-0.82 1.1,-1.73 1.1,-1.76 0,-0.1 -0.1,-0.1 -0.12,-0.1 -0.06,0 -0.11,0.02 -0.13,0.1 -0.09,0.29 -0.32,1 -1.01,1.58 -0.69,0.56 -1.32,0.73 -1.84,0.73 -0.9,0 -1.96,-0.52 -1.96,-2.08 0,-0.57 0.21,-2.19 1.21,-3.36 0.61,-0.71 1.55,-1.21 2.44,-1.21 1.02,0 1.61,0.77 1.61,1.93 0,0.4 -0.03,0.41 -0.03,0.51 0,0.1 0.11,0.1 0.15,0.1 0.13,0 0.13,-0.02 0.18,-0.2 L 7.6,-6.95 z"
           id="equation_04_00" />
        <path
           inkscape:connector-curvature="0"
           d="m 3.241,-1.582 h 2.142 c 0.091,0 0.259,0 0.259,-0.168 0,-0.175 -0.161,-0.175 -0.259,-0.175 H 3.241 v -2.149 c 0,-0.091 0,-0.259 -0.168,-0.259 -0.175,0 -0.175,0.161 -0.175,0.259 v 2.149 H 0.749 c -0.091,0 -0.259,0 -0.259,0.168 0,0.175 0.161,0.175 0.259,0.175 h 2.149 v 2.149 c 0,0.091 0,0.259 0.168,0.259 0.175,0 0.175,-0.161 0.175,-0.259 v -2.149 z"
           id="equation_04_01" />
        <path
           inkscape:connector-curvature="0"
           d="m 2.345,-4.452 c 0,-0.189 -0.014,-0.196 -0.21,-0.196 C 1.687,-4.207 1.05,-4.2 0.763,-4.2 v 0.252 c 0.168,0 0.63,0 1.015,-0.196 v 3.57 c 0,0.231 0,0.322 -0.7,0.322 H 0.812 V 0 c 0.126,-0.007 0.987,-0.028 1.246,-0.028 0.217,0 1.099,0.021 1.253,0.028 V -0.252 H 3.045 c -0.7,0 -0.7,-0.091 -0.7,-0.322 v -3.878 z"
           id="equation_04_02" />
        <path
           inkscape:connector-curvature="0"
           d="m 2.268,-4.375 c 0,-0.112 -0.084,-0.266 -0.28,-0.266 -0.189,0 -0.392,0.182 -0.392,0.385 0,0.119 0.091,0.266 0.28,0.266 0.203,0 0.392,-0.196 0.392,-0.385 z M 0.84,-0.819 c -0.028,0.091 -0.063,0.175 -0.063,0.294 0,0.329 0.28,0.595 0.665,0.595 0.7,0 1.008,-0.966 1.008,-1.071 0,-0.091 -0.091,-0.091 -0.112,-0.091 -0.098,0 -0.105,0.042 -0.133,0.119 -0.161,0.56 -0.469,0.847 -0.742,0.847 -0.14,0 -0.175,-0.091 -0.175,-0.245 0,-0.161 0.049,-0.294 0.112,-0.448 0.07,-0.189 0.147,-0.378 0.224,-0.56 0.063,-0.168 0.315,-0.805 0.343,-0.889 0.021,-0.07 0.042,-0.154 0.042,-0.224 0,-0.329 -0.28,-0.595 -0.665,-0.595 -0.693,0 -1.015,0.952 -1.015,1.071 0,0.091 0.098,0.091 0.119,0.091 0.098,0 0.105,-0.035 0.126,-0.112 0.182,-0.602 0.49,-0.854 0.749,-0.854 0.112,0 0.175,0.056 0.175,0.245 0,0.161 -0.042,0.266 -0.217,0.7 L 0.84,-0.819 z"
           id="equation_04_03" />
      </defs>
      <g
         id="equation_04_g">
        <use
           height="1052.3622"
           width="744.09448"
           x="77"
           xlink:href="#equation_04_00"
           y="63"
           id="use5704" />
        <use
           height="1052.3622"
           width="744.09448"
           x="84.147202"
           xlink:href="#equation_04_03"
           y="64.5"
           id="use5706" />
        <use
           height="1052.3622"
           width="744.09448"
           x="86.976501"
           xlink:href="#equation_04_01"
           y="64.5"
           id="use5708" />
        <use
           height="1052.3622"
           width="744.09448"
           x="93.115402"
           xlink:href="#equation_04_02"
           y="64.5"
           id="use5710" />
      </g>
    </g>
    <path
       inkscape:connector-curvature="0"
       id="path6265"
       d="m 346.07143,174.53962 0,-27.27412"
       style="fill:none;stroke:#000000;stroke-width:1px;stroke-linecap:butt;stroke-linejoin:miter;stroke-opacity:1;marker-end:url(#Arrow2Lend)" />
    <path
       inkscape:connector-curvature="0"
       id="path6265-8"
       d="m 345.48979,198.36927 0,27.27412"
       style="fill:none;stroke:#000000;stroke-width:1px;stroke-linecap:butt;stroke-linejoin:miter;stroke-opacity:1;marker-end:url(#Arrow2Lend)" />
    <g
       transform="matrix(0,-1.5193921,1.5193921,0,-3.2811022,325.37633)"
       id="equation_06"
       style="fill:#000000"
       title="$\text{Close price  (C)}$">
      <defs
         id="defs7423">
        <path
           inkscape:connector-curvature="0"
           d="M 3.31,2.4 C 3.31,2.37 3.31,2.35 3.14,2.18 1.89,0.92 1.57,-0.97 1.57,-2.5 c 0,-1.74 0.38,-3.48 1.61,-4.73 0.13,-0.12 0.13,-0.14 0.13,-0.17 0,-0.07 -0.04,-0.1 -0.1,-0.1 -0.1,0 -1,0.68 -1.59,1.95 -0.51,1.1 -0.63,2.21 -0.63,3.05 0,0.78 0.11,1.99 0.66,3.12 0.6,1.23 1.46,1.88 1.56,1.88 0.06,0 0.1,-0.03 0.1,-0.1 z"
           id="equation_06_00" />
        <path
           inkscape:connector-curvature="0"
           d="M 2.89,-2.5 C 2.89,-3.28 2.78,-4.49 2.23,-5.62 1.63,-6.85 0.77,-7.5 0.67,-7.5 c -0.06,0 -0.1,0.04 -0.1,0.1 0,0.03 0,0.05 0.19,0.23 0.98,0.99 1.55,2.58 1.55,4.67 0,1.71 -0.37,3.47 -1.61,4.73 -0.13,0.12 -0.13,0.14 -0.13,0.17 0,0.06 0.04,0.1 0.1,0.1 0.1,0 1,-0.68 1.59,-1.95 0.51,-1.1 0.63,-2.21 0.63,-3.05 z"
           id="equation_06_01" />
        <path
           inkscape:connector-curvature="0"
           d="m 0.56,-3.42 c 0,2.07 1.62,3.64 3.48,3.64 1.63,0 2.61,-1.39 2.61,-2.55 0,-0.1 0,-0.17 -0.13,-0.17 -0.11,0 -0.11,0.06 -0.12,0.16 -0.08,1.43 -1.15,2.25 -2.24,2.25 -0.61,0 -2.57,-0.34 -2.57,-3.32 0,-2.99 1.95,-3.33 2.56,-3.33 1.09,0 1.98,0.91 2.18,2.37 0.02,0.14 0.02,0.17 0.16,0.17 0.16,0 0.16,-0.03 0.16,-0.24 v -2.37 c 0,-0.17 0,-0.24 -0.11,-0.24 -0.04,0 -0.08,0 -0.16,0.12 l -0.5,0.74 C 5.51,-6.55 5,-7.05 4.04,-7.05 c -1.87,0 -3.48,1.59 -3.48,3.63 z"
           id="equation_06_02" />
        <path
           inkscape:connector-curvature="0"
           d="m 1.17,-2.18 c 0,-1.63 0.82,-2.05 1.35,-2.05 0.09,0 0.72,0.01 1.07,0.37 -0.41,0.03 -0.47,0.33 -0.47,0.46 0,0.26 0.18,0.46 0.46,0.46 0.26,0 0.46,-0.17 0.46,-0.47 0,-0.68 -0.76,-1.07 -1.53,-1.07 -1.25,0 -2.17,1.08 -2.17,2.32 0,1.28 0.99,2.27 2.15,2.27 1.34,0 1.66,-1.2 1.66,-1.3 0,-0.1 -0.1,-0.1 -0.13,-0.1 -0.09,0 -0.11,0.04 -0.13,0.1 -0.29,0.93 -0.94,1.05 -1.31,1.05 -0.53,0 -1.41,-0.43 -1.41,-2.04 z"
           id="equation_06_03" />
        <path
           inkscape:connector-curvature="0"
           d="m 1.12,-2.52 c 0.06,-1.49 0.9,-1.74 1.24,-1.74 1.03,0 1.13,1.35 1.13,1.74 H 1.12 z M 1.11,-2.31 H 3.9 c 0.22,0 0.25,0 0.25,-0.21 0,-0.99 -0.54,-1.96 -1.79,-1.96 -1.16,0 -2.08,1.03 -2.08,2.28 0,1.34 1.05,2.31 2.2,2.31 1.22,0 1.67,-1.11 1.67,-1.3 0,-0.1 -0.08,-0.12 -0.13,-0.12 -0.09,0 -0.11,0.06 -0.13,0.14 -0.35,1.03 -1.25,1.03 -1.35,1.03 -0.5,0 -0.9,-0.3 -1.13,-0.67 -0.3,-0.48 -0.3,-1.14 -0.3,-1.5 z"
           id="equation_06_04" />
        <path
           inkscape:connector-curvature="0"
           d="m 1.77,-4.42 -1.4,0.11 V -4 c 0.65,0 0.74,0.06 0.74,0.55 v 2.69 c 0,0.45 -0.11,0.45 -0.78,0.45 V 0 c 0.32,-0.01 0.86,-0.03 1.1,-0.03 0.35,0 0.7,0.02 1.04,0.03 v -0.31 c -0.66,0 -0.7,-0.05 -0.7,-0.44 v -3.67 z m 0.04,-1.74 c 0,-0.32 -0.25,-0.53 -0.53,-0.53 -0.31,0 -0.53,0.27 -0.53,0.53 0,0.27 0.22,0.53 0.53,0.53 0.28,0 0.53,-0.21 0.53,-0.53 z"
           id="equation_06_05" />
        <path
           inkscape:connector-curvature="0"
           d="m 1.77,-6.94 -1.44,0.11 v 0.31 c 0.7,0 0.78,0.07 0.78,0.56 v 5.2 c 0,0.45 -0.11,0.45 -0.78,0.45 V 0 c 0.33,-0.01 0.86,-0.03 1.11,-0.03 0.25,0 0.74,0.02 1.11,0.03 v -0.31 c -0.67,0 -0.78,0 -0.78,-0.45 v -6.18 z"
           id="equation_06_06" />
        <path
           inkscape:connector-curvature="0"
           d="m 4.71,-2.14 c 0,-1.28 -1,-2.34 -2.21,-2.34 -1.25,0 -2.22,1.09 -2.22,2.34 0,1.29 1.04,2.25 2.21,2.25 1.21,0 2.22,-0.98 2.22,-2.25 z m -2.21,2 c -0.43,0 -0.87,-0.21 -1.14,-0.67 -0.25,-0.44 -0.25,-1.05 -0.25,-1.41 0,-0.39 0,-0.93 0.24,-1.37 0.27,-0.46 0.74,-0.67 1.14,-0.67 0.44,0 0.87,0.22 1.13,0.65 0.26,0.43 0.26,1.01 0.26,1.39 0,0.36 0,0.9 -0.22,1.34 C 3.44,-0.43 3,-0.14 2.5,-0.14 z"
           id="equation_06_07" />
        <path
           inkscape:connector-curvature="0"
           d="M 1.72,-3.76 V -4.42 L 0.28,-4.31 V -4 c 0.71,0 0.78,0.06 0.78,0.5 v 4.68 c 0,0.45 -0.11,0.45 -0.78,0.45 V 1.94 C 0.62,1.93 1.14,1.91 1.4,1.91 c 0.27,0 0.78,0.02 1.13,0.03 V 1.63 c -0.67,0 -0.78,0 -0.78,-0.45 V -0.5 -0.59 c 0.05,0.16 0.47,0.7 1.23,0.7 1.19,0 2.23,-0.98 2.23,-2.27 0,-1.27 -0.97,-2.26 -2.09,-2.26 -0.78,0 -1.2,0.44 -1.4,0.66 z m 0.03,2.62 v -2.23 c 0.29,-0.51 0.78,-0.8 1.29,-0.8 0.73,0 1.34,0.88 1.34,2.01 0,1.21 -0.7,2.05 -1.44,2.05 -0.4,0 -0.78,-0.2 -1.05,-0.61 C 1.75,-0.93 1.75,-0.94 1.75,-1.14 z"
           id="equation_06_08" />
        <path
           inkscape:connector-curvature="0"
           d="m 1.67,-3.32 v -1.1 L 0.28,-4.31 V -4 c 0.7,0 0.78,0.07 0.78,0.56 v 2.68 c 0,0.45 -0.11,0.45 -0.78,0.45 V 0 c 0.39,-0.01 0.86,-0.03 1.14,-0.03 0.4,0 0.87,0 1.27,0.03 V -0.31 H 2.48 c -0.74,0 -0.76,-0.11 -0.76,-0.47 v -1.54 c 0,-0.99 0.42,-1.88 1.18,-1.88 0.07,0 0.09,0 0.11,0.01 -0.03,0.01 -0.23,0.13 -0.23,0.39 0,0.28 0.21,0.43 0.43,0.43 0.18,0 0.43,-0.12 0.43,-0.44 0,-0.32 -0.31,-0.61 -0.74,-0.61 -0.73,0 -1.09,0.67 -1.23,1.1 z"
           id="equation_06_09" />
        <path
           inkscape:connector-curvature="0"
           d="m 2.08,-1.94 c 0.22,0.04 1.04,0.2 1.04,0.92 0,0.51 -0.35,0.91 -1.13,0.91 -0.84,0 -1.2,-0.57 -1.39,-1.42 C 0.57,-1.66 0.56,-1.7 0.46,-1.7 c -0.13,0 -0.13,0.07 -0.13,0.25 v 1.32 c 0,0.17 0,0.24 0.11,0.24 0.05,0 0.06,-0.01 0.25,-0.2 0.02,-0.02 0.02,-0.04 0.2,-0.23 0.44,0.42 0.89,0.43 1.1,0.43 1.15,0 1.61,-0.67 1.61,-1.39 C 3.6,-1.81 3.3,-2.11 3.18,-2.23 2.85,-2.55 2.46,-2.63 2.04,-2.71 1.48,-2.82 0.81,-2.95 0.81,-3.53 c 0,-0.35 0.26,-0.76 1.12,-0.76 1.1,0 1.15,0.9 1.17,1.21 0.01,0.09 0.1,0.09 0.12,0.09 0.13,0 0.13,-0.05 0.13,-0.24 v -1.01 c 0,-0.17 0,-0.24 -0.11,-0.24 -0.05,0 -0.07,0 -0.2,0.12 -0.03,0.04 -0.13,0.13 -0.17,0.16 -0.38,-0.28 -0.79,-0.28 -0.94,-0.28 -1.22,0 -1.6,0.67 -1.6,1.23 0,0.35 0.16,0.63 0.43,0.85 0.32,0.26 0.6,0.32 1.32,0.46 z"
           id="equation_06_10" />
      </defs>
      <g
         id="equation_06_g">
        <use
           height="1052.3622"
           width="744.09448"
           x="77"
           xlink:href="#equation_06_02"
           y="63"
           id="use7437" />
        <use
           height="1052.3622"
           width="744.09448"
           x="84.222198"
           xlink:href="#equation_06_06"
           y="63"
           id="use7439" />
        <use
           height="1052.3622"
           width="744.09448"
           x="87"
           xlink:href="#equation_06_07"
           y="63"
           id="use7441" />
        <use
           height="1052.3622"
           width="744.09448"
           x="92"
           xlink:href="#equation_06_10"
           y="63"
           id="use7443" />
        <use
           height="1052.3622"
           width="744.09448"
           x="95.944504"
           xlink:href="#equation_06_04"
           y="63"
           id="use7445" />
        <use
           height="1052.3622"
           width="744.09448"
           x="103.722"
           xlink:href="#equation_06_08"
           y="63"
           id="use7447" />
        <use
           height="1052.3622"
           width="744.09448"
           x="109.278"
           xlink:href="#equation_06_09"
           y="63"
           id="use7449" />
        <use
           height="1052.3622"
           width="744.09448"
           x="113.195"
           xlink:href="#equation_06_05"
           y="63"
           id="use7451" />
        <use
           height="1052.3622"
           width="744.09448"
           x="115.972"
           xlink:href="#equation_06_03"
           y="63"
           id="use7453" />
        <use
           height="1052.3622"
           width="744.09448"
           x="120.417"
           xlink:href="#equation_06_04"
           y="63"
           id="use7455" />
        <use
           height="1052.3622"
           width="744.09448"
           x="128.19501"
           xlink:href="#equation_06_00"
           y="63"
           id="use7457" />
        <use
           height="1052.3622"
           width="744.09448"
           x="132.08299"
           xlink:href="#equation_06_02"
           y="63"
           id="use7459" />
        <use
           height="1052.3622"
           width="744.09448"
           x="139.306"
           xlink:href="#equation_06_01"
           y="63"
           id="use7461" />
      </g>
    </g>
    <path
       inkscape:connector-curvature="0"
       id="path7581"
       d="m 139.28571,141.6479 158.57143,85"
       style="fill:none;stroke:#000000;stroke-width:1.5;stroke-linecap:butt;stroke-linejoin:miter;stroke-opacity:1;stroke-miterlimit:4;stroke-dasharray:6,6;stroke-dashoffset:0" />
    <path
       inkscape:connector-curvature="0"
       id="path7583"
       d="m 346.13647,228.23879 -46.9158,-0.75321"
       style="fill:none;stroke:#000000;stroke-width:1.5;stroke-linecap:butt;stroke-linejoin:miter;stroke-miterlimit:4;stroke-opacity:1;stroke-dasharray:none" />
    <g
       title="$z_i = C_i - C_{i+1}$"
       style="fill:#000000"
       id="equation_07"
       transform="matrix(1.3550555,0,0,1.3550555,197.75177,104.58994)">
      <defs
         id="defs7707">
        <path
           id="equation_07_00"
           d="m 7.6,-6.95 c 0,-0.03 -0.02,-0.1 -0.11,-0.1 -0.03,0 -0.04,0.01 -0.15,0.12 l -0.7,0.77 C 6.55,-6.3 6.09,-7.05 4.98,-7.05 c -2.23,0 -4.48,2.21 -4.48,4.53 0,1.65 1.18,2.74 2.71,2.74 0.87,0 1.63,-0.4 2.16,-0.86 0.93,-0.82 1.1,-1.73 1.1,-1.76 0,-0.1 -0.1,-0.1 -0.12,-0.1 -0.06,0 -0.11,0.02 -0.13,0.1 -0.09,0.29 -0.32,1 -1.01,1.58 -0.69,0.56 -1.32,0.73 -1.84,0.73 -0.9,0 -1.96,-0.52 -1.96,-2.08 0,-0.57 0.21,-2.19 1.21,-3.36 0.61,-0.71 1.55,-1.21 2.44,-1.21 1.02,0 1.61,0.77 1.61,1.93 0,0.4 -0.03,0.41 -0.03,0.51 0,0.1 0.11,0.1 0.15,0.1 0.13,0 0.13,-0.02 0.18,-0.2 L 7.6,-6.95 z"
           inkscape:connector-curvature="0" />
        <path
           id="equation_07_01"
           d="m 1.33,-0.83 c 0.54,-0.58 0.83,-0.83 1.19,-1.14 0,-0.01 0.62,-0.54 0.98,-0.9 0.95,-0.93 1.17,-1.41 1.17,-1.45 0,-0.1 -0.09,-0.1 -0.11,-0.1 -0.07,0 -0.1,0.02 -0.15,0.11 -0.3,0.48 -0.51,0.64 -0.75,0.64 -0.24,0 -0.36,-0.15 -0.51,-0.32 -0.19,-0.23 -0.36,-0.43 -0.69,-0.43 -0.75,0 -1.21,0.93 -1.21,1.14 0,0.05 0.03,0.11 0.12,0.11 0.09,0 0.11,-0.05 0.13,-0.11 0.19,-0.46 0.77,-0.47 0.85,-0.47 0.21,0 0.4,0.07 0.63,0.15 0.4,0.15 0.51,0.15 0.77,0.15 -0.36,0.43 -1.2,1.15 -1.39,1.31 l -0.9,0.84 c -0.68,0.67 -1.03,1.24 -1.03,1.31 0,0.1 0.1,0.1 0.12,0.1 0.08,0 0.1,-0.02 0.16,-0.13 0.23,-0.35 0.53,-0.62 0.85,-0.62 0.23,0 0.33,0.09 0.58,0.38 0.17,0.21 0.35,0.37 0.64,0.37 0.99,0 1.57,-1.27 1.57,-1.54 0,-0.05 -0.04,-0.1 -0.12,-0.1 -0.09,0 -0.11,0.06 -0.14,0.13 -0.23,0.65 -0.87,0.84 -1.2,0.84 -0.2,0 -0.38,-0.06 -0.59,-0.13 -0.34,-0.13 -0.49,-0.17 -0.7,-0.17 -0.02,0 -0.18,0 -0.27,0.03 z"
           inkscape:connector-curvature="0" />
        <path
           id="equation_07_02"
           d="m 2.268,-4.375 c 0,-0.112 -0.084,-0.266 -0.28,-0.266 -0.189,0 -0.392,0.182 -0.392,0.385 0,0.119 0.091,0.266 0.28,0.266 0.203,0 0.392,-0.196 0.392,-0.385 z M 0.84,-0.819 c -0.028,0.091 -0.063,0.175 -0.063,0.294 0,0.329 0.28,0.595 0.665,0.595 0.7,0 1.008,-0.966 1.008,-1.071 0,-0.091 -0.091,-0.091 -0.112,-0.091 -0.098,0 -0.105,0.042 -0.133,0.119 -0.161,0.56 -0.469,0.847 -0.742,0.847 -0.14,0 -0.175,-0.091 -0.175,-0.245 0,-0.161 0.049,-0.294 0.112,-0.448 0.07,-0.189 0.147,-0.378 0.224,-0.56 0.063,-0.168 0.315,-0.805 0.343,-0.889 0.021,-0.07 0.042,-0.154 0.042,-0.224 0,-0.329 -0.28,-0.595 -0.665,-0.595 -0.693,0 -1.015,0.952 -1.015,1.071 0,0.091 0.098,0.091 0.119,0.091 0.098,0 0.105,-0.035 0.126,-0.112 0.182,-0.602 0.49,-0.854 0.749,-0.854 0.112,0 0.175,0.056 0.175,0.245 0,0.161 -0.042,0.266 -0.217,0.7 L 0.84,-0.819 z"
           inkscape:connector-curvature="0" />
        <path
           id="equation_07_03"
           d="m 6.59,-2.3 c 0.17,0 0.35,0 0.35,-0.2 0,-0.2 -0.18,-0.2 -0.35,-0.2 H 1.18 c -0.17,0 -0.35,0 -0.35,0.2 0,0.2 0.18,0.2 0.35,0.2 h 5.41 z"
           inkscape:connector-curvature="0" />
        <path
           id="equation_07_04"
           d="m 6.87,-3.27 c 0.15,0 0.34,0 0.34,-0.2 0,-0.2 -0.19,-0.2 -0.33,-0.2 H 0.89 c -0.14,0 -0.33,0 -0.33,0.2 0,0.2 0.19,0.2 0.34,0.2 h 5.97 z m 0.01,1.94 c 0.14,0 0.33,0 0.33,-0.2 0,-0.2 -0.19,-0.2 -0.34,-0.2 H 0.9 c -0.15,0 -0.34,0 -0.34,0.2 0,0.2 0.19,0.2 0.33,0.2 h 5.99 z"
           inkscape:connector-curvature="0" />
        <path
           id="equation_07_05"
           d="m 3.241,-1.582 h 2.142 c 0.091,0 0.259,0 0.259,-0.168 0,-0.175 -0.161,-0.175 -0.259,-0.175 H 3.241 v -2.149 c 0,-0.091 0,-0.259 -0.168,-0.259 -0.175,0 -0.175,0.161 -0.175,0.259 v 2.149 H 0.749 c -0.091,0 -0.259,0 -0.259,0.168 0,0.175 0.161,0.175 0.259,0.175 h 2.149 v 2.149 c 0,0.091 0,0.259 0.168,0.259 0.175,0 0.175,-0.161 0.175,-0.259 v -2.149 z"
           inkscape:connector-curvature="0" />
        <path
           id="equation_07_06"
           d="m 2.345,-4.452 c 0,-0.189 -0.014,-0.196 -0.21,-0.196 C 1.687,-4.207 1.05,-4.2 0.763,-4.2 v 0.252 c 0.168,0 0.63,0 1.015,-0.196 v 3.57 c 0,0.231 0,0.322 -0.7,0.322 H 0.812 V 0 c 0.126,-0.007 0.987,-0.028 1.246,-0.028 0.217,0 1.099,0.021 1.253,0.028 V -0.252 H 3.045 c -0.7,0 -0.7,-0.091 -0.7,-0.322 v -3.878 z"
           inkscape:connector-curvature="0" />
      </defs>
      <g
         id="equation_07_g">
        <use
           id="use7717"
           y="63"
           xlink:href="#equation_07_01"
           x="77"
           width="744.09448"
           height="1052.3622" />
        <use
           id="use7719"
           y="64.5"
           xlink:href="#equation_07_02"
           x="81.650497"
           width="744.09448"
           height="1052.3622" />
        <use
           id="use7721"
           y="63"
           xlink:href="#equation_07_04"
           x="87.7575"
           width="744.09448"
           height="1052.3622" />
        <use
           id="use7723"
           y="63"
           xlink:href="#equation_07_00"
           x="98.313004"
           width="744.09448"
           height="1052.3622" />
        <use
           id="use7725"
           y="64.5"
           xlink:href="#equation_07_02"
           x="105.46"
           width="744.09448"
           height="1052.3622" />
        <use
           id="use7727"
           y="63"
           xlink:href="#equation_07_03"
           x="111.012"
           width="744.09448"
           height="1052.3622" />
        <use
           id="use7729"
           y="63"
           xlink:href="#equation_07_00"
           x="121.012"
           width="744.09448"
           height="1052.3622" />
        <use
           id="use7731"
           y="64.5"
           xlink:href="#equation_07_02"
           x="128.159"
           width="744.09448"
           height="1052.3622" />
        <use
           id="use7733"
           y="64.5"
           xlink:href="#equation_07_05"
           x="130.98801"
           width="744.09448"
           height="1052.3622" />
        <use
           id="use7735"
           y="64.5"
           xlink:href="#equation_07_06"
           x="137.127"
           width="744.09448"
           height="1052.3622" />
      </g>
    </g>
  </g>
</svg>
