<?xml version="1.0" encoding="UTF-8" standalone="no"?>
<!-- Created with Inkscape (http://www.inkscape.org/) -->

<svg
   xmlns:dc="http://purl.org/dc/elements/1.1/"
   xmlns:cc="http://creativecommons.org/ns#"
   xmlns:rdf="http://www.w3.org/1999/02/22-rdf-syntax-ns#"
   xmlns:svg="http://www.w3.org/2000/svg"
   xmlns="http://www.w3.org/2000/svg"
   xmlns:xlink="http://www.w3.org/1999/xlink"
   xmlns:sodipodi="http://sodipodi.sourceforge.net/DTD/sodipodi-0.dtd"
   xmlns:inkscape="http://www.inkscape.org/namespaces/inkscape"
   width="744.09448819"
   height="1052.3622047"
   id="svg2"
   version="1.1"
   inkscape:version="0.48.4 r9939"
   sodipodi:docname="rys4.svg"
   inkscape:export-filename="D:\TEWI\figures_inkscape\rys4.png"
   inkscape:export-xdpi="196"
   inkscape:export-ydpi="196">
  <sodipodi:namedview
     id="base"
     pagecolor="#ffffff"
     bordercolor="#666666"
     borderopacity="1.0"
     inkscape:pageopacity="0.0"
     inkscape:pageshadow="2"
     inkscape:zoom="1.979899"
     inkscape:cx="297.30026"
     inkscape:cy="787.46414"
     inkscape:document-units="px"
     inkscape:current-layer="layer1"
     showgrid="false"
     inkscape:window-width="1538"
     inkscape:window-height="877"
     inkscape:window-x="-8"
     inkscape:window-y="-8"
     inkscape:window-maximized="1"
     showguides="true"
     inkscape:guide-bbox="true">
    <sodipodi:guide
       id="guide3057"
       position="200.51528,964.69568"
       orientation="0,1" />
    <sodipodi:guide
       id="guide3059"
       position="100,1082.8571"
       orientation="1,0" />
    <sodipodi:guide
       id="guide3061"
       position="400,1085"
       orientation="1,0" />
    <sodipodi:guide
       id="guide3063"
       position="357.08892,750.03827"
       orientation="0,1" />
    <sodipodi:guide
       orientation="1,0"
       position="346.07143,964.69568"
       id="guide6234" />
    <sodipodi:guide
       orientation="0,1"
       position="65.407377,781.10046"
       id="guide3099" />
  </sodipodi:namedview>
  <defs
     id="defs4">
    <marker
       style="overflow:visible"
       id="Arrow2Lstart"
       refX="0.0"
       refY="0.0"
       orient="auto"
       inkscape:stockid="Arrow2Lstart">
      <path
         transform="scale(1.1) translate(1,0)"
         d="M 8.7185878,4.0337352 L -2.2072895,0.016013256 L 8.7185884,-4.0017078 C 6.9730900,-1.6296469 6.9831476,1.6157441 8.7185878,4.0337352 z "
         style="fill-rule:evenodd;stroke-width:0.62500000;stroke-linejoin:round"
         id="path3857" />
    </marker>
    <marker
       style="overflow:visible;"
       id="Arrow2Lend"
       refX="0.0"
       refY="0.0"
       orient="auto"
       inkscape:stockid="Arrow2Lend">
      <path
         transform="scale(1.1) rotate(180) translate(1,0)"
         d="M 8.7185878,4.0337352 L -2.2072895,0.016013256 L 8.7185884,-4.0017078 C 6.9730900,-1.6296469 6.9831476,1.6157441 8.7185878,4.0337352 z "
         style="fill-rule:evenodd;stroke-width:0.62500000;stroke-linejoin:round;"
         id="path3860" />
    </marker>
    <marker
       style="overflow:visible;"
       id="Arrow1Mend"
       refX="0.0"
       refY="0.0"
       orient="auto"
       inkscape:stockid="Arrow1Mend">
      <path
         transform="scale(0.4) rotate(180) translate(10,0)"
         style="fill-rule:evenodd;stroke:#000000;stroke-width:1.0pt;"
         d="M 0.0,0.0 L 5.0,-5.0 L -12.5,0.0 L 5.0,5.0 L 0.0,0.0 z "
         id="path3848" />
    </marker>
    <marker
       style="overflow:visible;"
       id="Arrow2Mend"
       refX="0.0"
       refY="0.0"
       orient="auto"
       inkscape:stockid="Arrow2Mend">
      <path
         transform="scale(0.6) rotate(180) translate(0,0)"
         d="M 8.7185878,4.0337352 L -2.2072895,0.016013256 L 8.7185884,-4.0017078 C 6.9730900,-1.6296469 6.9831476,1.6157441 8.7185878,4.0337352 z "
         style="fill-rule:evenodd;stroke-width:0.62500000;stroke-linejoin:round;"
         id="path3866" />
    </marker>
    <marker
       style="overflow:visible;"
       id="Arrow1Lend"
       refX="0.0"
       refY="0.0"
       orient="auto"
       inkscape:stockid="Arrow1Lend">
      <path
         transform="scale(0.8) rotate(180) translate(12.5,0)"
         style="fill-rule:evenodd;stroke:#000000;stroke-width:1.0pt;"
         d="M 0.0,0.0 L 5.0,-5.0 L -12.5,0.0 L 5.0,5.0 L 0.0,0.0 z "
         id="path3842" />
    </marker>
    <marker
       style="overflow:visible"
       id="Arrow2Lend-9"
       refX="0"
       refY="0"
       orient="auto"
       inkscape:stockid="Arrow2Lend">
      <path
         inkscape:connector-curvature="0"
         transform="matrix(-1.1,0,0,-1.1,-1.1,0)"
         d="M 8.7185878,4.0337352 -2.2072895,0.01601326 8.7185884,-4.0017078 c -1.7454984,2.3720609 -1.7354408,5.6174519 -6e-7,8.035443 z"
         style="fill-rule:evenodd;stroke-width:0.625;stroke-linejoin:round"
         id="path3860-4" />
    </marker>
    <marker
       style="overflow:visible"
       id="Arrow2Lend-7"
       refX="0"
       refY="0"
       orient="auto"
       inkscape:stockid="Arrow2Lend">
      <path
         inkscape:connector-curvature="0"
         transform="matrix(-1.1,0,0,-1.1,-1.1,0)"
         d="M 8.7185878,4.0337352 -2.2072895,0.01601326 8.7185884,-4.0017078 c -1.7454984,2.3720609 -1.7354408,5.6174519 -6e-7,8.035443 z"
         style="fill-rule:evenodd;stroke-width:0.625;stroke-linejoin:round"
         id="path3860-40" />
    </marker>
    <marker
       style="overflow:visible"
       id="marker3170"
       refX="0"
       refY="0"
       orient="auto"
       inkscape:stockid="Arrow2Lend">
      <path
         inkscape:connector-curvature="0"
         transform="matrix(-1.1,0,0,-1.1,-1.1,0)"
         d="M 8.7185878,4.0337352 -2.2072895,0.01601326 8.7185884,-4.0017078 c -1.7454984,2.3720609 -1.7354408,5.6174519 -6e-7,8.035443 z"
         style="fill-rule:evenodd;stroke-width:0.625;stroke-linejoin:round"
         id="path3172" />
    </marker>
    <marker
       style="overflow:visible"
       id="Arrow2Lend-6"
       refX="0"
       refY="0"
       orient="auto"
       inkscape:stockid="Arrow2Lend">
      <path
         transform="matrix(-1.1,0,0,-1.1,-1.1,0)"
         d="M 8.7185878,4.0337352 -2.2072895,0.01601326 8.7185884,-4.0017078 c -1.7454984,2.3720609 -1.7354408,5.6174519 -6e-7,8.035443 z"
         style="fill-rule:evenodd;stroke-width:0.625;stroke-linejoin:round"
         id="path3860-8"
         inkscape:connector-curvature="0" />
    </marker>
    <marker
       style="overflow:visible"
       id="marker4381"
       refX="0"
       refY="0"
       orient="auto"
       inkscape:stockid="Arrow2Lend">
      <path
         transform="matrix(-1.1,0,0,-1.1,-1.1,0)"
         d="M 8.7185878,4.0337352 -2.2072895,0.01601326 8.7185884,-4.0017078 c -1.7454984,2.3720609 -1.7354408,5.6174519 -6e-7,8.035443 z"
         style="fill-rule:evenodd;stroke-width:0.625;stroke-linejoin:round"
         id="path4383"
         inkscape:connector-curvature="0" />
    </marker>
    <marker
       style="overflow:visible"
       id="Arrow2Lend-2"
       refX="0"
       refY="0"
       orient="auto"
       inkscape:stockid="Arrow2Lend">
      <path
         inkscape:connector-curvature="0"
         transform="matrix(-1.1,0,0,-1.1,-1.1,0)"
         d="M 8.7185878,4.0337352 -2.2072895,0.01601326 8.7185884,-4.0017078 c -1.7454984,2.3720609 -1.7354408,5.6174519 -6e-7,8.035443 z"
         style="fill-rule:evenodd;stroke-width:0.625;stroke-linejoin:round"
         id="path3860-7" />
    </marker>
  </defs>
  <metadata
     id="metadata7">
    <rdf:RDF>
      <cc:Work
         rdf:about="">
        <dc:format>image/svg+xml</dc:format>
        <dc:type
           rdf:resource="http://purl.org/dc/dcmitype/StillImage" />
        <dc:title></dc:title>
      </cc:Work>
    </rdf:RDF>
  </metadata>
  <g
     id="layer1"
     inkscape:groupmode="layer"
     inkscape:label="Layer 1">
    <path
       inkscape:connector-curvature="0"
       id="path3065"
       d="m 100.00019,302.40473 0,-213.863232"
       style="fill:none;stroke:#000000;stroke-width:1.11489761;stroke-linecap:butt;stroke-linejoin:miter;stroke-miterlimit:4;stroke-opacity:1;stroke-dasharray:none;marker-end:url(#Arrow2Lend)" />
    <path
       inkscape:connector-curvature="0"
       id="path5029"
       d="m 414.58979,302.36212 -314.57723,0"
       style="fill:none;stroke:#000000;stroke-width:1.15;stroke-linecap:butt;stroke-linejoin:miter;stroke-miterlimit:4;stroke-opacity:1;stroke-dasharray:none;marker-start:url(#Arrow2Lstart)" />
    <path
       inkscape:connector-curvature="0"
       id="path5223"
       d="m 127.57143,302.41224 0,-214.239706"
       style="fill:none;stroke:#000000;stroke-width:0.59987116;stroke-linecap:butt;stroke-linejoin:miter;stroke-miterlimit:4;stroke-opacity:1;stroke-dasharray:none" />
    <path
       inkscape:connector-curvature="0"
       id="path5223-1"
       d="m 287.28572,302.41154 0,-214.743379"
       style="fill:none;stroke:#000000;stroke-width:0.6012814;stroke-linecap:butt;stroke-linejoin:miter;stroke-miterlimit:4;stroke-opacity:1;stroke-dasharray:none" />
    <path
       inkscape:connector-curvature="0"
       id="path5256"
       d="m 127.64286,229.6479 218.15419,0"
       style="fill:none;stroke:#000000;stroke-width:0.60000002;stroke-linecap:butt;stroke-linejoin:miter;stroke-miterlimit:4;stroke-opacity:1;stroke-dasharray:none" />
    <path
       transform="translate(-80.487322,83.842661)"
       d="m 211.12188,145.49774 a 2.7779195,2.7779195 0 1 1 -5.55584,0 2.7779195,2.7779195 0 1 1 5.55584,0 z"
       sodipodi:ry="2.7779195"
       sodipodi:rx="2.7779195"
       sodipodi:cy="145.49774"
       sodipodi:cx="208.34396"
       id="path5258"
       style="stroke-width:0.60000002;stroke-miterlimit:4;stroke-dasharray:none"
       sodipodi:type="arc" />
    <path
       transform="translate(78.86424,-0.25254521)"
       d="m 211.12188,145.49774 a 2.7779195,2.7779195 0 1 1 -5.55584,0 2.7779195,2.7779195 0 1 1 5.55584,0 z"
       sodipodi:ry="2.7779195"
       sodipodi:rx="2.7779195"
       sodipodi:cy="145.49774"
       sodipodi:cx="208.34396"
       id="path5258-7"
       style="stroke-width:0.60000002;stroke-miterlimit:4;stroke-dasharray:none"
       sodipodi:type="arc" />
    <g
       title="$t$"
       style="fill:#000000"
       id="equation_00"
       transform="matrix(1.6475941,0,0,1.6475941,250.85804,212.87523)">
      <defs
         id="defs5306">
        <path
           id="equation_00_00"
           d="M 2.06,-4 H 3 c 0.2,0 0.3,0 0.3,-0.2 0,-0.11 -0.1,-0.11 -0.28,-0.11 H 2.14 c 0.36,-1.42 0.41,-1.62 0.41,-1.68 0,-0.17 -0.12,-0.27 -0.29,-0.27 -0.03,0 -0.31,0.01 -0.4,0.36 L 1.47,-4.31 H 0.53 c -0.2,0 -0.3,0 -0.3,0.19 C 0.23,-4 0.31,-4 0.51,-4 h 0.88 c -0.72,2.84 -0.76,3.01 -0.76,3.19 0,0.54 0.38,0.92 0.92,0.92 1.02,0 1.59,-1.46 1.59,-1.54 0,-0.1 -0.08,-0.1 -0.12,-0.1 -0.09,0 -0.1,0.03 -0.15,0.14 -0.43,1.04 -0.96,1.28 -1.3,1.28 -0.21,0 -0.31,-0.13 -0.31,-0.46 0,-0.24 0.02,-0.31 0.06,-0.48 L 2.06,-4 z"
           inkscape:connector-curvature="0" />
      </defs>
      <g
         id="equation_00_g">
        <use
           id="use5310"
           y="63"
           xlink:href="#equation_00_00"
           x="77"
           width="744.09448"
           height="1052.3622" />
      </g>
    </g>
    <g
       id="equation_01"
       style="fill:#000000"
       title="$t_i$"
       transform="matrix(1.5050762,0,0,1.7299728,8.310241,207.94948)">
      <defs
         id="defs5375">
        <path
           d="m 2.268,-4.375 c 0,-0.112 -0.084,-0.266 -0.28,-0.266 -0.189,0 -0.392,0.182 -0.392,0.385 0,0.119 0.091,0.266 0.28,0.266 0.203,0 0.392,-0.196 0.392,-0.385 z M 0.84,-0.819 c -0.028,0.091 -0.063,0.175 -0.063,0.294 0,0.329 0.28,0.595 0.665,0.595 0.7,0 1.008,-0.966 1.008,-1.071 0,-0.091 -0.091,-0.091 -0.112,-0.091 -0.098,0 -0.105,0.042 -0.133,0.119 -0.161,0.56 -0.469,0.847 -0.742,0.847 -0.14,0 -0.175,-0.091 -0.175,-0.245 0,-0.161 0.049,-0.294 0.112,-0.448 0.07,-0.189 0.147,-0.378 0.224,-0.56 0.063,-0.168 0.315,-0.805 0.343,-0.889 0.021,-0.07 0.042,-0.154 0.042,-0.224 0,-0.329 -0.28,-0.595 -0.665,-0.595 -0.693,0 -1.015,0.952 -1.015,1.071 0,0.091 0.098,0.091 0.119,0.091 0.098,0 0.105,-0.035 0.126,-0.112 0.182,-0.602 0.49,-0.854 0.749,-0.854 0.112,0 0.175,0.056 0.175,0.245 0,0.161 -0.042,0.266 -0.217,0.7 L 0.84,-0.819 z"
           id="equation_01_00"
           inkscape:connector-curvature="0" />
        <path
           d="M 2.06,-4 H 3 c 0.2,0 0.3,0 0.3,-0.2 0,-0.11 -0.1,-0.11 -0.28,-0.11 H 2.14 c 0.36,-1.42 0.41,-1.62 0.41,-1.68 0,-0.17 -0.12,-0.27 -0.29,-0.27 -0.03,0 -0.31,0.01 -0.4,0.36 L 1.47,-4.31 H 0.53 c -0.2,0 -0.3,0 -0.3,0.19 C 0.23,-4 0.31,-4 0.51,-4 h 0.88 c -0.72,2.84 -0.76,3.01 -0.76,3.19 0,0.54 0.38,0.92 0.92,0.92 1.02,0 1.59,-1.46 1.59,-1.54 0,-0.1 -0.08,-0.1 -0.12,-0.1 -0.09,0 -0.1,0.03 -0.15,0.14 -0.43,1.04 -0.96,1.28 -1.3,1.28 -0.21,0 -0.31,-0.13 -0.31,-0.46 0,-0.24 0.02,-0.31 0.06,-0.48 L 2.06,-4 z"
           id="equation_01_01"
           inkscape:connector-curvature="0" />
      </defs>
      <g
         id="equation_01_g">
        <use
           x="77"
           xlink:href="#equation_01_01"
           y="63"
           id="use5380"
           width="744.09448"
           height="1052.3622" />
        <use
           x="80.611099"
           xlink:href="#equation_01_00"
           y="64.5"
           id="use5382"
           width="744.09448"
           height="1052.3622" />
      </g>
    </g>
    <g
       title="$t_{i+1}$"
       style="fill:#000000"
       id="equation_02"
       transform="matrix(1.6127884,0,0,1.6905537,154.25704,209.68449)">
      <defs
         id="defs5461">
        <path
           id="equation_02_00"
           d="m 3.241,-1.582 h 2.142 c 0.091,0 0.259,0 0.259,-0.168 0,-0.175 -0.161,-0.175 -0.259,-0.175 H 3.241 v -2.149 c 0,-0.091 0,-0.259 -0.168,-0.259 -0.175,0 -0.175,0.161 -0.175,0.259 v 2.149 H 0.749 c -0.091,0 -0.259,0 -0.259,0.168 0,0.175 0.161,0.175 0.259,0.175 h 2.149 v 2.149 c 0,0.091 0,0.259 0.168,0.259 0.175,0 0.175,-0.161 0.175,-0.259 v -2.149 z"
           inkscape:connector-curvature="0" />
        <path
           id="equation_02_01"
           d="m 2.345,-4.452 c 0,-0.189 -0.014,-0.196 -0.21,-0.196 C 1.687,-4.207 1.05,-4.2 0.763,-4.2 v 0.252 c 0.168,0 0.63,0 1.015,-0.196 v 3.57 c 0,0.231 0,0.322 -0.7,0.322 H 0.812 V 0 c 0.126,-0.007 0.987,-0.028 1.246,-0.028 0.217,0 1.099,0.021 1.253,0.028 V -0.252 H 3.045 c -0.7,0 -0.7,-0.091 -0.7,-0.322 v -3.878 z"
           inkscape:connector-curvature="0" />
        <path
           id="equation_02_02"
           d="M 2.06,-4 H 3 c 0.2,0 0.3,0 0.3,-0.2 0,-0.11 -0.1,-0.11 -0.28,-0.11 H 2.14 c 0.36,-1.42 0.41,-1.62 0.41,-1.68 0,-0.17 -0.12,-0.27 -0.29,-0.27 -0.03,0 -0.31,0.01 -0.4,0.36 L 1.47,-4.31 H 0.53 c -0.2,0 -0.3,0 -0.3,0.19 C 0.23,-4 0.31,-4 0.51,-4 h 0.88 c -0.72,2.84 -0.76,3.01 -0.76,3.19 0,0.54 0.38,0.92 0.92,0.92 1.02,0 1.59,-1.46 1.59,-1.54 0,-0.1 -0.08,-0.1 -0.12,-0.1 -0.09,0 -0.1,0.03 -0.15,0.14 -0.43,1.04 -0.96,1.28 -1.3,1.28 -0.21,0 -0.31,-0.13 -0.31,-0.46 0,-0.24 0.02,-0.31 0.06,-0.48 L 2.06,-4 z"
           inkscape:connector-curvature="0" />
        <path
           id="equation_02_03"
           d="m 2.268,-4.375 c 0,-0.112 -0.084,-0.266 -0.28,-0.266 -0.189,0 -0.392,0.182 -0.392,0.385 0,0.119 0.091,0.266 0.28,0.266 0.203,0 0.392,-0.196 0.392,-0.385 z M 0.84,-0.819 c -0.028,0.091 -0.063,0.175 -0.063,0.294 0,0.329 0.28,0.595 0.665,0.595 0.7,0 1.008,-0.966 1.008,-1.071 0,-0.091 -0.091,-0.091 -0.112,-0.091 -0.098,0 -0.105,0.042 -0.133,0.119 -0.161,0.56 -0.469,0.847 -0.742,0.847 -0.14,0 -0.175,-0.091 -0.175,-0.245 0,-0.161 0.049,-0.294 0.112,-0.448 0.07,-0.189 0.147,-0.378 0.224,-0.56 0.063,-0.168 0.315,-0.805 0.343,-0.889 0.021,-0.07 0.042,-0.154 0.042,-0.224 0,-0.329 -0.28,-0.595 -0.665,-0.595 -0.693,0 -1.015,0.952 -1.015,1.071 0,0.091 0.098,0.091 0.119,0.091 0.098,0 0.105,-0.035 0.126,-0.112 0.182,-0.602 0.49,-0.854 0.749,-0.854 0.112,0 0.175,0.056 0.175,0.245 0,0.161 -0.042,0.266 -0.217,0.7 L 0.84,-0.819 z"
           inkscape:connector-curvature="0" />
      </defs>
      <g
         id="equation_02_g">
        <use
           id="use5468"
           y="63"
           xlink:href="#equation_02_02"
           x="77"
           width="744.09448"
           height="1052.3622" />
        <use
           id="use5470"
           y="64.5"
           xlink:href="#equation_02_03"
           x="80.611099"
           width="744.09448"
           height="1052.3622" />
        <use
           id="use5472"
           y="64.5"
           xlink:href="#equation_02_00"
           x="83.440399"
           width="744.09448"
           height="1052.3622" />
        <use
           id="use5474"
           y="64.5"
           xlink:href="#equation_02_01"
           x="89.5793"
           width="744.09448"
           height="1052.3622" />
      </g>
    </g>
    <g
       id="equation_03"
       style="fill:#000000"
       title="$C_i$"
       transform="matrix(1.4872876,0,0,1.4872876,-6.273908,128.16933)">
      <defs
         id="defs5575">
        <path
           d="m 7.6,-6.95 c 0,-0.03 -0.02,-0.1 -0.11,-0.1 -0.03,0 -0.04,0.01 -0.15,0.12 l -0.7,0.77 C 6.55,-6.3 6.09,-7.05 4.98,-7.05 c -2.23,0 -4.48,2.21 -4.48,4.53 0,1.65 1.18,2.74 2.71,2.74 0.87,0 1.63,-0.4 2.16,-0.86 0.93,-0.82 1.1,-1.73 1.1,-1.76 0,-0.1 -0.1,-0.1 -0.12,-0.1 -0.06,0 -0.11,0.02 -0.13,0.1 -0.09,0.29 -0.32,1 -1.01,1.58 -0.69,0.56 -1.32,0.73 -1.84,0.73 -0.9,0 -1.96,-0.52 -1.96,-2.08 0,-0.57 0.21,-2.19 1.21,-3.36 0.61,-0.71 1.55,-1.21 2.44,-1.21 1.02,0 1.61,0.77 1.61,1.93 0,0.4 -0.03,0.41 -0.03,0.51 0,0.1 0.11,0.1 0.15,0.1 0.13,0 0.13,-0.02 0.18,-0.2 L 7.6,-6.95 z"
           id="equation_03_00"
           inkscape:connector-curvature="0" />
        <path
           d="m 2.268,-4.375 c 0,-0.112 -0.084,-0.266 -0.28,-0.266 -0.189,0 -0.392,0.182 -0.392,0.385 0,0.119 0.091,0.266 0.28,0.266 0.203,0 0.392,-0.196 0.392,-0.385 z M 0.84,-0.819 c -0.028,0.091 -0.063,0.175 -0.063,0.294 0,0.329 0.28,0.595 0.665,0.595 0.7,0 1.008,-0.966 1.008,-1.071 0,-0.091 -0.091,-0.091 -0.112,-0.091 -0.098,0 -0.105,0.042 -0.133,0.119 -0.161,0.56 -0.469,0.847 -0.742,0.847 -0.14,0 -0.175,-0.091 -0.175,-0.245 0,-0.161 0.049,-0.294 0.112,-0.448 0.07,-0.189 0.147,-0.378 0.224,-0.56 0.063,-0.168 0.315,-0.805 0.343,-0.889 0.021,-0.07 0.042,-0.154 0.042,-0.224 0,-0.329 -0.28,-0.595 -0.665,-0.595 -0.693,0 -1.015,0.952 -1.015,1.071 0,0.091 0.098,0.091 0.119,0.091 0.098,0 0.105,-0.035 0.126,-0.112 0.182,-0.602 0.49,-0.854 0.749,-0.854 0.112,0 0.175,0.056 0.175,0.245 0,0.161 -0.042,0.266 -0.217,0.7 L 0.84,-0.819 z"
           id="equation_03_01"
           inkscape:connector-curvature="0" />
      </defs>
      <g
         id="equation_03_g">
        <use
           x="77"
           xlink:href="#equation_03_00"
           y="63"
           id="use5580"
           width="744.09448"
           height="1052.3622" />
        <use
           x="84.147202"
           xlink:href="#equation_03_01"
           y="64.5"
           id="use5582"
           width="744.09448"
           height="1052.3622" />
      </g>
    </g>
    <g
       title="$C_{i+1}$"
       style="fill:#000000"
       id="equation_04"
       transform="matrix(1.3469223,0,0,1.3469223,153.12894,51.169863)">
      <defs
         id="defs5697">
        <path
           id="equation_04_00"
           d="m 7.6,-6.95 c 0,-0.03 -0.02,-0.1 -0.11,-0.1 -0.03,0 -0.04,0.01 -0.15,0.12 l -0.7,0.77 C 6.55,-6.3 6.09,-7.05 4.98,-7.05 c -2.23,0 -4.48,2.21 -4.48,4.53 0,1.65 1.18,2.74 2.71,2.74 0.87,0 1.63,-0.4 2.16,-0.86 0.93,-0.82 1.1,-1.73 1.1,-1.76 0,-0.1 -0.1,-0.1 -0.12,-0.1 -0.06,0 -0.11,0.02 -0.13,0.1 -0.09,0.29 -0.32,1 -1.01,1.58 -0.69,0.56 -1.32,0.73 -1.84,0.73 -0.9,0 -1.96,-0.52 -1.96,-2.08 0,-0.57 0.21,-2.19 1.21,-3.36 0.61,-0.71 1.55,-1.21 2.44,-1.21 1.02,0 1.61,0.77 1.61,1.93 0,0.4 -0.03,0.41 -0.03,0.51 0,0.1 0.11,0.1 0.15,0.1 0.13,0 0.13,-0.02 0.18,-0.2 L 7.6,-6.95 z"
           inkscape:connector-curvature="0" />
        <path
           id="equation_04_01"
           d="m 3.241,-1.582 h 2.142 c 0.091,0 0.259,0 0.259,-0.168 0,-0.175 -0.161,-0.175 -0.259,-0.175 H 3.241 v -2.149 c 0,-0.091 0,-0.259 -0.168,-0.259 -0.175,0 -0.175,0.161 -0.175,0.259 v 2.149 H 0.749 c -0.091,0 -0.259,0 -0.259,0.168 0,0.175 0.161,0.175 0.259,0.175 h 2.149 v 2.149 c 0,0.091 0,0.259 0.168,0.259 0.175,0 0.175,-0.161 0.175,-0.259 v -2.149 z"
           inkscape:connector-curvature="0" />
        <path
           id="equation_04_02"
           d="m 2.345,-4.452 c 0,-0.189 -0.014,-0.196 -0.21,-0.196 C 1.687,-4.207 1.05,-4.2 0.763,-4.2 v 0.252 c 0.168,0 0.63,0 1.015,-0.196 v 3.57 c 0,0.231 0,0.322 -0.7,0.322 H 0.812 V 0 c 0.126,-0.007 0.987,-0.028 1.246,-0.028 0.217,0 1.099,0.021 1.253,0.028 V -0.252 H 3.045 c -0.7,0 -0.7,-0.091 -0.7,-0.322 v -3.878 z"
           inkscape:connector-curvature="0" />
        <path
           id="equation_04_03"
           d="m 2.268,-4.375 c 0,-0.112 -0.084,-0.266 -0.28,-0.266 -0.189,0 -0.392,0.182 -0.392,0.385 0,0.119 0.091,0.266 0.28,0.266 0.203,0 0.392,-0.196 0.392,-0.385 z M 0.84,-0.819 c -0.028,0.091 -0.063,0.175 -0.063,0.294 0,0.329 0.28,0.595 0.665,0.595 0.7,0 1.008,-0.966 1.008,-1.071 0,-0.091 -0.091,-0.091 -0.112,-0.091 -0.098,0 -0.105,0.042 -0.133,0.119 -0.161,0.56 -0.469,0.847 -0.742,0.847 -0.14,0 -0.175,-0.091 -0.175,-0.245 0,-0.161 0.049,-0.294 0.112,-0.448 0.07,-0.189 0.147,-0.378 0.224,-0.56 0.063,-0.168 0.315,-0.805 0.343,-0.889 0.021,-0.07 0.042,-0.154 0.042,-0.224 0,-0.329 -0.28,-0.595 -0.665,-0.595 -0.693,0 -1.015,0.952 -1.015,1.071 0,0.091 0.098,0.091 0.119,0.091 0.098,0 0.105,-0.035 0.126,-0.112 0.182,-0.602 0.49,-0.854 0.749,-0.854 0.112,0 0.175,0.056 0.175,0.245 0,0.161 -0.042,0.266 -0.217,0.7 L 0.84,-0.819 z"
           inkscape:connector-curvature="0" />
      </defs>
      <g
         id="equation_04_g">
        <use
           id="use5704"
           y="63"
           xlink:href="#equation_04_00"
           x="77"
           width="744.09448"
           height="1052.3622" />
        <use
           id="use5706"
           y="64.5"
           xlink:href="#equation_04_03"
           x="84.147202"
           width="744.09448"
           height="1052.3622" />
        <use
           id="use5708"
           y="64.5"
           xlink:href="#equation_04_01"
           x="86.976501"
           width="744.09448"
           height="1052.3622" />
        <use
           id="use5710"
           y="64.5"
           xlink:href="#equation_04_02"
           x="93.115402"
           width="744.09448"
           height="1052.3622" />
      </g>
    </g>
    <g
       id="equation_05"
       style="fill:#000000"
       title="$z_i = C_{i+1} - C_i$"
       transform="matrix(1.3550471,0,0,1.3550471,186.58794,104.60413)">
      <defs
         id="defs5847">
        <path
           d="m 6.59,-2.3 c 0.17,0 0.35,0 0.35,-0.2 0,-0.2 -0.18,-0.2 -0.35,-0.2 H 1.18 c -0.17,0 -0.35,0 -0.35,0.2 0,0.2 0.18,0.2 0.35,0.2 h 5.41 z"
           id="equation_05_00"
           inkscape:connector-curvature="0" />
        <path
           d="m 7.6,-6.95 c 0,-0.03 -0.02,-0.1 -0.11,-0.1 -0.03,0 -0.04,0.01 -0.15,0.12 l -0.7,0.77 C 6.55,-6.3 6.09,-7.05 4.98,-7.05 c -2.23,0 -4.48,2.21 -4.48,4.53 0,1.65 1.18,2.74 2.71,2.74 0.87,0 1.63,-0.4 2.16,-0.86 0.93,-0.82 1.1,-1.73 1.1,-1.76 0,-0.1 -0.1,-0.1 -0.12,-0.1 -0.06,0 -0.11,0.02 -0.13,0.1 -0.09,0.29 -0.32,1 -1.01,1.58 -0.69,0.56 -1.32,0.73 -1.84,0.73 -0.9,0 -1.96,-0.52 -1.96,-2.08 0,-0.57 0.21,-2.19 1.21,-3.36 0.61,-0.71 1.55,-1.21 2.44,-1.21 1.02,0 1.61,0.77 1.61,1.93 0,0.4 -0.03,0.41 -0.03,0.51 0,0.1 0.11,0.1 0.15,0.1 0.13,0 0.13,-0.02 0.18,-0.2 L 7.6,-6.95 z"
           id="equation_05_01"
           inkscape:connector-curvature="0" />
        <path
           d="m 1.33,-0.83 c 0.54,-0.58 0.83,-0.83 1.19,-1.14 0,-0.01 0.62,-0.54 0.98,-0.9 0.95,-0.93 1.17,-1.41 1.17,-1.45 0,-0.1 -0.09,-0.1 -0.11,-0.1 -0.07,0 -0.1,0.02 -0.15,0.11 -0.3,0.48 -0.51,0.64 -0.75,0.64 -0.24,0 -0.36,-0.15 -0.51,-0.32 -0.19,-0.23 -0.36,-0.43 -0.69,-0.43 -0.75,0 -1.21,0.93 -1.21,1.14 0,0.05 0.03,0.11 0.12,0.11 0.09,0 0.11,-0.05 0.13,-0.11 0.19,-0.46 0.77,-0.47 0.85,-0.47 0.21,0 0.4,0.07 0.63,0.15 0.4,0.15 0.51,0.15 0.77,0.15 -0.36,0.43 -1.2,1.15 -1.39,1.31 l -0.9,0.84 c -0.68,0.67 -1.03,1.24 -1.03,1.31 0,0.1 0.1,0.1 0.12,0.1 0.08,0 0.1,-0.02 0.16,-0.13 0.23,-0.35 0.53,-0.62 0.85,-0.62 0.23,0 0.33,0.09 0.58,0.38 0.17,0.21 0.35,0.37 0.64,0.37 0.99,0 1.57,-1.27 1.57,-1.54 0,-0.05 -0.04,-0.1 -0.12,-0.1 -0.09,0 -0.11,0.06 -0.14,0.13 -0.23,0.65 -0.87,0.84 -1.2,0.84 -0.2,0 -0.38,-0.06 -0.59,-0.13 -0.34,-0.13 -0.49,-0.17 -0.7,-0.17 -0.02,0 -0.18,0 -0.27,0.03 z"
           id="equation_05_02"
           inkscape:connector-curvature="0" />
        <path
           d="m 2.268,-4.375 c 0,-0.112 -0.084,-0.266 -0.28,-0.266 -0.189,0 -0.392,0.182 -0.392,0.385 0,0.119 0.091,0.266 0.28,0.266 0.203,0 0.392,-0.196 0.392,-0.385 z M 0.84,-0.819 c -0.028,0.091 -0.063,0.175 -0.063,0.294 0,0.329 0.28,0.595 0.665,0.595 0.7,0 1.008,-0.966 1.008,-1.071 0,-0.091 -0.091,-0.091 -0.112,-0.091 -0.098,0 -0.105,0.042 -0.133,0.119 -0.161,0.56 -0.469,0.847 -0.742,0.847 -0.14,0 -0.175,-0.091 -0.175,-0.245 0,-0.161 0.049,-0.294 0.112,-0.448 0.07,-0.189 0.147,-0.378 0.224,-0.56 0.063,-0.168 0.315,-0.805 0.343,-0.889 0.021,-0.07 0.042,-0.154 0.042,-0.224 0,-0.329 -0.28,-0.595 -0.665,-0.595 -0.693,0 -1.015,0.952 -1.015,1.071 0,0.091 0.098,0.091 0.119,0.091 0.098,0 0.105,-0.035 0.126,-0.112 0.182,-0.602 0.49,-0.854 0.749,-0.854 0.112,0 0.175,0.056 0.175,0.245 0,0.161 -0.042,0.266 -0.217,0.7 L 0.84,-0.819 z"
           id="equation_05_03"
           inkscape:connector-curvature="0" />
        <path
           d="m 3.241,-1.582 h 2.142 c 0.091,0 0.259,0 0.259,-0.168 0,-0.175 -0.161,-0.175 -0.259,-0.175 H 3.241 v -2.149 c 0,-0.091 0,-0.259 -0.168,-0.259 -0.175,0 -0.175,0.161 -0.175,0.259 v 2.149 H 0.749 c -0.091,0 -0.259,0 -0.259,0.168 0,0.175 0.161,0.175 0.259,0.175 h 2.149 v 2.149 c 0,0.091 0,0.259 0.168,0.259 0.175,0 0.175,-0.161 0.175,-0.259 v -2.149 z"
           id="equation_05_04"
           inkscape:connector-curvature="0" />
        <path
           d="m 2.345,-4.452 c 0,-0.189 -0.014,-0.196 -0.21,-0.196 C 1.687,-4.207 1.05,-4.2 0.763,-4.2 v 0.252 c 0.168,0 0.63,0 1.015,-0.196 v 3.57 c 0,0.231 0,0.322 -0.7,0.322 H 0.812 V 0 c 0.126,-0.007 0.987,-0.028 1.246,-0.028 0.217,0 1.099,0.021 1.253,0.028 V -0.252 H 3.045 c -0.7,0 -0.7,-0.091 -0.7,-0.322 v -3.878 z"
           id="equation_05_05"
           inkscape:connector-curvature="0" />
        <path
           d="m 6.87,-3.27 c 0.15,0 0.34,0 0.34,-0.2 0,-0.2 -0.19,-0.2 -0.33,-0.2 H 0.89 c -0.14,0 -0.33,0 -0.33,0.2 0,0.2 0.19,0.2 0.34,0.2 h 5.97 z m 0.01,1.94 c 0.14,0 0.33,0 0.33,-0.2 0,-0.2 -0.19,-0.2 -0.34,-0.2 H 0.9 c -0.15,0 -0.34,0 -0.34,0.2 0,0.2 0.19,0.2 0.33,0.2 h 5.99 z"
           id="equation_05_06"
           inkscape:connector-curvature="0" />
      </defs>
      <g
         id="equation_05_g">
        <use
           x="77"
           xlink:href="#equation_05_02"
           y="63"
           id="use5857"
           width="744.09448"
           height="1052.3622" />
        <use
           x="81.650497"
           xlink:href="#equation_05_03"
           y="64.5"
           id="use5859"
           width="744.09448"
           height="1052.3622" />
        <use
           x="87.7575"
           xlink:href="#equation_05_06"
           y="63"
           id="use5861"
           width="744.09448"
           height="1052.3622" />
        <use
           x="98.313004"
           xlink:href="#equation_05_01"
           y="63"
           id="use5863"
           width="744.09448"
           height="1052.3622" />
        <use
           x="105.46"
           xlink:href="#equation_05_03"
           y="64.5"
           id="use5865"
           width="744.09448"
           height="1052.3622" />
        <use
           x="108.29"
           xlink:href="#equation_05_04"
           y="64.5"
           id="use5867"
           width="744.09448"
           height="1052.3622" />
        <use
           x="114.428"
           xlink:href="#equation_05_05"
           y="64.5"
           id="use5869"
           width="744.09448"
           height="1052.3622" />
        <use
           x="121.137"
           xlink:href="#equation_05_00"
           y="63"
           id="use5871"
           width="744.09448"
           height="1052.3622" />
        <use
           x="131.13699"
           xlink:href="#equation_05_01"
           y="63"
           id="use5873"
           width="744.09448"
           height="1052.3622" />
        <use
           x="138.284"
           xlink:href="#equation_05_03"
           y="64.5"
           id="use5875"
           width="744.09448"
           height="1052.3622" />
      </g>
    </g>
    <path
       style="fill:none;stroke:#000000;stroke-width:1px;stroke-linecap:butt;stroke-linejoin:miter;stroke-opacity:1;marker-end:url(#Arrow2Lend)"
       d="m 334.07143,174.53962 0,-27.27412"
       id="path6265"
       inkscape:connector-curvature="0" />
    <path
       style="fill:none;stroke:#000000;stroke-width:1px;stroke-linecap:butt;stroke-linejoin:miter;stroke-opacity:1;marker-end:url(#Arrow2Lend)"
       d="m 333.48979,198.36927 0,27.27412"
       id="path6265-8"
       inkscape:connector-curvature="0" />
    <g
       title="$\text{Close price  (C)}$"
       style="fill:#000000"
       id="equation_06"
       transform="matrix(0,-1.5193921,1.5193921,0,-3.2811022,325.37633)">
      <defs
         id="defs7423">
        <path
           id="equation_06_00"
           d="M 3.31,2.4 C 3.31,2.37 3.31,2.35 3.14,2.18 1.89,0.92 1.57,-0.97 1.57,-2.5 c 0,-1.74 0.38,-3.48 1.61,-4.73 0.13,-0.12 0.13,-0.14 0.13,-0.17 0,-0.07 -0.04,-0.1 -0.1,-0.1 -0.1,0 -1,0.68 -1.59,1.95 -0.51,1.1 -0.63,2.21 -0.63,3.05 0,0.78 0.11,1.99 0.66,3.12 0.6,1.23 1.46,1.88 1.56,1.88 0.06,0 0.1,-0.03 0.1,-0.1 z"
           inkscape:connector-curvature="0" />
        <path
           id="equation_06_01"
           d="M 2.89,-2.5 C 2.89,-3.28 2.78,-4.49 2.23,-5.62 1.63,-6.85 0.77,-7.5 0.67,-7.5 c -0.06,0 -0.1,0.04 -0.1,0.1 0,0.03 0,0.05 0.19,0.23 0.98,0.99 1.55,2.58 1.55,4.67 0,1.71 -0.37,3.47 -1.61,4.73 -0.13,0.12 -0.13,0.14 -0.13,0.17 0,0.06 0.04,0.1 0.1,0.1 0.1,0 1,-0.68 1.59,-1.95 0.51,-1.1 0.63,-2.21 0.63,-3.05 z"
           inkscape:connector-curvature="0" />
        <path
           id="equation_06_02"
           d="m 0.56,-3.42 c 0,2.07 1.62,3.64 3.48,3.64 1.63,0 2.61,-1.39 2.61,-2.55 0,-0.1 0,-0.17 -0.13,-0.17 -0.11,0 -0.11,0.06 -0.12,0.16 -0.08,1.43 -1.15,2.25 -2.24,2.25 -0.61,0 -2.57,-0.34 -2.57,-3.32 0,-2.99 1.95,-3.33 2.56,-3.33 1.09,0 1.98,0.91 2.18,2.37 0.02,0.14 0.02,0.17 0.16,0.17 0.16,0 0.16,-0.03 0.16,-0.24 v -2.37 c 0,-0.17 0,-0.24 -0.11,-0.24 -0.04,0 -0.08,0 -0.16,0.12 l -0.5,0.74 C 5.51,-6.55 5,-7.05 4.04,-7.05 c -1.87,0 -3.48,1.59 -3.48,3.63 z"
           inkscape:connector-curvature="0" />
        <path
           id="equation_06_03"
           d="m 1.17,-2.18 c 0,-1.63 0.82,-2.05 1.35,-2.05 0.09,0 0.72,0.01 1.07,0.37 -0.41,0.03 -0.47,0.33 -0.47,0.46 0,0.26 0.18,0.46 0.46,0.46 0.26,0 0.46,-0.17 0.46,-0.47 0,-0.68 -0.76,-1.07 -1.53,-1.07 -1.25,0 -2.17,1.08 -2.17,2.32 0,1.28 0.99,2.27 2.15,2.27 1.34,0 1.66,-1.2 1.66,-1.3 0,-0.1 -0.1,-0.1 -0.13,-0.1 -0.09,0 -0.11,0.04 -0.13,0.1 -0.29,0.93 -0.94,1.05 -1.31,1.05 -0.53,0 -1.41,-0.43 -1.41,-2.04 z"
           inkscape:connector-curvature="0" />
        <path
           id="equation_06_04"
           d="m 1.12,-2.52 c 0.06,-1.49 0.9,-1.74 1.24,-1.74 1.03,0 1.13,1.35 1.13,1.74 H 1.12 z M 1.11,-2.31 H 3.9 c 0.22,0 0.25,0 0.25,-0.21 0,-0.99 -0.54,-1.96 -1.79,-1.96 -1.16,0 -2.08,1.03 -2.08,2.28 0,1.34 1.05,2.31 2.2,2.31 1.22,0 1.67,-1.11 1.67,-1.3 0,-0.1 -0.08,-0.12 -0.13,-0.12 -0.09,0 -0.11,0.06 -0.13,0.14 -0.35,1.03 -1.25,1.03 -1.35,1.03 -0.5,0 -0.9,-0.3 -1.13,-0.67 -0.3,-0.48 -0.3,-1.14 -0.3,-1.5 z"
           inkscape:connector-curvature="0" />
        <path
           id="equation_06_05"
           d="m 1.77,-4.42 -1.4,0.11 V -4 c 0.65,0 0.74,0.06 0.74,0.55 v 2.69 c 0,0.45 -0.11,0.45 -0.78,0.45 V 0 c 0.32,-0.01 0.86,-0.03 1.1,-0.03 0.35,0 0.7,0.02 1.04,0.03 v -0.31 c -0.66,0 -0.7,-0.05 -0.7,-0.44 v -3.67 z m 0.04,-1.74 c 0,-0.32 -0.25,-0.53 -0.53,-0.53 -0.31,0 -0.53,0.27 -0.53,0.53 0,0.27 0.22,0.53 0.53,0.53 0.28,0 0.53,-0.21 0.53,-0.53 z"
           inkscape:connector-curvature="0" />
        <path
           id="equation_06_06"
           d="m 1.77,-6.94 -1.44,0.11 v 0.31 c 0.7,0 0.78,0.07 0.78,0.56 v 5.2 c 0,0.45 -0.11,0.45 -0.78,0.45 V 0 c 0.33,-0.01 0.86,-0.03 1.11,-0.03 0.25,0 0.74,0.02 1.11,0.03 v -0.31 c -0.67,0 -0.78,0 -0.78,-0.45 v -6.18 z"
           inkscape:connector-curvature="0" />
        <path
           id="equation_06_07"
           d="m 4.71,-2.14 c 0,-1.28 -1,-2.34 -2.21,-2.34 -1.25,0 -2.22,1.09 -2.22,2.34 0,1.29 1.04,2.25 2.21,2.25 1.21,0 2.22,-0.98 2.22,-2.25 z m -2.21,2 c -0.43,0 -0.87,-0.21 -1.14,-0.67 -0.25,-0.44 -0.25,-1.05 -0.25,-1.41 0,-0.39 0,-0.93 0.24,-1.37 0.27,-0.46 0.74,-0.67 1.14,-0.67 0.44,0 0.87,0.22 1.13,0.65 0.26,0.43 0.26,1.01 0.26,1.39 0,0.36 0,0.9 -0.22,1.34 C 3.44,-0.43 3,-0.14 2.5,-0.14 z"
           inkscape:connector-curvature="0" />
        <path
           id="equation_06_08"
           d="M 1.72,-3.76 V -4.42 L 0.28,-4.31 V -4 c 0.71,0 0.78,0.06 0.78,0.5 v 4.68 c 0,0.45 -0.11,0.45 -0.78,0.45 V 1.94 C 0.62,1.93 1.14,1.91 1.4,1.91 c 0.27,0 0.78,0.02 1.13,0.03 V 1.63 c -0.67,0 -0.78,0 -0.78,-0.45 V -0.5 -0.59 c 0.05,0.16 0.47,0.7 1.23,0.7 1.19,0 2.23,-0.98 2.23,-2.27 0,-1.27 -0.97,-2.26 -2.09,-2.26 -0.78,0 -1.2,0.44 -1.4,0.66 z m 0.03,2.62 v -2.23 c 0.29,-0.51 0.78,-0.8 1.29,-0.8 0.73,0 1.34,0.88 1.34,2.01 0,1.21 -0.7,2.05 -1.44,2.05 -0.4,0 -0.78,-0.2 -1.05,-0.61 C 1.75,-0.93 1.75,-0.94 1.75,-1.14 z"
           inkscape:connector-curvature="0" />
        <path
           id="equation_06_09"
           d="m 1.67,-3.32 v -1.1 L 0.28,-4.31 V -4 c 0.7,0 0.78,0.07 0.78,0.56 v 2.68 c 0,0.45 -0.11,0.45 -0.78,0.45 V 0 c 0.39,-0.01 0.86,-0.03 1.14,-0.03 0.4,0 0.87,0 1.27,0.03 V -0.31 H 2.48 c -0.74,0 -0.76,-0.11 -0.76,-0.47 v -1.54 c 0,-0.99 0.42,-1.88 1.18,-1.88 0.07,0 0.09,0 0.11,0.01 -0.03,0.01 -0.23,0.13 -0.23,0.39 0,0.28 0.21,0.43 0.43,0.43 0.18,0 0.43,-0.12 0.43,-0.44 0,-0.32 -0.31,-0.61 -0.74,-0.61 -0.73,0 -1.09,0.67 -1.23,1.1 z"
           inkscape:connector-curvature="0" />
        <path
           id="equation_06_10"
           d="m 2.08,-1.94 c 0.22,0.04 1.04,0.2 1.04,0.92 0,0.51 -0.35,0.91 -1.13,0.91 -0.84,0 -1.2,-0.57 -1.39,-1.42 C 0.57,-1.66 0.56,-1.7 0.46,-1.7 c -0.13,0 -0.13,0.07 -0.13,0.25 v 1.32 c 0,0.17 0,0.24 0.11,0.24 0.05,0 0.06,-0.01 0.25,-0.2 0.02,-0.02 0.02,-0.04 0.2,-0.23 0.44,0.42 0.89,0.43 1.1,0.43 1.15,0 1.61,-0.67 1.61,-1.39 C 3.6,-1.81 3.3,-2.11 3.18,-2.23 2.85,-2.55 2.46,-2.63 2.04,-2.71 1.48,-2.82 0.81,-2.95 0.81,-3.53 c 0,-0.35 0.26,-0.76 1.12,-0.76 1.1,0 1.15,0.9 1.17,1.21 0.01,0.09 0.1,0.09 0.12,0.09 0.13,0 0.13,-0.05 0.13,-0.24 v -1.01 c 0,-0.17 0,-0.24 -0.11,-0.24 -0.05,0 -0.07,0 -0.2,0.12 -0.03,0.04 -0.13,0.13 -0.17,0.16 -0.38,-0.28 -0.79,-0.28 -0.94,-0.28 -1.22,0 -1.6,0.67 -1.6,1.23 0,0.35 0.16,0.63 0.43,0.85 0.32,0.26 0.6,0.32 1.32,0.46 z"
           inkscape:connector-curvature="0" />
      </defs>
      <g
         id="equation_06_g">
        <use
           id="use7437"
           y="63"
           xlink:href="#equation_06_02"
           x="77"
           width="744.09448"
           height="1052.3622" />
        <use
           id="use7439"
           y="63"
           xlink:href="#equation_06_06"
           x="84.222198"
           width="744.09448"
           height="1052.3622" />
        <use
           id="use7441"
           y="63"
           xlink:href="#equation_06_07"
           x="87"
           width="744.09448"
           height="1052.3622" />
        <use
           id="use7443"
           y="63"
           xlink:href="#equation_06_10"
           x="92"
           width="744.09448"
           height="1052.3622" />
        <use
           id="use7445"
           y="63"
           xlink:href="#equation_06_04"
           x="95.944504"
           width="744.09448"
           height="1052.3622" />
        <use
           id="use7447"
           y="63"
           xlink:href="#equation_06_08"
           x="103.722"
           width="744.09448"
           height="1052.3622" />
        <use
           id="use7449"
           y="63"
           xlink:href="#equation_06_09"
           x="109.278"
           width="744.09448"
           height="1052.3622" />
        <use
           id="use7451"
           y="63"
           xlink:href="#equation_06_05"
           x="113.195"
           width="744.09448"
           height="1052.3622" />
        <use
           id="use7453"
           y="63"
           xlink:href="#equation_06_03"
           x="115.972"
           width="744.09448"
           height="1052.3622" />
        <use
           id="use7455"
           y="63"
           xlink:href="#equation_06_04"
           x="120.417"
           width="744.09448"
           height="1052.3622" />
        <use
           id="use7457"
           y="63"
           xlink:href="#equation_06_00"
           x="128.19501"
           width="744.09448"
           height="1052.3622" />
        <use
           id="use7459"
           y="63"
           xlink:href="#equation_06_02"
           x="132.08299"
           width="744.09448"
           height="1052.3622" />
        <use
           id="use7461"
           y="63"
           xlink:href="#equation_06_01"
           x="139.306"
           width="744.09448"
           height="1052.3622" />
      </g>
    </g>
    <path
       style="fill:none;stroke:#000000;stroke-width:1px;stroke-linecap:butt;stroke-linejoin:miter;stroke-opacity:1"
       d="m 112.21636,232.91802 1.72267,-0.93172 1.47013,1.62522 1.94364,-2.22598 0.96506,1.5621 2.73282,-6.04562 1.75424,1.97246 1.6911,-2.19441 1.5017,-1.21583 2.10137,2.07954 0.29033,0.52616 0.47092,0.84297 0.64089,1.132 0.80025,1.39326 0.94898,1.62672 1.46592,-0.94552 -1.325,0.19613 -0.43625,0.6452 1.43779,-1.24379 2.2171,-1.54972 0.93486,4.21929 0.95699,4.44211 2.31414,-0.89332 1.98853,-1.01821 1.60002,13.1625 3.02235,-2.93791 0.65296,4.18463 1.18554,7.01132 1.96837,-3.92798 0.45822,-1.05802 0.68818,5.73847 1.86223,-1.80085 1.23088,7.16425 2.42587,-6.61308 1.41571,3.6147 1.76376,-1.74015 0.77613,2.23662 0.64221,1.61162 1.40112,-1.20089 1.17792,3.5759 0.98018,3.39614 2.52195,-0.94995 2.9045,-2.48774 1.46602,5.85645 1.71911,4.48421 2.47505,-2.44651 1.19103,0.40835 1.45313,-3.20592 0.95701,3.41326 1.59673,2.08418 0.84689,-2.64849 1.35915,-3.71333 1.1132,2.42517 0.99293,1.87743 1.50341,-3.84134 1.12941,-4.25078 1.38616,1.65924 1.26351,-1.51609 1.51908,3.14326 1.01644,-6.58604 1.27082,-6.33407 1.27206,2.38395 1.39899,2.52168 0.52151,-7.46675 1.27224,-3.25472 0.91121,-0.2278 -0.2495,-2.90638 0.82193,-0.40637 0.28621,-1.65638 1.39566,1.6175 1.26709,-2.63411 1.76925,2.08537 0.75559,-7.58377 0.87777,-6.64031 1.6307,0.87514 1.24661,-2.9676 1.61954,2.79213 4.78402,0.77559 1.2272,-3.09552 1.21954,-1.23209 1.21129,-5.04477 1.45499,1.75518 0.94047,-8.10637 1.43552,0.97844 0.91982,-7.35586 1.41368,-6.71903 0.89678,0.36351 1.13692,-3.15452 1.2502,2.80365 0.98406,-9.03612 0.96987,-5.97012 1.20764,-0.12019 1.06599,-2.9768 1.42883,2.38008 0.65466,-8.16691 0.76377,-5.19712 1.2511,-0.32726 1.1065,1.89695 0.83502,-7.11077 c 0.31523,-0.84115 1.07505,-4.61329 1.38819,-5.42183 l 0.47521,0.5667 0.81163,0.75768 0.87961,-2.17031 0.23272,-4.11016 1.37093,0.20601 0.90141,-5.02538 0.87773,-1.59004 0.85346,2.02989 0.65001,-4.96917 0.44597,-2.85508 0.95564,0.51503 1.10755,1.03402 1.43745,-6.29814 1.34247,1.18322 1.98039,1.24243 0.96164,-3.31275 1.31263,2.81692 1.66979,-5.75452 2.11621,3.97763 1.63845,1.85489 3.15632,-2.87726 c 2.19651,-0.23999 2.18768,-0.48465 2.18768,-0.48465 l 3.17741,-2.67751 2.89334,3.89173 2.38117,-1.47487 1.73024,-1.63443 3.35122,5.10946 2.42271,-3.02891 0.90898,2.70047 1.22076,0.60116 0.76875,0.4053 0.0334,0.0186 0.0334,0.0186 4.98946,1.09189 1.32766,1.81793 0.82259,-1.24411 1.13826,-0.5812 1.13826,1.28127 1.99058,-1.62292"
       id="path3097"
       inkscape:connector-curvature="0"
       sodipodi:nodetypes="ccccccccccccccccccccccccccccccccccccccccccccccccccccccccccccccccccccccccccccccccccccccccccccccccccccccccccccccccccccccccccccccccccccccccccc" />
    <path
       inkscape:connector-curvature="0"
       id="path5256-1"
       d="m 127.71061,271.86218 271.54543,0"
       style="fill:none;stroke:#000000;stroke-width:0.6;stroke-linecap:butt;stroke-linejoin:miter;stroke-miterlimit:4;stroke-opacity:1;stroke-dasharray:none" />
    <path
       style="fill:none;stroke:#000000;stroke-width:0.51542604px;stroke-linecap:butt;stroke-linejoin:miter;stroke-opacity:1;marker-end:url(#Arrow2Lend)"
       d="m 248.5616,244.92476 0,-14.05779"
       id="path6265-2"
       inkscape:connector-curvature="0" />
    <path
       style="fill:none;stroke:#000000;stroke-width:0.51542604px;stroke-linecap:butt;stroke-linejoin:miter;stroke-opacity:1;marker-end:url(#Arrow2Lend)"
       d="m 248.35418,256.30054 0,14.05779"
       id="path6265-8-1"
       inkscape:connector-curvature="0" />
    <g
       transform="translate(164.85515,190.93093)"
       id="equation_07"
       style="fill:#000000"
       title="$SL$">
      <defs
         id="defs3406">
        <path
           inkscape:connector-curvature="0"
           d="m 3.74,-6.05 c 0.09,-0.36 0.12,-0.47 1.06,-0.47 0.3,0 0.38,0 0.38,-0.19 0,-0.12 -0.11,-0.12 -0.16,-0.12 -0.33,0 -1.15,0.03 -1.48,0.03 -0.3,0 -1.03,-0.03 -1.33,-0.03 -0.07,0 -0.19,0 -0.19,0.2 0,0.11 0.09,0.11 0.28,0.11 0.02,0 0.21,0 0.38,0.02 0.18,0.02 0.27,0.03 0.27,0.16 0,0.04 -0.01,0.07 -0.04,0.19 l -1.34,5.37 c -0.1,0.39 -0.12,0.47 -0.91,0.47 -0.17,0 -0.27,0 -0.27,0.2 C 0.39,0 0.48,0 0.66,0 H 5.29 C 5.53,0 5.54,0 5.6,-0.17 l 0.79,-2.16 c 0.04,-0.11 0.04,-0.13 0.04,-0.14 0,-0.04 -0.03,-0.11 -0.12,-0.11 -0.09,0 -0.1,0.05 -0.17,0.21 -0.34,0.92 -0.78,2.06 -2.51,2.06 H 2.69 c -0.14,0 -0.16,0 -0.22,-0.01 -0.1,-0.01 -0.13,-0.02 -0.13,-0.1 0,-0.03 0,-0.05 0.05,-0.23 l 1.35,-5.4 z"
           id="equation_07_00" />
        <path
           inkscape:connector-curvature="0"
           d="m 6.45,-6.95 c 0,-0.03 -0.02,-0.1 -0.11,-0.1 -0.05,0 -0.06,0.01 -0.18,0.15 L 5.68,-6.33 C 5.42,-6.8 4.9,-7.05 4.25,-7.05 c -1.27,0 -2.47,1.15 -2.47,2.36 0,0.81 0.53,1.27 1.04,1.42 l 1.07,0.28 c 0.37,0.09 0.92,0.24 0.92,1.06 0,0.9 -0.82,1.84 -1.8,1.84 -0.64,0 -1.75,-0.22 -1.75,-1.46 0,-0.24 0.05,-0.48 0.06,-0.54 0.01,-0.04 0.02,-0.05 0.02,-0.07 0,-0.1 -0.07,-0.11 -0.12,-0.11 -0.05,0 -0.07,0.01 -0.1,0.04 -0.04,0.04 -0.6,2.32 -0.6,2.35 0,0.06 0.05,0.1 0.11,0.1 0.05,0 0.06,-0.01 0.18,-0.15 L 1.3,-0.5 c 0.43,0.58 1.11,0.72 1.69,0.72 1.36,0 2.54,-1.33 2.54,-2.57 0,-0.69 -0.34,-1.03 -0.49,-1.17 C 4.81,-3.75 4.66,-3.79 3.77,-4.02 3.55,-4.08 3.19,-4.18 3.1,-4.2 2.83,-4.29 2.49,-4.58 2.49,-5.11 c 0,-0.81 0.8,-1.66 1.75,-1.66 0.83,0 1.44,0.43 1.44,1.55 0,0.32 -0.04,0.5 -0.04,0.56 0,0.01 0,0.1 0.12,0.1 0.1,0 0.11,-0.03 0.15,-0.2 l 0.54,-2.19 z"
           id="equation_07_01" />
      </defs>
      <g
         id="equation_07_g">
        <use
           height="1052.3622"
           width="744.09448"
           x="77"
           xlink:href="#equation_07_01"
           y="63"
           id="use3411" />
        <use
           height="1052.3622"
           width="744.09448"
           x="83.708298"
           xlink:href="#equation_07_00"
           y="63"
           id="use3413" />
      </g>
    </g>
    <path
       inkscape:connector-curvature="0"
       id="path4365"
       d="M 128.28937,229.08786 288.39855,145.75027"
       style="fill:none;stroke:#000000;stroke-width:1px;stroke-linecap:butt;stroke-linejoin:miter;stroke-opacity:1" />
    <path
       inkscape:connector-curvature="0"
       id="path4367"
       d="M 399.04804,146.24933 287.4448,145.7969"
       style="fill:none;stroke:#000000;stroke-width:0.60000002;stroke-linecap:butt;stroke-linejoin:miter;stroke-miterlimit:4;stroke-opacity:1;stroke-dasharray:none" />
    <path
       style="fill:none;stroke:#000000;stroke-width:1;stroke-linecap:butt;stroke-linejoin:miter;stroke-miterlimit:4;stroke-opacity:1;stroke-dasharray:none;marker-end:url(#Arrow2Lend)"
       d="m 391.59724,200.92552 0,-52.71505"
       id="path6265-7"
       inkscape:connector-curvature="0" />
    <g
       title="$z_{ik}$"
       style="fill:#000000"
       id="equation_08"
       transform="matrix(1.2917093,0,0,1.2917093,284.03014,129.47588)">
      <defs
         id="defs4631">
        <path
           id="equation_08_00"
           d="m 1.33,-0.83 c 0.54,-0.58 0.83,-0.83 1.19,-1.14 0,-0.01 0.62,-0.54 0.98,-0.9 0.95,-0.93 1.17,-1.41 1.17,-1.45 0,-0.1 -0.09,-0.1 -0.11,-0.1 -0.07,0 -0.1,0.02 -0.15,0.11 -0.3,0.48 -0.51,0.64 -0.75,0.64 -0.24,0 -0.36,-0.15 -0.51,-0.32 -0.19,-0.23 -0.36,-0.43 -0.69,-0.43 -0.75,0 -1.21,0.93 -1.21,1.14 0,0.05 0.03,0.11 0.12,0.11 0.09,0 0.11,-0.05 0.13,-0.11 0.19,-0.46 0.77,-0.47 0.85,-0.47 0.21,0 0.4,0.07 0.63,0.15 0.4,0.15 0.51,0.15 0.77,0.15 -0.36,0.43 -1.2,1.15 -1.39,1.31 l -0.9,0.84 c -0.68,0.67 -1.03,1.24 -1.03,1.31 0,0.1 0.1,0.1 0.12,0.1 0.08,0 0.1,-0.02 0.16,-0.13 0.23,-0.35 0.53,-0.62 0.85,-0.62 0.23,0 0.33,0.09 0.58,0.38 0.17,0.21 0.35,0.37 0.64,0.37 0.99,0 1.57,-1.27 1.57,-1.54 0,-0.05 -0.04,-0.1 -0.12,-0.1 -0.09,0 -0.11,0.06 -0.14,0.13 -0.23,0.65 -0.87,0.84 -1.2,0.84 -0.2,0 -0.38,-0.06 -0.59,-0.13 -0.34,-0.13 -0.49,-0.17 -0.7,-0.17 -0.02,0 -0.18,0 -0.27,0.03 z"
           inkscape:connector-curvature="0" />
        <path
           id="equation_08_01"
           d="m 2.268,-4.375 c 0,-0.112 -0.084,-0.266 -0.28,-0.266 -0.189,0 -0.392,0.182 -0.392,0.385 0,0.119 0.091,0.266 0.28,0.266 0.203,0 0.392,-0.196 0.392,-0.385 z M 0.84,-0.819 c -0.028,0.091 -0.063,0.175 -0.063,0.294 0,0.329 0.28,0.595 0.665,0.595 0.7,0 1.008,-0.966 1.008,-1.071 0,-0.091 -0.091,-0.091 -0.112,-0.091 -0.098,0 -0.105,0.042 -0.133,0.119 -0.161,0.56 -0.469,0.847 -0.742,0.847 -0.14,0 -0.175,-0.091 -0.175,-0.245 0,-0.161 0.049,-0.294 0.112,-0.448 0.07,-0.189 0.147,-0.378 0.224,-0.56 0.063,-0.168 0.315,-0.805 0.343,-0.889 0.021,-0.07 0.042,-0.154 0.042,-0.224 0,-0.329 -0.28,-0.595 -0.665,-0.595 -0.693,0 -1.015,0.952 -1.015,1.071 0,0.091 0.098,0.091 0.119,0.091 0.098,0 0.105,-0.035 0.126,-0.112 0.182,-0.602 0.49,-0.854 0.749,-0.854 0.112,0 0.175,0.056 0.175,0.245 0,0.161 -0.042,0.266 -0.217,0.7 L 0.84,-0.819 z"
           inkscape:connector-curvature="0" />
        <path
           id="equation_08_02"
           d="m 2.191,-4.648 c 0.007,-0.014 0.028,-0.105 0.028,-0.112 0,-0.035 -0.028,-0.098 -0.112,-0.098 -0.14,0 -0.721,0.056 -0.896,0.07 -0.056,0.007 -0.154,0.014 -0.154,0.161 0,0.098 0.098,0.098 0.182,0.098 0.336,0 0.336,0.049 0.336,0.105 0,0.049 -0.014,0.091 -0.028,0.154 L 0.56,-0.308 c -0.035,0.126 -0.035,0.14 -0.035,0.154 0,0.105 0.084,0.224 0.238,0.224 0.189,0 0.28,-0.14 0.322,-0.294 0.014,-0.028 0.315,-1.26 0.343,-1.358 0.497,0.049 0.896,0.21 0.896,0.574 0,0.035 0,0.07 -0.014,0.14 -0.028,0.105 -0.028,0.14 -0.028,0.217 0,0.497 0.406,0.721 0.742,0.721 0.679,0 0.889,-1.064 0.889,-1.071 0,-0.091 -0.091,-0.091 -0.112,-0.091 -0.098,0 -0.105,0.035 -0.14,0.168 -0.084,0.301 -0.273,0.798 -0.616,0.798 -0.189,0 -0.245,-0.175 -0.245,-0.364 0,-0.119 0,-0.133 0.042,-0.315 0.007,-0.021 0.035,-0.14 0.035,-0.217 0,-0.623 -0.84,-0.721 -1.134,-0.742 0.203,-0.126 0.462,-0.357 0.581,-0.462 0.357,-0.336 0.707,-0.665 1.099,-0.665 0.084,0 0.175,0.021 0.231,0.091 -0.301,0.049 -0.364,0.287 -0.364,0.392 0,0.154 0.119,0.259 0.28,0.259 0.189,0 0.399,-0.154 0.399,-0.448 0,-0.231 -0.168,-0.49 -0.539,-0.49 -0.399,0 -0.763,0.287 -1.12,0.616 -0.294,0.28 -0.525,0.497 -0.812,0.616 l 0.693,-2.793 z"
           inkscape:connector-curvature="0" />
      </defs>
      <g
         id="equation_08_g">
        <use
           id="use4637"
           y="63"
           xlink:href="#equation_08_00"
           x="77"
           width="744.09448"
           height="1052.3622" />
        <use
           id="use4639"
           y="64.5"
           xlink:href="#equation_08_01"
           x="81.650497"
           width="744.09448"
           height="1052.3622" />
        <use
           id="use4641"
           y="64.5"
           xlink:href="#equation_08_02"
           x="84.479797"
           width="744.09448"
           height="1052.3622" />
      </g>
    </g>
    <path
       style="fill:none;stroke:#000000;stroke-width:1;stroke-linecap:butt;stroke-linejoin:miter;stroke-miterlimit:4;stroke-opacity:1;stroke-dasharray:none;marker-end:url(#Arrow2Lend)"
       d="m 391.44618,217.01922 0,52.71505"
       id="path6265-7-7"
       inkscape:connector-curvature="0" />
  </g>
</svg>
