<?xml version="1.0" encoding="UTF-8" standalone="no"?>
<!-- Created with Inkscape (http://www.inkscape.org/) -->

<svg
   xmlns:ns0="http://www.iki.fi/pav/software/textext/"
   xmlns:dc="http://purl.org/dc/elements/1.1/"
   xmlns:cc="http://creativecommons.org/ns#"
   xmlns:rdf="http://www.w3.org/1999/02/22-rdf-syntax-ns#"
   xmlns:svg="http://www.w3.org/2000/svg"
   xmlns="http://www.w3.org/2000/svg"
   xmlns:xlink="http://www.w3.org/1999/xlink"
   xmlns:sodipodi="http://sodipodi.sourceforge.net/DTD/sodipodi-0.dtd"
   xmlns:inkscape="http://www.inkscape.org/namespaces/inkscape"
   width="744.09448819"
   height="1052.3622047"
   id="svg2"
   version="1.1"
   inkscape:version="0.48.4 r9939"
   sodipodi:docname="rys5v2.svg"
   inkscape:export-filename="D:\TEWI_WI\Article\Article20140124\figures_inkscape\rys5v2.png"
   inkscape:export-xdpi="196.38"
   inkscape:export-ydpi="196.38">
  <sodipodi:namedview
     id="base"
     pagecolor="#ffffff"
     bordercolor="#666666"
     borderopacity="1.0"
     inkscape:pageopacity="0.0"
     inkscape:pageshadow="2"
     inkscape:zoom="1.4"
     inkscape:cx="243.64861"
     inkscape:cy="927.81975"
     inkscape:document-units="px"
     inkscape:current-layer="layer1"
     showgrid="false"
     inkscape:window-width="1538"
     inkscape:window-height="877"
     inkscape:window-x="-8"
     inkscape:window-y="-8"
     inkscape:window-maximized="1"
     showguides="true"
     inkscape:guide-bbox="true">
    <sodipodi:guide
       id="guide3057"
       position="200.51528,964.69568"
       orientation="0,1" />
    <sodipodi:guide
       id="guide3059"
       position="100,1082.8571"
       orientation="1,0" />
    <sodipodi:guide
       id="guide3061"
       position="400,1085"
       orientation="1,0" />
    <sodipodi:guide
       id="guide3063"
       position="357.08892,750.03827"
       orientation="0,1" />
    <sodipodi:guide
       orientation="1,0"
       position="346.07143,964.69568"
       id="guide6234" />
  </sodipodi:namedview>
  <defs
     id="defs4">
    <marker
       style="overflow:visible"
       id="Arrow2Lstart"
       refX="0.0"
       refY="0.0"
       orient="auto"
       inkscape:stockid="Arrow2Lstart">
      <path
         transform="scale(1.1) translate(1,0)"
         d="M 8.7185878,4.0337352 L -2.2072895,0.016013256 L 8.7185884,-4.0017078 C 6.9730900,-1.6296469 6.9831476,1.6157441 8.7185878,4.0337352 z "
         style="fill-rule:evenodd;stroke-width:0.62500000;stroke-linejoin:round"
         id="path3857" />
    </marker>
    <marker
       style="overflow:visible;"
       id="Arrow2Lend"
       refX="0.0"
       refY="0.0"
       orient="auto"
       inkscape:stockid="Arrow2Lend">
      <path
         transform="scale(1.1) rotate(180) translate(1,0)"
         d="M 8.7185878,4.0337352 L -2.2072895,0.016013256 L 8.7185884,-4.0017078 C 6.9730900,-1.6296469 6.9831476,1.6157441 8.7185878,4.0337352 z "
         style="fill-rule:evenodd;stroke-width:0.62500000;stroke-linejoin:round;"
         id="path3860" />
    </marker>
    <marker
       style="overflow:visible;"
       id="Arrow1Mend"
       refX="0.0"
       refY="0.0"
       orient="auto"
       inkscape:stockid="Arrow1Mend">
      <path
         transform="scale(0.4) rotate(180) translate(10,0)"
         style="fill-rule:evenodd;stroke:#000000;stroke-width:1.0pt;"
         d="M 0.0,0.0 L 5.0,-5.0 L -12.5,0.0 L 5.0,5.0 L 0.0,0.0 z "
         id="path3848" />
    </marker>
    <marker
       style="overflow:visible;"
       id="Arrow2Mend"
       refX="0.0"
       refY="0.0"
       orient="auto"
       inkscape:stockid="Arrow2Mend">
      <path
         transform="scale(0.6) rotate(180) translate(0,0)"
         d="M 8.7185878,4.0337352 L -2.2072895,0.016013256 L 8.7185884,-4.0017078 C 6.9730900,-1.6296469 6.9831476,1.6157441 8.7185878,4.0337352 z "
         style="fill-rule:evenodd;stroke-width:0.62500000;stroke-linejoin:round;"
         id="path3866" />
    </marker>
    <marker
       style="overflow:visible;"
       id="Arrow1Lend"
       refX="0.0"
       refY="0.0"
       orient="auto"
       inkscape:stockid="Arrow1Lend">
      <path
         transform="scale(0.8) rotate(180) translate(12.5,0)"
         style="fill-rule:evenodd;stroke:#000000;stroke-width:1.0pt;"
         d="M 0.0,0.0 L 5.0,-5.0 L -12.5,0.0 L 5.0,5.0 L 0.0,0.0 z "
         id="path3842" />
    </marker>
    <marker
       style="overflow:visible"
       id="Arrow2Lend-9"
       refX="0"
       refY="0"
       orient="auto"
       inkscape:stockid="Arrow2Lend">
      <path
         inkscape:connector-curvature="0"
         transform="matrix(-1.1,0,0,-1.1,-1.1,0)"
         d="M 8.7185878,4.0337352 -2.2072895,0.01601326 8.7185884,-4.0017078 c -1.7454984,2.3720609 -1.7354408,5.6174519 -6e-7,8.035443 z"
         style="fill-rule:evenodd;stroke-width:0.625;stroke-linejoin:round"
         id="path3860-4" />
    </marker>
    <marker
       inkscape:stockid="Arrow2Lend"
       orient="auto"
       refY="0"
       refX="0"
       id="Arrow2Lend-7"
       style="overflow:visible">
      <path
         id="path3860-40"
         style="fill-rule:evenodd;stroke-width:0.625;stroke-linejoin:round"
         d="M 8.7185878,4.0337352 -2.2072895,0.01601326 8.7185884,-4.0017078 c -1.7454984,2.3720609 -1.7354408,5.6174519 -6e-7,8.035443 z"
         transform="matrix(-1.1,0,0,-1.1,-1.1,0)"
         inkscape:connector-curvature="0" />
    </marker>
    <marker
       inkscape:stockid="Arrow2Lend"
       orient="auto"
       refY="0"
       refX="0"
       id="marker3193"
       style="overflow:visible">
      <path
         id="path3195"
         style="fill-rule:evenodd;stroke-width:0.625;stroke-linejoin:round"
         d="M 8.7185878,4.0337352 -2.2072895,0.01601326 8.7185884,-4.0017078 c -1.7454984,2.3720609 -1.7354408,5.6174519 -6e-7,8.035443 z"
         transform="matrix(-1.1,0,0,-1.1,-1.1,0)"
         inkscape:connector-curvature="0" />
    </marker>
    <marker
       inkscape:stockid="Arrow2Lend"
       orient="auto"
       refY="0"
       refX="0"
       id="Arrow2Lend-2"
       style="overflow:visible">
      <path
         id="path3860-45"
         style="fill-rule:evenodd;stroke-width:0.625;stroke-linejoin:round"
         d="M 8.7185878,4.0337352 -2.2072895,0.01601326 8.7185884,-4.0017078 c -1.7454984,2.3720609 -1.7354408,5.6174519 -6e-7,8.035443 z"
         transform="matrix(-1.1,0,0,-1.1,-1.1,0)"
         inkscape:connector-curvature="0" />
    </marker>
    <marker
       inkscape:stockid="Arrow2Lend"
       orient="auto"
       refY="0"
       refX="0"
       id="marker3515"
       style="overflow:visible">
      <path
         id="path3517"
         style="fill-rule:evenodd;stroke-width:0.625;stroke-linejoin:round"
         d="M 8.7185878,4.0337352 -2.2072895,0.01601326 8.7185884,-4.0017078 c -1.7454984,2.3720609 -1.7354408,5.6174519 -6e-7,8.035443 z"
         transform="matrix(-1.1,0,0,-1.1,-1.1,0)"
         inkscape:connector-curvature="0" />
    </marker>
    <marker
       inkscape:stockid="Arrow2Lend"
       orient="auto"
       refY="0"
       refX="0"
       id="Arrow2Lend-4"
       style="overflow:visible">
      <path
         id="path3860-0"
         style="fill-rule:evenodd;stroke-width:0.625;stroke-linejoin:round"
         d="M 8.7185878,4.0337352 -2.2072895,0.01601326 8.7185884,-4.0017078 c -1.7454984,2.3720609 -1.7354408,5.6174519 -6e-7,8.035443 z"
         transform="matrix(-1.1,0,0,-1.1,-1.1,0)"
         inkscape:connector-curvature="0" />
    </marker>
    <marker
       inkscape:stockid="Arrow2Lend"
       orient="auto"
       refY="0"
       refX="0"
       id="marker3125"
       style="overflow:visible">
      <path
         id="path3127"
         style="fill-rule:evenodd;stroke-width:0.625;stroke-linejoin:round"
         d="M 8.7185878,4.0337352 -2.2072895,0.01601326 8.7185884,-4.0017078 c -1.7454984,2.3720609 -1.7354408,5.6174519 -6e-7,8.035443 z"
         transform="matrix(-1.1,0,0,-1.1,-1.1,0)"
         inkscape:connector-curvature="0" />
    </marker>
  </defs>
  <metadata
     id="metadata7">
    <rdf:RDF>
      <cc:Work
         rdf:about="">
        <dc:format>image/svg+xml</dc:format>
        <dc:type
           rdf:resource="http://purl.org/dc/dcmitype/StillImage" />
        <dc:title></dc:title>
      </cc:Work>
    </rdf:RDF>
  </metadata>
  <g
     id="layer1"
     inkscape:groupmode="layer"
     inkscape:label="Layer 1">
    <path
       inkscape:connector-curvature="0"
       id="path3065"
       d="m 100.00019,302.40473 0,-213.863232"
       style="fill:none;stroke:#000000;stroke-width:1.11489761;stroke-linecap:butt;stroke-linejoin:miter;stroke-miterlimit:4;stroke-opacity:1;stroke-dasharray:none;marker-end:url(#Arrow2Lend)" />
    <path
       inkscape:connector-curvature="0"
       id="path5029"
       d="m 400,302.36218 -300,0"
       style="fill:none;stroke:#000000;stroke-width:1.115;stroke-linecap:butt;stroke-linejoin:miter;stroke-opacity:1;marker-start:url(#Arrow2Lstart);stroke-miterlimit:4;stroke-dasharray:none" />
    <path
       inkscape:connector-curvature="0"
       id="path5223"
       d="m 127.57143,302.41224 0,-214.239706"
       style="fill:none;stroke:#000000;stroke-width:0.59987116;stroke-linecap:butt;stroke-linejoin:miter;stroke-miterlimit:4;stroke-opacity:1;stroke-dasharray:none" />
    <path
       inkscape:connector-curvature="0"
       id="path5223-1"
       d="m 287.28572,302.41154 0,-214.743379"
       style="fill:none;stroke:#000000;stroke-width:0.6012814;stroke-linecap:butt;stroke-linejoin:miter;stroke-miterlimit:4;stroke-opacity:1;stroke-dasharray:none" />
    <path
       inkscape:connector-curvature="0"
       id="path5256"
       d="m 127.56254,157.6479 159.74341,0"
       style="fill:none;stroke:#000000;stroke-width:0.5134297;stroke-linecap:butt;stroke-linejoin:miter;stroke-miterlimit:4;stroke-opacity:1;stroke-dasharray:none" />
    <path
       transform="translate(-80.487322,11.842661)"
       d="m 211.12188,145.49774 a 2.7779195,2.7779195 0 1 1 -5.55584,0 2.7779195,2.7779195 0 1 1 5.55584,0 z"
       sodipodi:ry="2.7779195"
       sodipodi:rx="2.7779195"
       sodipodi:cy="145.49774"
       sodipodi:cx="208.34396"
       id="path5258"
       style="stroke-width:0.60000002;stroke-miterlimit:4;stroke-dasharray:none"
       sodipodi:type="arc" />
    <path
       transform="translate(79.533883,70.158167)"
       d="m 211.12188,145.49774 a 2.7779195,2.7779195 0 1 1 -5.55584,0 2.7779195,2.7779195 0 1 1 5.55584,0 z"
       sodipodi:ry="2.7779195"
       sodipodi:rx="2.7779195"
       sodipodi:cy="145.49774"
       sodipodi:cx="208.34396"
       id="path5258-7"
       style="stroke-width:0.60000002;stroke-miterlimit:4;stroke-dasharray:none"
       sodipodi:type="arc" />
    <g
       title="$t$"
       style="fill:#000000"
       id="equation_00"
       transform="matrix(1.6475941,0,0,1.6475941,246.85804,190.87523)">
      <defs
         id="defs5306">
        <path
           id="equation_00_00"
           d="M 2.06,-4 H 3 c 0.2,0 0.3,0 0.3,-0.2 0,-0.11 -0.1,-0.11 -0.28,-0.11 H 2.14 c 0.36,-1.42 0.41,-1.62 0.41,-1.68 0,-0.17 -0.12,-0.27 -0.29,-0.27 -0.03,0 -0.31,0.01 -0.4,0.36 L 1.47,-4.31 H 0.53 c -0.2,0 -0.3,0 -0.3,0.19 C 0.23,-4 0.31,-4 0.51,-4 h 0.88 c -0.72,2.84 -0.76,3.01 -0.76,3.19 0,0.54 0.38,0.92 0.92,0.92 1.02,0 1.59,-1.46 1.59,-1.54 0,-0.1 -0.08,-0.1 -0.12,-0.1 -0.09,0 -0.1,0.03 -0.15,0.14 -0.43,1.04 -0.96,1.28 -1.3,1.28 -0.21,0 -0.31,-0.13 -0.31,-0.46 0,-0.24 0.02,-0.31 0.06,-0.48 L 2.06,-4 z"
           inkscape:connector-curvature="0" />
      </defs>
      <g
         id="equation_00_g">
        <use
           id="use5310"
           y="63"
           xlink:href="#equation_00_00"
           x="77"
           width="744.09448"
           height="1052.3622" />
      </g>
    </g>
    <g
       id="equation_01"
       style="fill:#000000"
       title="$t_i$"
       transform="matrix(1.5050762,0,0,1.7299728,8.310241,207.94948)">
      <defs
         id="defs5375">
        <path
           d="m 2.268,-4.375 c 0,-0.112 -0.084,-0.266 -0.28,-0.266 -0.189,0 -0.392,0.182 -0.392,0.385 0,0.119 0.091,0.266 0.28,0.266 0.203,0 0.392,-0.196 0.392,-0.385 z M 0.84,-0.819 c -0.028,0.091 -0.063,0.175 -0.063,0.294 0,0.329 0.28,0.595 0.665,0.595 0.7,0 1.008,-0.966 1.008,-1.071 0,-0.091 -0.091,-0.091 -0.112,-0.091 -0.098,0 -0.105,0.042 -0.133,0.119 -0.161,0.56 -0.469,0.847 -0.742,0.847 -0.14,0 -0.175,-0.091 -0.175,-0.245 0,-0.161 0.049,-0.294 0.112,-0.448 0.07,-0.189 0.147,-0.378 0.224,-0.56 0.063,-0.168 0.315,-0.805 0.343,-0.889 0.021,-0.07 0.042,-0.154 0.042,-0.224 0,-0.329 -0.28,-0.595 -0.665,-0.595 -0.693,0 -1.015,0.952 -1.015,1.071 0,0.091 0.098,0.091 0.119,0.091 0.098,0 0.105,-0.035 0.126,-0.112 0.182,-0.602 0.49,-0.854 0.749,-0.854 0.112,0 0.175,0.056 0.175,0.245 0,0.161 -0.042,0.266 -0.217,0.7 L 0.84,-0.819 z"
           id="equation_01_00"
           inkscape:connector-curvature="0" />
        <path
           d="M 2.06,-4 H 3 c 0.2,0 0.3,0 0.3,-0.2 0,-0.11 -0.1,-0.11 -0.28,-0.11 H 2.14 c 0.36,-1.42 0.41,-1.62 0.41,-1.68 0,-0.17 -0.12,-0.27 -0.29,-0.27 -0.03,0 -0.31,0.01 -0.4,0.36 L 1.47,-4.31 H 0.53 c -0.2,0 -0.3,0 -0.3,0.19 C 0.23,-4 0.31,-4 0.51,-4 h 0.88 c -0.72,2.84 -0.76,3.01 -0.76,3.19 0,0.54 0.38,0.92 0.92,0.92 1.02,0 1.59,-1.46 1.59,-1.54 0,-0.1 -0.08,-0.1 -0.12,-0.1 -0.09,0 -0.1,0.03 -0.15,0.14 -0.43,1.04 -0.96,1.28 -1.3,1.28 -0.21,0 -0.31,-0.13 -0.31,-0.46 0,-0.24 0.02,-0.31 0.06,-0.48 L 2.06,-4 z"
           id="equation_01_01"
           inkscape:connector-curvature="0" />
      </defs>
      <g
         id="equation_01_g">
        <use
           x="77"
           xlink:href="#equation_01_01"
           y="63"
           id="use5380"
           width="744.09448"
           height="1052.3622" />
        <use
           x="80.611099"
           xlink:href="#equation_01_00"
           y="64.5"
           id="use5382"
           width="744.09448"
           height="1052.3622" />
      </g>
    </g>
    <g
       title="$t_{i+1}$"
       style="fill:#000000"
       id="equation_02"
       transform="matrix(1.6127884,0,0,1.6905537,154.25704,209.68449)">
      <defs
         id="defs5461">
        <path
           id="equation_02_00"
           d="m 3.241,-1.582 h 2.142 c 0.091,0 0.259,0 0.259,-0.168 0,-0.175 -0.161,-0.175 -0.259,-0.175 H 3.241 v -2.149 c 0,-0.091 0,-0.259 -0.168,-0.259 -0.175,0 -0.175,0.161 -0.175,0.259 v 2.149 H 0.749 c -0.091,0 -0.259,0 -0.259,0.168 0,0.175 0.161,0.175 0.259,0.175 h 2.149 v 2.149 c 0,0.091 0,0.259 0.168,0.259 0.175,0 0.175,-0.161 0.175,-0.259 v -2.149 z"
           inkscape:connector-curvature="0" />
        <path
           id="equation_02_01"
           d="m 2.345,-4.452 c 0,-0.189 -0.014,-0.196 -0.21,-0.196 C 1.687,-4.207 1.05,-4.2 0.763,-4.2 v 0.252 c 0.168,0 0.63,0 1.015,-0.196 v 3.57 c 0,0.231 0,0.322 -0.7,0.322 H 0.812 V 0 c 0.126,-0.007 0.987,-0.028 1.246,-0.028 0.217,0 1.099,0.021 1.253,0.028 V -0.252 H 3.045 c -0.7,0 -0.7,-0.091 -0.7,-0.322 v -3.878 z"
           inkscape:connector-curvature="0" />
        <path
           id="equation_02_02"
           d="M 2.06,-4 H 3 c 0.2,0 0.3,0 0.3,-0.2 0,-0.11 -0.1,-0.11 -0.28,-0.11 H 2.14 c 0.36,-1.42 0.41,-1.62 0.41,-1.68 0,-0.17 -0.12,-0.27 -0.29,-0.27 -0.03,0 -0.31,0.01 -0.4,0.36 L 1.47,-4.31 H 0.53 c -0.2,0 -0.3,0 -0.3,0.19 C 0.23,-4 0.31,-4 0.51,-4 h 0.88 c -0.72,2.84 -0.76,3.01 -0.76,3.19 0,0.54 0.38,0.92 0.92,0.92 1.02,0 1.59,-1.46 1.59,-1.54 0,-0.1 -0.08,-0.1 -0.12,-0.1 -0.09,0 -0.1,0.03 -0.15,0.14 -0.43,1.04 -0.96,1.28 -1.3,1.28 -0.21,0 -0.31,-0.13 -0.31,-0.46 0,-0.24 0.02,-0.31 0.06,-0.48 L 2.06,-4 z"
           inkscape:connector-curvature="0" />
        <path
           id="equation_02_03"
           d="m 2.268,-4.375 c 0,-0.112 -0.084,-0.266 -0.28,-0.266 -0.189,0 -0.392,0.182 -0.392,0.385 0,0.119 0.091,0.266 0.28,0.266 0.203,0 0.392,-0.196 0.392,-0.385 z M 0.84,-0.819 c -0.028,0.091 -0.063,0.175 -0.063,0.294 0,0.329 0.28,0.595 0.665,0.595 0.7,0 1.008,-0.966 1.008,-1.071 0,-0.091 -0.091,-0.091 -0.112,-0.091 -0.098,0 -0.105,0.042 -0.133,0.119 -0.161,0.56 -0.469,0.847 -0.742,0.847 -0.14,0 -0.175,-0.091 -0.175,-0.245 0,-0.161 0.049,-0.294 0.112,-0.448 0.07,-0.189 0.147,-0.378 0.224,-0.56 0.063,-0.168 0.315,-0.805 0.343,-0.889 0.021,-0.07 0.042,-0.154 0.042,-0.224 0,-0.329 -0.28,-0.595 -0.665,-0.595 -0.693,0 -1.015,0.952 -1.015,1.071 0,0.091 0.098,0.091 0.119,0.091 0.098,0 0.105,-0.035 0.126,-0.112 0.182,-0.602 0.49,-0.854 0.749,-0.854 0.112,0 0.175,0.056 0.175,0.245 0,0.161 -0.042,0.266 -0.217,0.7 L 0.84,-0.819 z"
           inkscape:connector-curvature="0" />
      </defs>
      <g
         id="equation_02_g">
        <use
           id="use5468"
           y="63"
           xlink:href="#equation_02_02"
           x="77"
           width="744.09448"
           height="1052.3622" />
        <use
           id="use5470"
           y="64.5"
           xlink:href="#equation_02_03"
           x="80.611099"
           width="744.09448"
           height="1052.3622" />
        <use
           id="use5472"
           y="64.5"
           xlink:href="#equation_02_00"
           x="83.440399"
           width="744.09448"
           height="1052.3622" />
        <use
           id="use5474"
           y="64.5"
           xlink:href="#equation_02_01"
           x="89.5793"
           width="744.09448"
           height="1052.3622" />
      </g>
    </g>
    <g
       id="equation_03"
       style="fill:#000000"
       title="$C_i$"
       transform="matrix(1.4872876,0,0,1.4872876,-6.273908,56.16933)">
      <defs
         id="defs5575">
        <path
           d="m 7.6,-6.95 c 0,-0.03 -0.02,-0.1 -0.11,-0.1 -0.03,0 -0.04,0.01 -0.15,0.12 l -0.7,0.77 C 6.55,-6.3 6.09,-7.05 4.98,-7.05 c -2.23,0 -4.48,2.21 -4.48,4.53 0,1.65 1.18,2.74 2.71,2.74 0.87,0 1.63,-0.4 2.16,-0.86 0.93,-0.82 1.1,-1.73 1.1,-1.76 0,-0.1 -0.1,-0.1 -0.12,-0.1 -0.06,0 -0.11,0.02 -0.13,0.1 -0.09,0.29 -0.32,1 -1.01,1.58 -0.69,0.56 -1.32,0.73 -1.84,0.73 -0.9,0 -1.96,-0.52 -1.96,-2.08 0,-0.57 0.21,-2.19 1.21,-3.36 0.61,-0.71 1.55,-1.21 2.44,-1.21 1.02,0 1.61,0.77 1.61,1.93 0,0.4 -0.03,0.41 -0.03,0.51 0,0.1 0.11,0.1 0.15,0.1 0.13,0 0.13,-0.02 0.18,-0.2 L 7.6,-6.95 z"
           id="equation_03_00"
           inkscape:connector-curvature="0" />
        <path
           d="m 2.268,-4.375 c 0,-0.112 -0.084,-0.266 -0.28,-0.266 -0.189,0 -0.392,0.182 -0.392,0.385 0,0.119 0.091,0.266 0.28,0.266 0.203,0 0.392,-0.196 0.392,-0.385 z M 0.84,-0.819 c -0.028,0.091 -0.063,0.175 -0.063,0.294 0,0.329 0.28,0.595 0.665,0.595 0.7,0 1.008,-0.966 1.008,-1.071 0,-0.091 -0.091,-0.091 -0.112,-0.091 -0.098,0 -0.105,0.042 -0.133,0.119 -0.161,0.56 -0.469,0.847 -0.742,0.847 -0.14,0 -0.175,-0.091 -0.175,-0.245 0,-0.161 0.049,-0.294 0.112,-0.448 0.07,-0.189 0.147,-0.378 0.224,-0.56 0.063,-0.168 0.315,-0.805 0.343,-0.889 0.021,-0.07 0.042,-0.154 0.042,-0.224 0,-0.329 -0.28,-0.595 -0.665,-0.595 -0.693,0 -1.015,0.952 -1.015,1.071 0,0.091 0.098,0.091 0.119,0.091 0.098,0 0.105,-0.035 0.126,-0.112 0.182,-0.602 0.49,-0.854 0.749,-0.854 0.112,0 0.175,0.056 0.175,0.245 0,0.161 -0.042,0.266 -0.217,0.7 L 0.84,-0.819 z"
           id="equation_03_01"
           inkscape:connector-curvature="0" />
      </defs>
      <g
         id="equation_03_g">
        <use
           x="77"
           xlink:href="#equation_03_00"
           y="63"
           id="use5580"
           width="744.09448"
           height="1052.3622" />
        <use
           x="84.147202"
           xlink:href="#equation_03_01"
           y="64.5"
           id="use5582"
           width="744.09448"
           height="1052.3622" />
      </g>
    </g>
    <g
       title="$C_{i+1}$"
       style="fill:#000000"
       id="equation_04"
       transform="matrix(1.3469223,0,0,1.3469223,189.27179,136.527)">
      <defs
         id="defs5697">
        <path
           id="equation_04_00"
           d="m 7.6,-6.95 c 0,-0.03 -0.02,-0.1 -0.11,-0.1 -0.03,0 -0.04,0.01 -0.15,0.12 l -0.7,0.77 C 6.55,-6.3 6.09,-7.05 4.98,-7.05 c -2.23,0 -4.48,2.21 -4.48,4.53 0,1.65 1.18,2.74 2.71,2.74 0.87,0 1.63,-0.4 2.16,-0.86 0.93,-0.82 1.1,-1.73 1.1,-1.76 0,-0.1 -0.1,-0.1 -0.12,-0.1 -0.06,0 -0.11,0.02 -0.13,0.1 -0.09,0.29 -0.32,1 -1.01,1.58 -0.69,0.56 -1.32,0.73 -1.84,0.73 -0.9,0 -1.96,-0.52 -1.96,-2.08 0,-0.57 0.21,-2.19 1.21,-3.36 0.61,-0.71 1.55,-1.21 2.44,-1.21 1.02,0 1.61,0.77 1.61,1.93 0,0.4 -0.03,0.41 -0.03,0.51 0,0.1 0.11,0.1 0.15,0.1 0.13,0 0.13,-0.02 0.18,-0.2 L 7.6,-6.95 z"
           inkscape:connector-curvature="0" />
        <path
           id="equation_04_01"
           d="m 3.241,-1.582 h 2.142 c 0.091,0 0.259,0 0.259,-0.168 0,-0.175 -0.161,-0.175 -0.259,-0.175 H 3.241 v -2.149 c 0,-0.091 0,-0.259 -0.168,-0.259 -0.175,0 -0.175,0.161 -0.175,0.259 v 2.149 H 0.749 c -0.091,0 -0.259,0 -0.259,0.168 0,0.175 0.161,0.175 0.259,0.175 h 2.149 v 2.149 c 0,0.091 0,0.259 0.168,0.259 0.175,0 0.175,-0.161 0.175,-0.259 v -2.149 z"
           inkscape:connector-curvature="0" />
        <path
           id="equation_04_02"
           d="m 2.345,-4.452 c 0,-0.189 -0.014,-0.196 -0.21,-0.196 C 1.687,-4.207 1.05,-4.2 0.763,-4.2 v 0.252 c 0.168,0 0.63,0 1.015,-0.196 v 3.57 c 0,0.231 0,0.322 -0.7,0.322 H 0.812 V 0 c 0.126,-0.007 0.987,-0.028 1.246,-0.028 0.217,0 1.099,0.021 1.253,0.028 V -0.252 H 3.045 c -0.7,0 -0.7,-0.091 -0.7,-0.322 v -3.878 z"
           inkscape:connector-curvature="0" />
        <path
           id="equation_04_03"
           d="m 2.268,-4.375 c 0,-0.112 -0.084,-0.266 -0.28,-0.266 -0.189,0 -0.392,0.182 -0.392,0.385 0,0.119 0.091,0.266 0.28,0.266 0.203,0 0.392,-0.196 0.392,-0.385 z M 0.84,-0.819 c -0.028,0.091 -0.063,0.175 -0.063,0.294 0,0.329 0.28,0.595 0.665,0.595 0.7,0 1.008,-0.966 1.008,-1.071 0,-0.091 -0.091,-0.091 -0.112,-0.091 -0.098,0 -0.105,0.042 -0.133,0.119 -0.161,0.56 -0.469,0.847 -0.742,0.847 -0.14,0 -0.175,-0.091 -0.175,-0.245 0,-0.161 0.049,-0.294 0.112,-0.448 0.07,-0.189 0.147,-0.378 0.224,-0.56 0.063,-0.168 0.315,-0.805 0.343,-0.889 0.021,-0.07 0.042,-0.154 0.042,-0.224 0,-0.329 -0.28,-0.595 -0.665,-0.595 -0.693,0 -1.015,0.952 -1.015,1.071 0,0.091 0.098,0.091 0.119,0.091 0.098,0 0.105,-0.035 0.126,-0.112 0.182,-0.602 0.49,-0.854 0.749,-0.854 0.112,0 0.175,0.056 0.175,0.245 0,0.161 -0.042,0.266 -0.217,0.7 L 0.84,-0.819 z"
           inkscape:connector-curvature="0" />
      </defs>
      <g
         id="equation_04_g">
        <use
           id="use5704"
           y="63"
           xlink:href="#equation_04_00"
           x="77"
           width="744.09448"
           height="1052.3622" />
        <use
           id="use5706"
           y="64.5"
           xlink:href="#equation_04_03"
           x="84.147202"
           width="744.09448"
           height="1052.3622" />
        <use
           id="use5708"
           y="64.5"
           xlink:href="#equation_04_01"
           x="86.976501"
           width="744.09448"
           height="1052.3622" />
        <use
           id="use5710"
           y="64.5"
           xlink:href="#equation_04_02"
           x="93.115402"
           width="744.09448"
           height="1052.3622" />
      </g>
    </g>
    <path
       sodipodi:nodetypes="csccccccccccccccccccccccccccccccsccccccccccccccccccccccccccccccccccccccccccccccccccccccccccccccccccccccc"
       inkscape:connector-curvature="0"
       id="path3098"
       d="m 127.90612,158.21474 c 0,0 0.0271,-0.0406 0.08,-0.11913 0.053,-0.0786 0.13141,-0.19542 0.23528,-0.34721 l 0.38324,-0.56002 0.5239,-0.75754 0.65729,-3.43978 0.78339,1.39324 0.99151,0.79512 0.83517,-5.14486 1.20731,0.44829 0.85785,-5.99687 1.66182,2.3947 1.38708,-1.78775 1.46222,1.00936 1.53006,-4.74967 1.50133,-8.61843 1.7332,4.76023 2.58143,-3.70179 0.33199,-0.53089 2.56996,-4.13086 1.47936,0.78234 2.33677,0.90056 1.27493,-4.37912 1.27089,-4.56583 2.35002,1.45826 2.87349,-1.96712 0.69837,-0.64726 2.14346,-6.40792 1.32109,4.40898 2.74525,-11.9573 1.80372,9.3567 1.14442,-3.24432 c 0,0 0.19008,4.17063 0.68071,4.18217 0.44143,0.0104 1.34304,-2.0954 1.34304,-2.0954 0,0 0.92005,2.34562 1.37946,2.4871 l 1.83455,5.09745 0.93788,-1.12665 1.44203,-1.57714 1.09948,1.05207 1.7158,1.91202 1.80375,-0.8548 1.70623,1.59272 2.62252,-1.30941 0.62401,4.23907 1.65433,1.63831 2.43049,-6.20752 0.93218,9.80658 0.56866,4.35004 2.85516,-0.35378 1.60452,-0.51682 1.86746,4.87105 1.74998,2.29909 2.26222,-0.78286 1.2576,5.60046 1.76658,2.5087 0.001,0.16965 3.53729,5.02302 1.76855,-2.62914 1.76595,8.0228 0.37277,0.4871 3.14484,5.06832 1.33897,-3.95436 -0.0591,-0.32067 3.57929,4.96845 2.07336,-2.29003 2.3732,8.54667 1.90854,-1.67003 1.02908,10.19918 1.39801,7.57509 2.00887,-0.89354 1.22914,6.66907 1.58422,2.86257 1.30631,-3.22168 1.7844,8.87193 0.84127,0.91074 2.13499,4.60693 1.56741,-0.0811 1.28138,5.42692 0.3534,0.29802 2.35491,4.83678 1.29741,2.476 1.63623,-2.26345 0.83698,7.00808 0.41493,4.65794 1.19265,-0.0349 0.75466,1.75931 2.05216,2.1402 0.85701,1.77435 1.05817,1.92506 1.19642,-3.22713 1.89565,5.11073 1.90442,-3.71312 1.97281,3.48904 1.40822,-1.94061 1.97843,2.72637 2.50838,-4.99328 1.4941,2.84033 2.0353,-7.69017 0.82048,2.00151 2.21782,-7.65327 2.81281,-11.75367 1.64024,6.5027 2.71537,-9.9469 2.35453,4.79991"
       style="fill:none;stroke:#000000;stroke-width:1px;stroke-linecap:butt;stroke-linejoin:miter;stroke-opacity:1" />
    <path
       inkscape:connector-curvature="0"
       id="path5256-1"
       d="m 127.56254,227.6479 159.74341,0"
       style="fill:none;stroke:#000000;stroke-width:0.5134297;stroke-linecap:butt;stroke-linejoin:miter;stroke-miterlimit:4;stroke-opacity:1;stroke-dasharray:none" />
    <path
       transform="translate(43.084608,82.935869)"
       d="m 211.12188,145.49774 a 2.7779195,2.7779195 0 1 1 -5.55584,0 2.7779195,2.7779195 0 1 1 5.55584,0 z"
       sodipodi:ry="2.7779195"
       sodipodi:rx="2.7779195"
       sodipodi:cy="145.49774"
       sodipodi:cx="208.34396"
       id="path5258-7-7"
       style="stroke-width:0.60000002;stroke-miterlimit:4;stroke-dasharray:none"
       sodipodi:type="arc" />
    <text
       sodipodi:linespacing="125%"
       id="text4128"
       y="191.05838"
       x="293.15082"
       style="font-size:14px;font-style:normal;font-weight:normal;line-height:125%;letter-spacing:0px;word-spacing:0px;fill:#000000;fill-opacity:1;stroke:none;font-family:Sans"
       xml:space="preserve"><tspan
         y="191.05838"
         x="293.15082"
         id="tspan4130"
         sodipodi:role="line">z<tspan
   id="tspan4132"
   style="font-size:65.00091553%;baseline-shift:sub">i</tspan> = -SL</tspan></text>
    <path
       inkscape:connector-curvature="0"
       id="path6265-2"
       d="m 152.29915,185.0527 0,-23.3238"
       style="fill:none;stroke:#000000;stroke-width:0.65315408px;stroke-linecap:butt;stroke-linejoin:miter;stroke-opacity:1;marker-end:url(#Arrow2Lend)" />
    <path
       inkscape:connector-curvature="0"
       id="path6265-8-1"
       d="m 152.09246,196.59119 0,27.34441"
       style="fill:none;stroke:#000000;stroke-width:0.70311356px;stroke-linecap:butt;stroke-linejoin:miter;stroke-opacity:1;marker-end:url(#Arrow2Lend)" />
    <text
       sodipodi:linespacing="125%"
       id="text4100"
       y="193.71577"
       x="147.16379"
       style="font-size:9.75959301px;font-style:normal;font-weight:normal;line-height:125%;letter-spacing:0px;word-spacing:0px;fill:#000000;fill-opacity:1;stroke:none;font-family:Sans"
       xml:space="preserve"><tspan
         style="font-size:10px"
         y="193.71577"
         x="147.16379"
         id="tspan4102"
         sodipodi:role="line">p5</tspan></text>
    <text
       sodipodi:linespacing="125%"
       id="text4104"
       y="240.94283"
       x="234.38533"
       style="font-size:14px;font-style:normal;font-weight:normal;line-height:125%;letter-spacing:0px;word-spacing:0px;fill:#000000;fill-opacity:1;stroke:none;font-family:Sans"
       xml:space="preserve"><tspan
         style="font-size:12px"
         y="240.94283"
         x="234.38533"
         id="tspan4106"
         sodipodi:role="line">SL</tspan></text>
    <text
       sodipodi:linespacing="125%"
       id="text4134"
       y="111.37621"
       x="176.8656"
       style="font-size:14px;font-style:normal;font-weight:normal;line-height:125%;letter-spacing:0px;word-spacing:0px;fill:#000000;fill-opacity:1;stroke:none;font-family:Sans"
       xml:space="preserve"><tspan
         style="font-size:10px"
         y="111.37621"
         x="176.8656"
         id="tspan4136"
         sodipodi:role="line">long position</tspan></text>
    <g
       ns0:preamble=""
       ns0:text="Current price (C)"
       word-spacing="normal"
       letter-spacing="normal"
       font-size-adjust="none"
       font-stretch="normal"
       font-weight="normal"
       font-variant="normal"
       font-style="normal"
       stroke-miterlimit="10.433"
       xml:space="preserve"
       transform="matrix(0,-1.5130544,-1.5130544,0,1162.0941,572.60333)"
       id="content"
       style="font-style:normal;font-variant:normal;font-weight:normal;font-stretch:normal;letter-spacing:normal;word-spacing:normal;text-anchor:start;fill:none;stroke:#000000;stroke-linecap:butt;stroke-linejoin:miter;stroke-miterlimit:10.43299961;stroke-opacity:1;stroke-dasharray:none;stroke-dashoffset:0">
<path
   id="path3224"
   d="m 223.99,710.52 0,-0.19 0.02,-0.19 0.02,-0.18 0.03,-0.18 0.04,-0.18 0.05,-0.18 0.06,-0.16 0.06,-0.17 0.07,-0.16 0.08,-0.16 0.08,-0.15 0.1,-0.15 0.1,-0.14 0.1,-0.13 0.11,-0.13 0.12,-0.13 0.12,-0.12 0.12,-0.11 0.14,-0.1 0.13,-0.1 0.14,-0.09 0.15,-0.09 0.15,-0.08 0.15,-0.07 0.16,-0.06 0.16,-0.06 0.16,-0.04 0.16,-0.04 0.17,-0.03 0.17,-0.03 0.17,-0.01 0.17,0 c 1.62,0 2.6,1.38 2.6,2.53 0,0.1 0,0.17 -0.13,0.17 -0.11,0 -0.11,-0.06 -0.12,-0.16 -0.08,-1.42 -1.15,-2.24 -2.23,-2.24 -0.61,0 -2.56,0.34 -2.56,3.3 0,2.97 1.94,3.31 2.55,3.31 1.09,0 1.97,-0.9 2.17,-2.35 0.02,-0.14 0.02,-0.17 0.16,-0.17 0.16,0 0.16,0.03 0.16,0.24 v 2.35 c 0,0.17 0,0.24 -0.11,0.24 -0.04,0 -0.08,0 -0.16,-0.12 l -0.5,-0.74 c -0.37,0.36 -0.87,0.86 -1.83,0.86 -1.86,0 -3.46,-1.58 -3.46,-3.61 z"
   inkscape:connector-curvature="0"
   style="fill:#000000;stroke-width:0" />
<path
   id="path3226"
   d="m 234.52,707.91 v -0.89 l 1.43,0.11 v 0.3 c -0.7,0 -0.78,0.07 -0.78,0.56 v 3.53 l -1.46,-0.11 v -0.31 c 0.7,0 0.78,-0.07 0.78,-0.56 v -1.77 c 0,-0.86 -0.48,-1.54 -1.21,-1.54 -0.83,0 -0.87,0.47 -0.87,0.99 v 3.3 l -1.46,-0.11 v -0.31 c 0.77,0 0.77,-0.03 0.77,-0.92 v -1.49 c 0,-0.77 0,-1.67 1.51,-1.67 0.56,0 1,0.27 1.29,0.89 z"
   inkscape:connector-curvature="0"
   style="fill:#000000;stroke-width:0" />
<path
   id="path3228"
   d="m 237.82,710.42 v 1.1 l -1.38,-0.11 v -0.31 c 0.7,0 0.78,-0.07 0.78,-0.56 v -2.66 c 0,-0.45 -0.11,-0.45 -0.78,-0.45 v -0.3 c 0.39,0.01 0.86,0.03 1.13,0.03 0.4,0 0.87,0 1.27,-0.03 v 0.3 h -0.21 c -0.74,0 -0.76,0.11 -0.76,0.47 v 1.53 c 0,0.98 0.42,1.87 1.18,1.87 0.07,0 0.09,0 0.11,-0.01 -0.03,-0.01 -0.23,-0.13 -0.23,-0.39 0,-0.28 0.21,-0.43 0.43,-0.43 0.18,0 0.42,0.12 0.42,0.44 0,0.32 -0.3,0.61 -0.73,0.61 -0.73,0 -1.09,-0.67 -1.23,-1.1 z"
   inkscape:connector-curvature="0"
   style="fill:#000000;stroke-width:0" />
<path
   id="path3230"
   d="m 241.73,710.42 v 1.1 l -1.39,-0.11 v -0.31 c 0.7,0 0.78,-0.07 0.78,-0.56 v -2.66 c 0,-0.45 -0.11,-0.45 -0.78,-0.45 v -0.3 c 0.39,0.01 0.86,0.03 1.14,0.03 0.4,0 0.86,0 1.26,-0.03 v 0.3 h -0.21 c -0.73,0 -0.75,0.11 -0.75,0.47 v 1.53 c 0,0.98 0.41,1.87 1.17,1.87 0.07,0 0.09,0 0.11,-0.01 -0.03,-0.01 -0.23,-0.13 -0.23,-0.39 0,-0.28 0.21,-0.43 0.43,-0.43 0.18,0 0.43,0.12 0.43,0.44 0,0.32 -0.31,0.61 -0.74,0.61 -0.73,0 -1.08,-0.67 -1.22,-1.1 z"
   inkscape:connector-curvature="0"
   style="fill:#000000;stroke-width:0" />
<path
   id="path3232"
   d="m 245.07,709.42 0.01,0.21 c 0.06,1.48 0.9,1.73 1.24,1.73 1.02,0 1.12,-1.34 1.12,-1.73 h -2.36 l -0.01,-0.21 h 2.78 c 0.22,0 0.25,0 0.25,0.21 0,0.98 -0.54,1.95 -1.78,1.95 -1.16,0 -2.08,-1.03 -2.08,-2.27 0,-1.33 1.05,-2.29 2.19,-2.29 1.22,0 1.67,1.1 1.67,1.29 0,0.1 -0.08,0.12 -0.13,0.12 -0.09,0 -0.11,-0.06 -0.13,-0.14 -0.35,-1.03 -1.25,-1.03 -1.35,-1.03 -0.49,0 -0.89,0.3 -1.12,0.67 -0.3,0.48 -0.3,1.13 -0.3,1.49 z"
   inkscape:connector-curvature="0"
   style="fill:#000000;stroke-width:0" />
<path
   id="path3234"
   d="m 249.49,710.54 v -2.66 c 0,-0.45 -0.11,-0.45 -0.78,-0.45 v -0.3 c 0.35,0.01 0.86,0.03 1.13,0.03 0.26,0 0.77,-0.02 1.11,-0.03 v 0.3 c -0.66,0 -0.77,0 -0.77,0.45 v 1.83 c 0,1.03 0.7,1.59 1.34,1.59 0.63,0 0.74,-0.54 0.74,-1.1 v -2.32 c 0,-0.45 -0.11,-0.45 -0.78,-0.45 v -0.3 c 0.35,0.01 0.85,0.03 1.12,0.03 0.26,0 0.78,-0.02 1.12,-0.03 v 0.3 c -0.52,0 -0.77,0 -0.78,0.3 v 1.9 c 0,0.85 0,1.16 -0.31,1.52 -0.14,0.17 -0.47,0.37 -1.04,0.37 -0.73,0 -1.2,-0.43 -1.47,-1.05 v 1.05 l -1.41,-0.11 v -0.31 c 0.7,0 0.78,-0.07 0.78,-0.56 z"
   inkscape:connector-curvature="0"
   style="fill:#000000;stroke-width:0" />
<path
   id="path3236"
   d="m 255.37,711.1 h 1.42 v 0.31 h -1.42 v 1.82 h -0.25 c -0.01,-0.81 -0.31,-1.87 -1.28,-1.91 v -0.22 h 0.84 v -2.74 c 0,-1.22 0.93,-1.34 1.29,-1.34 0.7,0 0.98,0.7 0.98,1.34 v 0.56 h -0.25 v -0.54 c 0,-0.74 -0.29,-1.12 -0.66,-1.12 -0.67,0 -0.67,0.91 -0.67,1.08 z"
   inkscape:connector-curvature="0"
   style="fill:#000000;stroke-width:0" />
<path
   id="path3238"
   d="m 262.55,710.86 v 0.66 l -1.43,-0.11 v -0.31 c 0.71,0 0.78,-0.06 0.78,-0.5 v -4.65 c 0,-0.44 -0.11,-0.44 -0.78,-0.44 v -0.31 c 0.34,0.01 0.86,0.03 1.11,0.03 0.27,0 0.78,-0.02 1.13,-0.03 v 0.31 c -0.67,0 -0.78,0 -0.78,0.44 v 1.67 0.09 l 0.14,0.13 c -0.14,0.21 -0.14,0.22 -0.14,0.42 h 0 v 2.21 c 0.29,0.51 0.78,0.8 1.29,0.8 0.72,0 1.33,-0.88 1.33,-2 0,-1.2 -0.7,-2.04 -1.43,-2.04 -0.4,0 -0.78,0.2 -1.05,0.61 l -0.14,-0.13 c 0.05,-0.16 0.47,-0.69 1.23,-0.69 1.18,0 2.22,0.97 2.22,2.25 0,1.26 -0.97,2.25 -2.08,2.25 -0.78,0 -1.2,-0.44 -1.4,-0.66 z"
   inkscape:connector-curvature="0"
   style="fill:#000000;stroke-width:0" />
<path
   id="path3240"
   d="m 268.04,710.42 v 1.1 l -1.38,-0.11 v -0.31 c 0.69,0 0.77,-0.07 0.77,-0.56 v -2.66 c 0,-0.45 -0.11,-0.45 -0.77,-0.45 v -0.3 c 0.38,0.01 0.85,0.03 1.13,0.03 0.4,0 0.87,0 1.26,-0.03 v 0.3 h -0.2 c -0.74,0 -0.76,0.11 -0.76,0.47 v 1.53 c 0,0.98 0.42,1.87 1.17,1.87 0.07,0 0.09,0 0.11,-0.01 -0.03,-0.01 -0.23,-0.13 -0.23,-0.39 0,-0.28 0.21,-0.43 0.43,-0.43 0.18,0 0.43,0.12 0.43,0.44 0,0.32 -0.31,0.61 -0.74,0.61 -0.72,0 -1.08,-0.67 -1.22,-1.1 z"
   inkscape:connector-curvature="0"
   style="fill:#000000;stroke-width:0" />
<path
   id="path3242"
   d="m 272.04,711.52 -1.39,-0.11 v -0.31 c 0.65,0 0.73,-0.06 0.73,-0.55 v -2.67 c 0,-0.45 -0.11,-0.45 -0.77,-0.45 v -0.3 c 0.32,0.01 0.85,0.03 1.09,0.03 0.35,0 0.7,-0.02 1.04,-0.03 v 0.3 c -0.66,0 -0.7,0.05 -0.7,0.44 z"
   inkscape:connector-curvature="0"
   style="fill:#000000;stroke-width:0" />
<path
   id="path3244"
   d="m 272.08,713.24 0,0.03 0,0.03 -0.01,0.03 0,0.03 -0.01,0.02 0,0.03 -0.01,0.03 -0.01,0.02 -0.01,0.02 -0.02,0.03 -0.01,0.02 -0.01,0.02 -0.02,0.02 -0.01,0.02 -0.02,0.02 -0.02,0.02 -0.02,0.01 -0.02,0.02 -0.02,0.01 -0.02,0.02 -0.02,0.01 -0.02,0.01 -0.02,0.01 -0.03,0.01 -0.02,0.01 -0.02,0.01 -0.03,0.01 -0.02,0 -0.03,0.01 -0.03,0 -0.02,0 -0.03,0 c -0.31,0 -0.52,-0.27 -0.52,-0.53 0,-0.26 0.21,-0.52 0.52,-0.52 0.28,0 0.53,0.21 0.53,0.52 z"
   inkscape:connector-curvature="0"
   style="fill:#000000;stroke-width:0" />
<path
   id="path3246"
   d="m 274.21,709.29 0,0.08 0,0.07 0.01,0.07 0,0.07 0.01,0.07 0,0.07 0.01,0.06 0.01,0.06 0.01,0.06 0.01,0.06 0.01,0.06 0.01,0.06 0.03,0.11 0.03,0.1 0.03,0.1 0.04,0.09 0.04,0.09 0.04,0.08 0.04,0.07 0.05,0.07 0.05,0.07 0.05,0.06 0.05,0.05 0.05,0.05 0.05,0.05 0.06,0.04 0.05,0.04 0.06,0.03 0.06,0.03 0.05,0.03 0.06,0.02 0.05,0.02 0.06,0.01 0.06,0.02 0.05,0.01 0.05,0 0.05,0.01 0.05,0 c 0.09,0 0.72,-0.01 1.07,-0.37 -0.41,-0.03 -0.47,-0.33 -0.47,-0.46 0,-0.26 0.18,-0.45 0.46,-0.45 0.26,0 0.46,0.16 0.46,0.46 0,0.68 -0.76,1.07 -1.52,1.07 -1.25,0 -2.16,-1.08 -2.16,-2.31 0,-1.27 0.98,-2.25 2.13,-2.25 1.34,0 1.66,1.19 1.66,1.29 0,0.1 -0.1,0.1 -0.13,0.1 -0.09,0 -0.11,-0.04 -0.13,-0.1 -0.29,-0.93 -0.94,-1.05 -1.31,-1.05 -0.52,0 -1.4,0.43 -1.4,2.03 z"
   inkscape:connector-curvature="0"
   style="fill:#000000;stroke-width:0" />
<path
   id="path3248"
   d="m 278.58,709.42 0.01,0.21 c 0.06,1.48 0.89,1.73 1.23,1.73 1.03,0 1.13,-1.34 1.13,-1.73 h -2.36 l -0.01,-0.21 h 2.78 c 0.21,0 0.24,0 0.24,0.21 0,0.98 -0.53,1.95 -1.78,1.95 -1.15,0 -2.07,-1.03 -2.07,-2.27 0,-1.33 1.05,-2.29 2.19,-2.29 1.22,0 1.66,1.1 1.66,1.29 0,0.1 -0.08,0.12 -0.12,0.12 -0.09,0 -0.12,-0.06 -0.13,-0.14 -0.35,-1.03 -1.25,-1.03 -1.35,-1.03 -0.49,0 -0.89,0.3 -1.12,0.67 -0.3,0.48 -0.3,1.13 -0.3,1.49 z"
   inkscape:connector-curvature="0"
   style="fill:#000000;stroke-width:0" />
<path
   id="path3250"
   d="m 288.52,704.74 0,0.01 0,0 0,0 0,0.01 0,0 0,0 0,0.01 0,0 0,0 -0.01,0.01 0,0 0,0.01 0,0 -0.01,0.01 0,0 -0.01,0.01 0,0.01 -0.01,0 0,0.01 0,0 -0.01,0.01 0,0 -0.01,0 0,0.01 0,0 -0.01,0.01 0,0 -0.01,0.01 0,0 -0.01,0.01 0,0 -0.01,0.01 0,0.01 -0.01,0 -0.01,0.01 0,0.01 -0.01,0 -0.01,0.01 0,0.01 -0.01,0 -0.01,0.01 -0.01,0.01 c -1.24,1.25 -1.56,3.13 -1.56,4.65 0,1.73 0.38,3.46 1.6,4.7 0.13,0.12 0.13,0.14 0.13,0.17 0,0.07 -0.04,0.1 -0.1,0.1 -0.1,0 -0.99,-0.68 -1.58,-1.94 -0.51,-1.09 -0.63,-2.2 -0.63,-3.03 0,-0.78 0.11,-1.98 0.66,-3.1 0.6,-1.22 1.45,-1.87 1.55,-1.87 0.06,0 0.1,0.03 0.1,0.1 z"
   inkscape:connector-curvature="0"
   style="fill:#000000;stroke-width:0" />
<path
   id="path3252"
   d="m 289.66,710.52 0.01,-0.19 0.01,-0.19 0.02,-0.18 0.03,-0.18 0.04,-0.18 0.05,-0.18 0.06,-0.16 0.06,-0.17 0.07,-0.16 0.08,-0.16 0.09,-0.15 0.09,-0.15 0.1,-0.14 0.1,-0.13 0.11,-0.13 0.12,-0.13 0.12,-0.12 0.13,-0.11 0.13,-0.1 0.13,-0.1 0.15,-0.09 0.14,-0.09 0.15,-0.08 0.15,-0.07 0.16,-0.06 0.16,-0.06 0.16,-0.04 0.16,-0.04 0.17,-0.03 0.17,-0.03 0.17,-0.01 0.17,0 c 1.63,0 2.6,1.38 2.6,2.53 0,0.1 0,0.17 -0.13,0.17 -0.11,0 -0.11,-0.06 -0.12,-0.16 -0.08,-1.42 -1.14,-2.24 -2.23,-2.24 -0.6,0 -2.55,0.34 -2.55,3.3 0,2.97 1.94,3.31 2.54,3.31 1.09,0 1.97,-0.9 2.17,-2.35 0.02,-0.14 0.02,-0.17 0.16,-0.17 0.16,0 0.16,0.03 0.16,0.24 v 2.35 c 0,0.17 0,0.24 -0.11,0.24 -0.04,0 -0.08,0 -0.16,-0.12 l -0.5,-0.74 c -0.36,0.36 -0.87,0.86 -1.83,0.86 -1.86,0 -3.46,-1.58 -3.46,-3.61 z"
   inkscape:connector-curvature="0"
   style="fill:#000000;stroke-width:0" />
<path
   id="path3254"
   d="m 299.17,709.61 0,0.07 0,0.08 0,0.08 0,0.08 -0.01,0.17 -0.01,0.17 -0.02,0.18 -0.02,0.19 -0.03,0.2 -0.03,0.2 -0.04,0.2 -0.04,0.21 -0.06,0.21 -0.06,0.21 -0.07,0.21 -0.08,0.21 -0.04,0.11 -0.04,0.11 -0.05,0.1 -0.05,0.11 c -0.6,1.22 -1.45,1.87 -1.55,1.87 -0.06,0 -0.1,-0.04 -0.1,-0.1 0,-0.03 0,-0.05 0.18,-0.23 0.98,-0.99 1.55,-2.57 1.55,-4.64 0,-1.7 -0.37,-3.45 -1.6,-4.7 -0.13,-0.12 -0.13,-0.14 -0.13,-0.17 0,-0.06 0.04,-0.1 0.1,-0.1 0.1,0 0.99,0.68 1.58,1.94 0.5,1.09 0.62,2.19 0.62,3.03 z"
   inkscape:connector-curvature="0"
   style="fill:#000000;stroke-width:0" />
</g>  </g>
</svg>
